<svg id="Capa_1" data-name="Capa 1" xmlns="http://www.w3.org/2000/svg" viewBox="0 0 76.97 76.95"><defs><style>.cls-1{fill:#003a70;}.cls-2{fill:#71cc98;}.cls-3{fill:#007d8a;}.cls-4{fill:#91835c;}.cls-5{fill:#f8e08e;}.cls-6{fill:#fff;}</style></defs><path class="cls-1" d="M69.91,16.27a39.1,39.1,0,0,0-18.32-14A38.49,38.49,0,0,0,22.51,73.5a39.06,39.06,0,0,0,23.77,2.68,38.46,38.46,0,0,0,30.2-31.62A39.86,39.86,0,0,0,77,38.49,38.5,38.5,0,0,0,69.91,16.27Z"/><path class="cls-2" d="M25.88,36.52a50.52,50.52,0,0,1-2.47-6.28c-.35-1.08-.67-2.17-1-3.27l-.05,0-.14.06h0l-.33.15-.67.36a11.4,11.4,0,0,0-2.53,2,8.47,8.47,0,0,0-2.49,5,13.78,13.78,0,0,1,3.54.52,16,16,0,0,1,4.61,2.15c1,.68,1.95,1.42,3,2l.15.09A25.92,25.92,0,0,1,25.88,36.52Z"/><path class="cls-2" d="M9.3,35.33v-.06h0Z"/><path class="cls-2" d="M9.3,35.27h0S9.29,35.24,9.3,35.27Z"/><path class="cls-2" d="M18.46,27.19a11.49,11.49,0,0,1,3.5-2.1A66.65,66.65,0,0,1,20.6,17.7a17.6,17.6,0,0,0-4.82,2.89,19,19,0,0,0-6,9.32c-.12.42-.22.84-.31,1.26,0,.21-.08.41-.11.62s0,.19-.05.29v0s0,.08,0,.13a15.75,15.75,0,0,0-.09,2.28c0,.18,0,.36,0,.54l0,.21h0s0,.08,0,.12a7.66,7.66,0,0,0,.21,1h0l.18-.11a13,13,0,0,1,4.56-1.5,8.23,8.23,0,0,1,.53-2.55A12.14,12.14,0,0,1,18.46,27.19Z"/><path class="cls-2" d="M7.3,34a19.2,19.2,0,0,1,3.45-10.64,20.27,20.27,0,0,1,9.63-7.66.38.38,0,0,0,0-.1A38.4,38.4,0,0,1,20.27,9a24,24,0,0,1,.34-2.53A36.72,36.72,0,0,0,2.43,45a19.22,19.22,0,0,1,5.43-7.53A10.45,10.45,0,0,1,7.3,34Z"/><path class="cls-3" d="M58.29,9.53a30.42,30.42,0,0,1,4.89,3.19,39.62,39.62,0,0,1,4.15,3.94c.71.77,1.42,1.55,2.16,2.29A36.65,36.65,0,0,0,22.89,5.31,15.51,15.51,0,0,0,22.47,7l-.12.69,0,.2v0l0,.14c0,.06,0,.11,0,.17-.06.5-.1,1-.13,1.51A37.49,37.49,0,0,1,36.48,5.26,39.34,39.34,0,0,1,58.29,9.53Z"/><path class="cls-2" d="M51.09,40.43a49,49,0,0,1,2.47,6.28c.35,1.08.68,2.17,1,3.27l0,0,.14-.06h0l.33-.15c.23-.11.45-.24.67-.36a11,11,0,0,0,2.53-2,8.42,8.42,0,0,0,2.49-5,13.64,13.64,0,0,1-3.53-.52,16,16,0,0,1-4.61-2.15c-1-.68-2-1.42-3-2l-.15-.09A25.92,25.92,0,0,1,51.09,40.43Z"/><path class="cls-2" d="M67.67,41.62v.06h0Z"/><path class="cls-2" d="M67.68,41.68h0Z"/><path class="cls-2" d="M58.52,49.76a11.61,11.61,0,0,1-3.5,2.1,66.61,66.61,0,0,1,1.35,7.39,17.36,17.36,0,0,0,4.82-2.89,19.07,19.07,0,0,0,6-9.32q.17-.63.3-1.26c0-.2.08-.41.11-.62s0-.19,0-.29v0s0-.08,0-.13a13.34,13.34,0,0,0,.09-2.28c0-.18,0-.36,0-.54s0-.14,0-.21h0s0-.07,0-.12c0-.32-.12-.64-.2-1h0l-.19.11a12.83,12.83,0,0,1-4.56,1.5,8.23,8.23,0,0,1-.53,2.55A12.21,12.21,0,0,1,58.52,49.76Z"/><path class="cls-2" d="M69.68,42.93a19.28,19.28,0,0,1-3.45,10.64,20.29,20.29,0,0,1-9.64,7.66s0,.07,0,.1a38.4,38.4,0,0,1,.1,6.61,23.66,23.66,0,0,1-.34,2.53A36.71,36.71,0,0,0,74.55,31.94a19.32,19.32,0,0,1-5.43,7.53A10.72,10.72,0,0,1,69.68,42.93Z"/><path class="cls-3" d="M18.68,67.42a30.87,30.87,0,0,1-4.89-3.19,39.52,39.52,0,0,1-4.14-3.94c-.72-.77-1.42-1.55-2.17-2.28a36.66,36.66,0,0,0,46.6,13.63A14.93,14.93,0,0,0,54.5,70q.07-.35.12-.69l0-.2v0l0-.14c0-.06,0-.11,0-.16.06-.51.1-1,.13-1.52a37.59,37.59,0,0,1-14.34,4.47A39.28,39.28,0,0,1,18.68,67.42Z"/><path class="cls-3" d="M7.55,55.45a52.71,52.71,0,0,1,3.93,4,33.16,33.16,0,0,0,4.14,3.81,30.12,30.12,0,0,0,4.64,2.83,34,34,0,0,0,4.31,1.79,38.55,38.55,0,0,0,5.19,1.39,36.2,36.2,0,0,0,11.84.39,35.62,35.62,0,0,0,13-4.52.82.82,0,0,1,.24-.1c0-1.54-.13-3.07-.29-4.6-.14-1.23-.29-2.27-.51-3.55s-.46-2.47-.73-3.69a67.16,67.16,0,0,0-2-7.08c-.19-.55-.38-1.1-.59-1.64-.1-.26-.2-.52-.31-.78l-.15-.38L50.17,43c-.39-.91-.81-1.81-1.27-2.68-.11-.21-.22-.42-.34-.62,0,.09,0,.18,0,.27C47.11,46.58,39.66,57.9,26,57.09c-7.61-.46-16.78-9-21.67-5.81l-.24,0c0,.06,0,.11.07.17l-.07,0,.13.11c.28.74.58,1.47.91,2.18A17.26,17.26,0,0,1,7.55,55.45Z"/><path class="cls-4" d="M65.75,29.22c-4.69-.73-7.35-4-15.37-4.32a19.54,19.54,0,0,0-12.6,4c-3.31,2.48-7.29,9.16-6.63,11.51a1,1,0,0,0,.55.48h0a4.24,4.24,0,0,0,2,.39,1.86,1.86,0,0,0,.46-.21,5.28,5.28,0,0,0,.88-.6,10.54,10.54,0,0,0,1.16-1.13c.95-1,1.86-2.31,2.77-3.35a5.82,5.82,0,0,1,2-1.5c-.37-.06-.73-.12-1.1-.2l-.19,0-.58-.15-.44-.14s-.5-.21-.76-.34h0l-.36-.23a2.52,2.52,0,0,1-.51-.52,1.75,1.75,0,0,1-.31-.71,2.1,2.1,0,0,1,0-.75,2.7,2.7,0,0,1,.09-.36,3.54,3.54,0,0,1,.16-.34,2.42,2.42,0,0,1,.44-.56,3,3,0,0,1,.54-.42,5.45,5.45,0,0,1,1.15-.54,12.54,12.54,0,0,1,2.38-.53,24.25,24.25,0,0,1,4.74-.1l1.19.11c.39.05.78.11,1.18.19l.3.06.16,0,.15,0,.55.16.55.15.56.15c.74.18,1.48.34,2.23.45a11,11,0,0,0,1.14.1,7.45,7.45,0,0,0,1.15-.06,5.28,5.28,0,0,1-1.12.38,7,7,0,0,1-1.19.13,11.81,11.81,0,0,1-2.38-.15c-.4-.05-.78-.13-1.17-.21l-.58-.13-.13,0-.13,0-.27-.05c-.36-.05-.74-.1-1.12-.13l-1.14-.08-.57,0-.57,0H43.87q-.57,0-1.14,0c-.38,0-.75.05-1.13.09a10.38,10.38,0,0,0-2.18.42,4.87,4.87,0,0,0-1,.41,2,2,0,0,0-.66.63.82.82,0,0,0-.09.19,1.52,1.52,0,0,0-.06.2,1.13,1.13,0,0,0,0,.41.78.78,0,0,0,.15.35,1.25,1.25,0,0,0,.3.31,3.38,3.38,0,0,0,.91.46,8.83,8.83,0,0,0,1.07.29c.73.15,1.49.25,2.25.34l1.15.13.21,0a10,10,0,0,1,3.19.46l.1,0a3.8,3.8,0,0,1,.61.18,3,3,0,0,1,.45.2,22.09,22.09,0,0,1,5,2.86c6.82,5.11,16.66,4.12,20.78-9C72.26,29.22,70.43,30,65.75,29.22Z"/><path class="cls-5" d="M11.23,47.73c4.69.73,7.34,4,15.36,4.32A19.57,19.57,0,0,0,39.2,48.1c3.31-2.48,7.28-9.16,6.62-11.51a1,1,0,0,0-.55-.48h0a4.23,4.23,0,0,0-2-.39,1.75,1.75,0,0,0-.47.21,5.73,5.73,0,0,0-.88.6,11.31,11.31,0,0,0-1.15,1.13C39.82,38.7,38.9,40,38,41a5.82,5.82,0,0,1-2,1.5c.36.06.72.12,1.09.2l.2,0s.42.1.57.15l.44.14s.51.21.76.34h0l.36.23a2.1,2.1,0,0,1,.51.52,1.75,1.75,0,0,1,.31.71,2.1,2.1,0,0,1,0,.75,2.7,2.7,0,0,1-.09.36,2.07,2.07,0,0,1-.15.34,2.83,2.83,0,0,1-.45.57,3.49,3.49,0,0,1-.54.41,5,5,0,0,1-1.15.54,12.62,12.62,0,0,1-2.37.53,24.35,24.35,0,0,1-4.75.1l-1.18-.11c-.4,0-.79-.11-1.19-.19l-.3-.06-.15,0-.15,0-.56-.16-.55-.15-.55-.14a21.17,21.17,0,0,0-2.24-.46,10.54,10.54,0,0,0-1.13-.1,7.52,7.52,0,0,0-1.16.06,4.83,4.83,0,0,1,1.13-.37,6.78,6.78,0,0,1,1.19-.14,12.64,12.64,0,0,1,2.38.15c.39.05.78.13,1.16.21L28,47l.13,0,.13,0,.27.05c.37,0,.74.1,1.12.13l1.14.08.57,0,.57,0H33.1q.57,0,1.14,0c.38,0,.76,0,1.13-.09a10.38,10.38,0,0,0,2.18-.42,4.87,4.87,0,0,0,1-.41,2,2,0,0,0,.67-.63l.09-.19a1.46,1.46,0,0,0,0-.2,1.14,1.14,0,0,0,0-.41,1.09,1.09,0,0,0-.15-.35,1.51,1.51,0,0,0-.31-.31,3.1,3.1,0,0,0-.91-.45,9.22,9.22,0,0,0-1.06-.3c-.74-.15-1.5-.25-2.26-.34l-1.15-.13-.2,0a10.05,10.05,0,0,1-3.2-.46l-.1,0a3.7,3.7,0,0,1-.6-.18,2.28,2.28,0,0,1-.45-.2,21.88,21.88,0,0,1-5-2.86c-6.83-5.11-16.67-4.12-20.78,9C4.72,47.73,6.54,47,11.23,47.73Z"/><path class="cls-6" d="M72.72,25.39c-.29-.74-.59-1.47-.92-2.18a17.71,17.71,0,0,1-2.37-1.7,54.78,54.78,0,0,1-3.93-4,34,34,0,0,0-4.15-3.81,30,30,0,0,0-4.63-2.83A34.13,34.13,0,0,0,52.4,9.09,38.41,38.41,0,0,0,47.22,7.7a36.26,36.26,0,0,0-11.85-.39,35.57,35.57,0,0,0-13,4.52.82.82,0,0,1-.24.1,44.2,44.2,0,0,0,.29,4.6c.13,1.23.28,2.33.5,3.62s.46,2.46.74,3.68a66.24,66.24,0,0,0,2,7c.19.54.39,1.09.59,1.63l.31.78c.05.13.1.26.16.38l.11.27c.38.91.8,1.81,1.26,2.68l.34.62c0-.09,0-.18,0-.27a21.43,21.43,0,0,1,2.86-6.65c-.15-.41-.31-.83-.45-1.24-.34-1-.65-2-.94-2.95,3.57-5.47,10-10.72,19.47-10.16,3.31.2,6.93,1.94,10.35,3.57.55.51,1.13,1.09,1.78,1.78l.81.87c.91,1,2,2.11,3,3.1,2.83,1.13,5.35,1.65,7.24.4l.18-.13ZM47,13.1c-8.35-.64-14.49,3.64-18.23,8.44-.17-.78-.34-1.56-.47-2.33-.16-.92-.53-3.62-.64-4.57A21.54,21.54,0,0,1,40.54,10c3.2,0,10.33.68,15.24,5.22,0,0-2.18-.74-4.39-1.28A33.7,33.7,0,0,0,47,13.1Z"/></svg>
