<?xml version="1.0" encoding="utf-8"?>
<!-- Generator: Adobe Illustrator 24.3.0, SVG Export Plug-In . SVG Version: 6.00 Build 0)  -->
<svg version="1.1" id="Capa_1" xmlns="http://www.w3.org/2000/svg" xmlns:xlink="http://www.w3.org/1999/xlink" x="0px" y="0px"
	 viewBox="0 0 300 266.6" style="enable-background:new 0 0 300 266.6;" xml:space="preserve">
<style type="text/css">
	.st0{fill:#E5C34D;}
	.st1{fill:#F8E08E;}
	.st2{fill:#007D8A;}
	.st3{fill:#003A70;}
	.st4{fill:#71CC98;}
	.st5{fill:#FFFFFF;}
</style>
<g>
	<path class="st0" d="M160.4,49c1.7-5.4,3.6-10.8,5.5-16l0-0.1c3.1-8.6,9.8-14.8,17.8-17.5c-2-2.7-4.7-5.1-7.8-6.9
		C169.8,5,162.7,2.3,155.4,1c-7.4-1.3-14.9-1.3-21.8-0.3c-7,1-13.4,3-19.3,5.3c-3.8,1.5-7.3,3.3-10.7,5.1
		C45.4,56.5,37.7,169.3,76.3,195.7c-10-11.2,1.2-54.7,3-61.5c1-3.7,2.1-7.4,3.4-11c1.2-3.6,2.7-7.1,4.3-10.5
		c1.6-3.4,3.4-6.7,5.2-9.9l1.4-2.4c0.5-0.8,1.1-1.7,1.6-2.5c1.1-1.7,2.2-3.4,3.3-5c4.5-6.6,9.3-12.9,14.3-18.5
		c5-5.6,10.3-10.7,15.4-14.6c5.2-3.9,10.3-6.3,14.1-7.4C149.4,50.2,155.4,49.3,160.4,49z"/>
	<path class="st1" d="M147.5,219.3c-3.7-9.1-5.7-17.6-7-25.7c-2.4-16.1-2.2-30.7-1.2-44.8c0.7-8.8,1.7-17.3,3-25.7l0,0
		c-3,21-13.3,38-22.4,49.5c-4.5,5.8-23.3,31.7-40.6,25.1c-1.2-0.4-2.2-1.2-3-2.1c0,0,0,0,0,0C37.7,169.3,45.4,56.5,103.6,11.2
		c-1.9,1-3.7,2.1-5.4,3.1c-9.9,6.1-18.3,13.1-25.9,20.4C64.6,42,57.8,49.6,51.4,57.5c-1.6,2-3.1,3.9-4.7,5.9l-2.3,3l-2.4,3.2
		c-3.1,4.3-6,8.8-8.8,13.3c-5.6,9-10.6,18.2-15.2,27.6c-4.5,9.4-8.6,19.1-11.7,29.2c-3.1,10.1-5.2,20.6-6.1,31.8
		c-0.4,5.7-0.5,11.5,0,18.4c0.1,1.7,1.9,38.6,30.9,58.2c44.8,30.3,96.2-1,115.3-21.1c1-1.1,2-2.2,3-3.3
		C148.8,222.3,148.1,220.8,147.5,219.3z"/>
	<path class="st2" d="M245.5,180.4c-4.7,4.2-23,25.3-30.7,21.6c-0.6-0.3-1.1-0.6-1.5-1c0,0,0,0,0,0C159,167.8,148.1,114,154.1,69.7
		c0.9-3.1,1.8-6.2,2.7-9.3c-0.9,3.1-1.9,6.3-2.8,9.4c-3.5,12.6-6.6,25.3-9.2,38.5c-2.5,13.1-4.6,26.6-5.6,40.6
		c-1,14.1-1.2,28.6,1.2,44.8c1.3,8.1,3.3,16.6,7,25.7c1.9,4.5,4.2,9.2,7.3,13.9c3,4.7,6.8,9.3,11.4,13.5c1.1,1.1,2.3,2.1,3.6,3.1
		l1.9,1.5l1.5,1c1.9,1.3,4,2.7,6.1,3.9c4.3,2.5,9.1,5,14.6,6.8c46,5.6,65-44.6,67.1-95.7C255.2,171.7,250.1,176.2,245.5,180.4z"/>
	<path class="st3" d="M213.2,201c-10.3-7.7-7.1-37.6-6.6-48c0.5-11,1.7-22.4,3.3-34c1.5-11.6,3.4-23.4,5.5-35.2l6.4-36.1
		c2.4-13.6-5.2-27.5-18.7-32.3c-15.1-5.5-31.7,2.3-37.2,17.4l0,0.1c-2.2,6-4.2,12-6.2,18.2c-2,6.1-3.8,12.3-5.6,18.5
		C148.1,114,159,167.8,213.2,201z"/>
	<path class="st4" d="M295,171.9c-8.2-10.7-23.4-12.7-34.1-4.6c-2.1,51.1-21.2,101.3-67.1,95.7c5.5,1.9,11.6,3.2,18,3.5
		c6.4,0.4,13-0.4,19-1.9c6-1.5,11.4-3.9,16.1-6.5c4.7-2.6,8.6-5.5,12.1-8.5c3.5-2.9,6.5-5.9,9.2-8.9c2.7-2.9,5.1-5.9,7.4-8.8
		c4.4-5.8,8.2-11.4,11.5-16.8c3.4-5.4,6.4-10.5,9.1-15.4l0.7-1.2C301.5,190.4,301.1,179.9,295,171.9z"/>
</g>
</svg>
