<?xml version="1.0" encoding="utf-8"?>
<!-- Generator: Adobe Illustrator 24.3.0, SVG Export Plug-In . SVG Version: 6.00 Build 0)  -->
<svg version="1.1" id="Capa_1" xmlns="http://www.w3.org/2000/svg" xmlns:xlink="http://www.w3.org/1999/xlink" x="0px" y="0px"
	 viewBox="0 0 359.2 500" style="enable-background:new 0 0 359.2 500;" xml:space="preserve">
<style type="text/css">
	.st0{fill:#E5C34D;}
	.st1{fill:#F8E08E;}
	.st2{fill:#007D8A;}
	.st3{fill:#003A70;}
	.st4{fill:#71CC98;}
	.st5{fill:#FFFFFF;}
	.st6{fill:#967157;}
	.st7{fill:#2596C0;}
	.st8{fill:#2C140A;}
	.st9{fill:#CCA285;}
	.st10{fill:#825B40;}
	.st11{fill:#206584;}
	.st12{clip-path:url(#SVGID_2_);}
	.st13{fill:none;stroke:#206584;stroke-width:2.374;stroke-linecap:round;stroke-linejoin:round;}
	.st14{fill:none;stroke:#206584;stroke-width:2.374;stroke-linecap:round;stroke-linejoin:round;stroke-dasharray:14.236,14.236;}
	.st15{fill:#C57619;}
	.st16{fill:#6A3527;}
	
		.st17{fill:none;stroke:#206584;stroke-width:2.8507;stroke-linecap:round;stroke-linejoin:round;stroke-miterlimit:10;stroke-dasharray:17.1041;}
	.st18{font-family:'Pacifico';}
	.st19{font-size:50.5127px;}
</style>
<g>
	<g>
		<g>
			<g>
				<path class="st6" d="M348.1,216.2c-5.9-4.6-13.1-2.6-17.7,0c-4.6,2.6-63.6,42.6-68.8,44.6c-5.2,2-18.4,0-24.9-9.8
					c-6.6-9.8-57-6.6-57-6.6c0,0-50.5-3.3-57,6.6c-6.6,9.8-19.7,11.8-24.9,9.8s-64.3-42-68.8-44.6c-4.6-2.6-11.8-4.6-17.7,0
					c-5.9,4.6-15.1,17-9.2,33.4c5.9,16.4,51.8,51.1,68.2,63.6c16.4,12.5,11.1,82,5.9,112.1c-5.2,30.2-17,43.3-5.9,54.4
					c11.1,11.1,61,13.1,109.5,13.1l0,0l0,0l0,0l0,0c48.5,0,98.4-2,109.5-13.1c11.1-11.1-0.7-24.3-5.9-54.4
					c-5.2-30.2-10.5-99.7,5.9-112.1c16.4-12.5,62.3-47.2,68.2-63.6C363.2,233.2,354,220.8,348.1,216.2z"/>
				<path class="st7" d="M353.9,259.9c-9.3-16.8-22.1-31.2-31.2-40.4c-2.4-2.4-6.2-2.8-9-0.9l-7.1,4.7
					c-15.2,10.1-46.1,23.7-50.3,25.7c-2.5,0.8-9.2,4.7-13.7-2c-3-4.5-9.7-9.3-36.5-10.1c-12.3-0.4-24,0.2-26.4,0.4
					c-2.5-0.1-14.1-0.8-26.5-0.4c-26.8,0.8-33.5,5.6-36.5,10.1c-4.5,6.8-13.9,8-16.4,7.1c-4.1-2-32.4-20.7-47.6-30.8l-2.9-1.9
					c-3-2-7-1.4-9.4,1.3c-6,7.1-18,22-30.3,41.8c-1.7,2.8-1.3,6.4,1,8.8c16.7,16.7,41.9,35.9,54.1,45.2l0.5,0.4
					c1.4,1,8.1,8,8.3,43.8c0.1,21.9-2.5,46.7-5.1,61.5c-1.7,10-4.2,17.9-6.4,24.9c-4.2,13.6-7.9,25.4,2.4,35.7
					c10.8,10.8,44,15.2,114.5,15.2s103.7-4.4,114.5-15.2c10.3-10.3,6.7-22.1,2.4-35.7c-2.2-7-4.6-15-6.4-24.9
					c-2.6-14.8-5.1-39.5-5.1-61.5c0.1-35.8,6.9-42.7,8.3-43.8l0.5-0.4c12.8-9.8,42.9-32.6,59-50.3
					C355,265.9,355.4,262.6,353.9,259.9z"/>
				<path class="st6" d="M315.3,61.6c-16.2-20.1-24.1-23.4-34.4-23.1c-10,0.2-13.8,13.7-21.9,36.8c-20.1-19.3-46.2-32.8-75.5-33.8
					c-1.3,0-2.6,0-3.8,0c-1.3,0-2.6,0-3.8,0c-29.3,0.9-55.4,14.5-75.5,33.8c-8.1-23.1-11.9-36.5-21.9-36.8
					c-10.3-0.2-18.2,3-34.4,23.1c-15,18.6-19.2,29.3-14.8,38.1c4.7,9.5,25.9,13,42.7,13.5c-8.7,16.7-13.5,34.3-13.5,50.2
					c0,22.8,17.2,66.8,59.8,92.7c16.6,10.1,36.4,20.7,61.5,21.3c24.6-0.6,41.5-11,58-20.7c43.3-25.7,63.3-70.3,63.3-93.3
					c0-16-4.9-33.5-13.5-50.2c16.8-0.5,37.9-4,42.7-13.5C334.4,90.8,330.3,80.2,315.3,61.6z"/>
				<ellipse class="st8" cx="146.5" cy="159.4" rx="8.9" ry="9.8"/>
				<path class="st9" d="M262.7,79c2.6-5.4,4.8-11,7.4-16.3c2.4-5.2,5.5-11.1,10.3-10.8c5.6-0.3,10.4,2,14.6,5.9
					c4.3,3.7,8.1,8.3,11.7,12.9c3.7,4.6,7.3,9.3,9.8,14.3c1.2,2.5,2.3,5.1,2.4,7.6c0.2,2.4-0.6,5.1-2,6.8c-3.3,3.7-9.5,5.3-15.1,6.4
					c-5.8,1.2-11.7,1.8-17.7,2.5c6,0.5,12,0.6,18.1,0.1c3-0.3,6.1-0.8,9.1-1.6c3-0.9,6.1-2,8.7-4.6c2.6-2.8,3.5-6.4,3.4-9.9
					c-0.1-3.5-1.3-6.6-2.6-9.5c-2.8-5.7-6.5-10.6-10.2-15.4c-3.8-4.7-7.8-9.3-12.5-13.4c-2.4-2-5.1-3.9-8.2-5.1
					c-3.2-1.2-6.5-1.6-9.7-1.4c-3.8,0.1-7.1,2.8-8.7,5.6c-1.8,2.8-2.9,5.6-3.9,8.5C265.6,67.4,264.1,73.2,262.7,79z"/>
				<path class="st10" d="M179.6,172.7c-13.6,0-37,8.5-37,21.8c0,13.3,17,36.6,37,36.6s37-23.3,37-36.6
					C216.6,181.2,193.2,172.7,179.6,172.7z"/>
				<ellipse class="st8" cx="212.7" cy="159.4" rx="8.9" ry="9.8"/>
				<path class="st8" d="M205.4,193.1c-1-0.1-2,0.7-2,1.8c-0.5,8.2-12.4,20.7-22.6,21.6v-29.7c2.9-0.8,8-3.9,11-8.2
					c3.4-4.9-4.4-7.4-12.1-7.4c-7.7,0-15.6,2.5-12.1,7.4c3,4.3,8.1,7.4,11,8.2v29.7c-10.2-0.9-22.1-13.3-22.6-21.6
					c-0.1-1.1-1-1.9-2-1.8c-1,0.1-1.8,1-1.8,2c0.6,10.4,15,25.2,27.6,25.2c12.6,0,26.9-14.8,27.6-25.2
					C207.2,194.1,206.4,193.2,205.4,193.1z"/>
				<path class="st9" d="M96.5,79c-2.6-5.4-4.8-11-7.4-16.3c-2.4-5.2-5.5-11.1-10.3-10.8c-5.6-0.3-10.4,2-14.6,5.9
					c-4.3,3.7-8.1,8.3-11.7,12.9c-3.7,4.6-7.3,9.3-9.8,14.3c-1.2,2.5-2.3,5.1-2.4,7.6c-0.2,2.4,0.6,5.1,2,6.8
					c3.3,3.7,9.5,5.3,15.1,6.4c5.8,1.2,11.7,1.8,17.7,2.5c-6,0.5-12,0.6-18.1,0.1c-3-0.3-6.1-0.8-9.1-1.6c-3-0.9-6.1-2-8.7-4.6
					c-2.6-2.8-3.5-6.4-3.4-9.9c0.1-3.5,1.3-6.6,2.6-9.5c2.8-5.7,6.5-10.6,10.2-15.4c3.8-4.7,7.8-9.3,12.5-13.4
					c2.4-2,5.1-3.9,8.2-5.1c3.2-1.2,6.5-1.6,9.7-1.4c3.8,0.1,7.1,2.8,8.7,5.6c1.8,2.8,2.9,5.6,3.9,8.5C93.6,67.4,95.1,73.2,96.5,79z
					"/>
				<g>
					<g>
						<path class="st11" d="M69.2,423.5c2.4,0.6,4.8,0.4,7.2-0.1c2.4-0.5,4.7-1.1,6.9-1.9c2.3-0.8,4.5-1.6,6.8-2.6
							c2.2-0.9,4.7-1.8,7.1-2.3c4.9-1.1,10-1.2,15-0.9c5,0.3,9.9,1.2,14.7,2.2c19.3,4.3,37.4,12.2,55.3,19.4c9,3.7,17.9,7.4,27,10.1
							c4.5,1.3,9.1,2.5,13.6,2.6c0.6,0.1,1.1,0,1.6,0c0.6,0,1,0,1.7-0.1l3.6-0.4l7.3-0.7c4.8-0.5,9.7-1,14.5-1.5
							c4.8-0.5,9.6-1.2,14.4-1.9c4.8-0.7,9.5-1.7,14.1-3c2.3-0.7,4.6-1.4,6.8-2.4c2.2-1,4.3-2.2,6-3.9c-1.5,1.9-3.5,3.4-5.6,4.7
							c-2.1,1.3-4.4,2.3-6.7,3.2c-4.6,1.8-9.3,3.1-14.1,4.3c-9.5,2.2-19.2,3.8-28.8,5.2l-7.2,1.1l-3.6,0.5c-0.6,0.1-1.3,0.1-2,0.2
							c-0.7,0-1.4,0.2-2,0.1c-5.3,0-10.3-1.1-15.1-2.4c-9.6-2.7-18.7-6.4-27.7-10c-9-3.7-17.9-7.5-26.9-11c-4.5-1.8-9-3.5-13.5-5.1
							c-4.5-1.6-9.1-3-13.7-4.3c-2.3-0.7-4.6-1.1-7-1.7l-3.5-0.6c-1.2-0.2-2.3-0.3-3.5-0.5c-4.7-0.6-9.4-0.8-14.1-0.1
							c-2.4,0.3-4.5,0.9-6.9,1.6c-2.3,0.7-4.7,1.4-7.1,2c-2.4,0.6-4.8,1-7.3,1.2C74.1,424.4,71.5,424.4,69.2,423.5z"/>
					</g>
					<path class="st7" d="M72.2,399.1c-0.8,9.9-10.6,21.5-3,24.4c3.6,1.4,10.5,0.5,22.2-3.8c36.1-13.5,107.8,36.5,134.5,32.8
						c22.1-3,57.5-5.9,66.8-16.6c1.9-2.2,2.7-4.7,2.1-7.6c-3.7-17.2-7.3-17.8-8.3-34c-1-16.2-113.3-38.3-113.3-38.3L72.2,399.1z"/>
					<path class="st7" d="M179.4,33C104.7,33,44,65.3,44,151.7c0,32-1.7,65.2,28.1,84.8c51.5,33.7,107.3,84.8,107.3,84.8
						c6.3-16.1,44.3-60.6,84.8-71.6c36.5-9.9,49.5-61.1,50.6-97.9C317.4,65.3,254.2,33,179.4,33z M291.3,159.4
						c-0.9,25-12.4,63.9-37.1,73c-36,13.2-69.4,33.5-74.7,44.9c0,0-52.7-32.5-86-51.6c-22.5-12.9-25.8-45-25.8-66.4
						c0-60.1,50.1-82.6,111.8-82.6S293.4,99.3,291.3,159.4z"/>
				</g>
				<g>
					<defs>
						<path id="SVGID_1_" d="M179.4,321.2c-21.5-17.1-7.1-33,0-43.8l-8.4-5.2l-16.6,27.1C163.8,306.9,179.4,321.2,179.4,321.2z"/>
					</defs>
					<clipPath id="SVGID_2_">
						<use xlink:href="#SVGID_1_"  style="overflow:visible;"/>
					</clipPath>
					<g class="st12">
						<path class="st11" d="M179.6,277.5c-0.7,2.1-1.6,4-2.5,5.9l-2.8,5.6c-0.9,1.8-1.8,3.6-2.6,5.4c-0.8,1.8-1.5,3.7-1.8,5.6
							c-0.6,3.8,0.1,7.8,2,11.4c1.8,3.6,4.7,6.8,7.8,9.6l-0.3,0.3c-3.5-2.4-6.8-5.3-9.3-8.9c-1.2-1.8-2.2-3.9-2.8-6.1
							c-0.6-2.2-0.8-4.5-0.7-6.8c0.1-2.3,0.6-4.5,1.3-6.7c0.7-2.1,1.7-4.1,2.9-6c1.2-1.8,2.5-3.5,4-5.1c1.4-1.6,2.9-3.1,4.6-4.5
							L179.6,277.5z"/>
					</g>
				</g>
				<g>
					<path class="st11" d="M179.8,340.4c9.9,1.8,48.7-22.1,58.1,3.1c9.4,25.2-23.9,69-68.6,83.7c-69-49.9-55.5-89.9-50.8-97
						c4.8-7.1,25.4-15.9,39.9-2.3C173.1,341.4,179.8,340.4,179.8,340.4z"/>
					<path class="st13" d="M167.3,280.5c-1.9-1.1-3.9-2.4-6.1-3.7"/>
					<path class="st14" d="M149.1,269.3c-19.6-12-45-27.3-64.5-38.5C59.7,216.7,56,181.3,56,157.6c0-66.4,55.2-91.1,123.4-91.1
						s125.7,24.8,123.4,91.1c-1,27.6-13.7,70.6-41,80.6c-37,13.6-71.5,33.9-80.8,46.9c-0.5,0.7-1.4,1.2-4.7,8.7"/>
					<path class="st13" d="M173.6,300.3c-0.8,1.9-1.6,4.1-2.6,6.6"/>
				</g>
				<g>
					<circle class="st5" cx="139.2" cy="40.3" r="40.3"/>
					<circle cx="146.9" cy="49.8" r="22.7"/>
					<circle class="st5" cx="219.7" cy="40.3" r="40.3"/>
					<circle cx="210.2" cy="47.9" r="22.7"/>
				</g>
			</g>
			<g>
				<path class="st15" d="M151.6,316.9c9.6-5.6-1.6-11.9,12.2-18.5c13.8-6.7,13.9-1,24.1-2.4c10.3-1.4,10.8-10.4,18-2.9
					c7.2,7.6,6.2,9.7,7.5,17.1s-0.1,19.7,4.3,23.2c4.4,3.5-0.5,9.1-6.9,13.9c-6.4,4.8-14.7,17.2-21.9,11.3
					c-7.3-5.8-8.1-13.3-15.6-12c-7.5,1.3-13.7,3.5-18.2,0.2c-4.6-3.3-5.5-2.5-5.9-10.3C148.7,328.9,144.9,320.9,151.6,316.9z"/>
				<path class="st16" d="M168.5,320.1c1-0.2,2.1-0.7,2.6-1.7c0.3-0.6,0.5-1.3,0.3-2c0,0,0-0.1,0-0.1c0.1-0.1,0.2-0.2,0.3-0.3
					c0.5-0.7,0.5-1.7,0.1-2.4c-0.3-0.7-1-1.2-1.8-1.4c-0.5-0.1-0.9-0.2-1.4-0.2c0,0,0,0,0,0c-0.9-0.3-1.9,0.2-2.2,1.1
					c-0.1,0.1-0.2,0.1-0.3,0.2c-0.5,0.3-0.9,0.8-1.2,1.2c-0.6,0.8-0.2,2,0.6,2.5c-0.3,0.5-0.4,1-0.3,1.6c0.1,0.8,0.8,1.5,1.6,1.7
					C167.3,320.3,167.9,320.3,168.5,320.1z"/>
				<path class="st16" d="M198.6,308.6c-0.4-0.2-0.8-0.3-1.3-0.3c-0.6,0.1-1.2,0.3-1.8,0.5c-0.2,0.1-0.3,0.2-0.5,0.3
					c-0.5-0.4-1.2-0.5-1.8-0.4c-1.2,0.3-2.1,1.4-2.1,2.7c0,0.4,0.1,0.9,0.2,1.3c0.2,0.5,0.4,1,0.9,1.3c0.3,0.2,0.7,0.3,1.1,0.3
					c0.5,0,1-0.1,1.5-0.4c0.3,0.5,0.7,0.9,1.3,1.1c1.2,0.4,2.3-0.3,3-1.3c0.9-1.2,1-3,0.3-4.3c0,0,0-0.1-0.1-0.1
					C199.2,309.1,199,308.8,198.6,308.6z"/>
				<path class="st16" d="M179.6,330.2c0.1-0.5,0-1.1-0.2-1.6c-0.5-0.9-1.4-1.4-2.4-1.4c-0.7,0-1.4,0.3-2.1,0.4c-0.1,0-0.1,0-0.2,0
					c-0.2,0-0.3,0-0.5,0c-0.1,0-0.3,0-0.4,0c0,0,0,0,0,0c-0.1,0-0.2,0-0.2,0c-0.5-0.1-1.1,0-1.6,0.2c-0.8,0.2-1.4,0.8-1.5,1.6
					c0,0.2,0,0.3,0,0.5c0,0.1,0,0.1,0,0.2c0,0,0,0,0-0.1c0,0,0,0,0,0.1c0,0,0,0,0,0c0,0.2,0,0.1,0,0c0,0.1-0.1,0.3-0.1,0.4
					c-0.1,0.2-0.1,0.4-0.2,0.5c0,0.1-0.1,0.1-0.1,0.2c-0.1,0.1-0.1,0.3-0.2,0.4c-0.2,0.3-0.4,0.6-0.6,0.8c-0.3,0.4-0.3,1.1-0.2,1.5
					c0.2,0.5,0.6,1,1.1,1.1c1.3,0.4,2.6,0,3.8-0.6c0.2-0.1,0.4-0.2,0.6-0.3c0,0,0,0,0,0c0.1,0,0.1,0.1,0.2,0.1
					c0.5,0.2,1,0.3,1.6,0.2c1.6-0.3,2.2-1.9,2.8-3.1C179.3,330.9,179.5,330.6,179.6,330.2z"/>
				<path class="st16" d="M155.8,333.1C155.7,333.1,155.7,333.2,155.8,333.1c-0.9-0.2-1.9,0.3-2.2,1.2c-0.5,1.7-0.4,3.9,1.2,5
					c0.7,0.4,1.5,0.6,2.2,0.6c0.3,0,0.6,0,0.8,0c0.1,0,0.3,0,0.4,0c0,0,0,0,0,0c0,0,0.1,0,0.1,0c0,0,0,0,0,0c0,0,0,0.1,0,0.1
					c0.2,0.4,0.5,0.7,0.8,1c0.7,0.4,1.7,0.4,2.3-0.2c0.5-0.4,0.7-1,0.8-1.6c0.1-0.8-0.2-1.7-0.6-2.3c-0.3-0.6-0.8-1.2-1.3-1.7
					C159.5,333.9,157.6,332.3,155.8,333.1z"/>
				<path class="st16" d="M204,334.4c-0.5-0.2-1-0.3-1.6,0c-0.8,0.3-1.5,0.7-2.2,1.1c-1,0.5-2,1.2-2.1,2.5c0,0.7,0.2,1.3,0.6,1.8
					c0,0,0,0,0,0.1c-0.2,0.5-0.1,1-0.1,1.6c0,0.4,0,0.8,0,1.2c0,0.8,0.3,1.6,1,2c1.1,0.7,2.5,0.4,3.5-0.5c0.7-0.7,1.1-1.6,1.4-2.5
					c0.2-0.7,0.4-1.5,0.3-2.2c0,0,0,0,0,0c0.2-0.1,0.3-0.1,0.5-0.2c0.8-0.5,1.3-1.4,1.1-2.3c-0.2-0.7-0.6-1.3-1.1-1.8
					C204.9,334.6,204.5,334.4,204,334.4z"/>
				<path class="st16" d="M183.9,313.1c0.9-0.6,1.7-1.5,1.9-2.6c0.3-1.1,0.2-2.2-0.3-3.3c-0.5-1.1-1.4-2-2.3-2.7
					c-0.3-0.3-0.9-0.3-1.3-0.3c-0.3,0.1-0.6,0.2-0.9,0.5c-0.5,0.1-1,0.3-1.3,0.8c-0.7,0.9-0.7,2.2-0.3,3.2c0.2,0.4,0.4,0.8,0.7,1.1
					c0,0,0,0,0,0c-0.1,0.1-0.1,0.3-0.2,0.4c-0.2,0.7-0.2,1.5,0.1,2.2C180.8,313.7,182.6,313.9,183.9,313.1z"/>
				<path class="st16" d="M189.5,333.8c-0.5-0.1-1.1,0-1.6,0.1c-0.7,0.2-1.3,0.8-1.4,1.5c-0.2,0.2-0.4,0.3-0.6,0.6
					c-0.3,0.4-0.4,0.9-0.4,1.3c0,0.5,0.1,0.9,0.3,1.3c-0.3,0.3-0.5,0.7-0.6,1.1c-0.3,1.1,0.2,2.2,1.3,2.6c0.7,0.3,1.5,0,2.1-0.3
					c0.4-0.3,0.9-0.6,1.3-0.9c0.8-0.7,1.3-1.6,1.7-2.5c0.4-1,0.6-2.3,0.1-3.3C191.2,334.4,190.4,333.9,189.5,333.8z"/>
				<path class="st16" d="M200.3,320.8c-0.4-0.3-0.8-0.4-1.3-0.3c-0.1,0-0.2,0-0.2-0.1c-0.6-0.3-1.2-0.6-1.9-0.7
					c-0.9-0.1-2,0.2-2.7,0.9c-0.8,0.8-1.2,1.9-1,3c0.1,0.6,0.4,1,0.7,1.5c0.1,0.2,0.3,0.3,0.5,0.5c0,0.5,0.2,1,0.5,1.3
					c0.6,0.6,1.4,0.9,2.2,0.7c0.9-0.2,1.8-0.6,2.6-1c0.9-0.5,1.9-1,2.6-1.8c0.8-1,0.8-2.7-0.1-3.6c-0.4-0.3-0.7-0.6-1.2-0.6
					C200.7,320.7,200.5,320.7,200.3,320.8z"/>
				<path class="st16" d="M204.1,298.1c-0.7-0.2-1.4-0.3-2-0.5c-0.1,0-0.2-0.1-0.2-0.2c-0.3-0.3-0.9-0.3-1.3-0.3
					c-0.2,0-0.5,0.2-0.7,0.3c-0.4,0-0.9,0.1-1.2,0.4c-0.5,0.6-0.9,1.2-1,2c0,0.8,0.3,1.7,1,2.2c0.5,0.3,1.1,0.4,1.7,0.4
					c0.2,0,0.3,0,0.5,0c0,0,0,0,0,0c0,0,0,0,0,0c0.1,0.3,0.1,0.6,0.2,0.9c0.3,0.9,0.8,1.6,1.7,1.8c1.2,0.4,2.6-0.4,3.2-1.5
					c0.5-0.9,0.8-2.2,0.5-3.2C206.1,299.4,205.3,298.5,204.1,298.1z"/>
			</g>
			<path class="st7" d="M179.7,341.4c9.5,1.7,46.7-20.8,55.6,2.9c9,23.7-22.9,64.9-65.7,78.6c-66-46.8-53.1-84.3-48.5-91
				c4.6-6.7,24.3-14.9,38.2-2.2S179.7,341.4,179.7,341.4z"/>
			<path class="st17" d="M140.2,329.6c-5.9,0.6-11,3.6-12.3,5.5c-0.1,0.1-5.9,9.3-1.4,25.7c4.9,17.8,20.3,36.6,44.6,54.5
				c37.4-14,63.9-50.4,56.9-69.1c-1.6-4.2-4-5.2-4.7-5.5c-6.1-2.5-18,1.1-26.7,3.8c-7.2,2.2-12.5,3.8-17.2,3.4
				c-4.6,0-12.9-2.2-25.7-13.9c-3.3-3-7.2-4.5-11.6-4.5C141.4,329.5,140.8,329.6,140.2,329.6z"/>
			<text transform="matrix(0.9782 0.2075 -0.2075 0.9782 136.2264 373.3937)" class="st5 st18 st19">404</text>
		</g>
	</g>
</g>
</svg>
