<?xml version="1.0" encoding="utf-8"?>
<!-- Generator: Adobe Illustrator 24.3.0, SVG Export Plug-In . SVG Version: 6.00 Build 0)  -->
<svg version="1.1" id="Capa_1" xmlns="http://www.w3.org/2000/svg" xmlns:xlink="http://www.w3.org/1999/xlink" x="0px" y="0px"
	 viewBox="0 0 141.1 212.1" style="enable-background:new 0 0 141.1 212.1;" xml:space="preserve">
<style type="text/css">
	.st0{fill:#41392E;}
	.st1{fill:#2D2825;}
	.st2{fill:#D1A683;}
	.st3{fill:#F8CACA;}
	.st4{fill:#CC878C;}
	.st5{fill:#F4A7AF;}
	.st6{fill:#3A2218;}
	.st7{fill:#74D56E;}
	.st8{fill:#408E38;}
	.st9{fill:#002A00;}
	.st10{fill:#967157;}
	.st11{fill:#2C140A;}
	.st12{fill:#CCA285;}
	.st13{fill:#825B40;}
	.st14{fill:#E73E37;}
	.st15{fill:#AC202D;}
	.st16{fill:#F39200;}
	.st17{fill:#CC3333;}
	.st18{fill:#DF342D;}
	.st19{fill:#E5C34D;}
	.st20{fill:#003A70;}
	.st21{fill:#B5B5C6;}
	.st22{fill:#E4E4D7;}
	.st23{fill:#FFFFFF;}
	.st24{fill:#71CC98;}
	.st25{fill:#007D8A;}
	.st26{fill:#91835C;}
	.st27{fill:#F8E08E;}
	.st28{fill:#E5A977;}
	.st29{fill:#D47147;}
	.st30{fill:#E8A362;}
	.st31{fill:#241E1E;}
	.st32{fill:#231F1E;}
	.st33{fill:#B1603F;}
	.st34{opacity:0.1;}
	.st35{fill:#5CA077;}
	.st36{fill:#C6B372;}
	.st37{fill:#784025;}
	.st38{fill:#F2CEA7;}
	.st39{fill:#1D1D1B;}
	.st40{fill:#3C3C3B;}
	.st41{fill:url(#SVGID_1_);}
	.st42{fill:url(#SVGID_2_);}
	.st43{fill:#575756;}
	.st44{fill:#CA9E67;}
</style>
<g>
	<circle class="st37" cx="102.1" cy="85.1" r="16.3"/>
	<circle class="st38" cx="102.1" cy="85.1" r="12"/>
	<circle class="st37" cx="22.7" cy="85.1" r="16.3"/>
	<circle class="st38" cx="22.7" cy="85.1" r="12"/>
	<g>
		<path class="st39" d="M21.5,109.6c-2-1.3-15.1,9.2-17.5,19.8s-8.5,47.8,1.2,44.1C10.1,162.2,21.5,109.6,21.5,109.6z"/>
		<path class="st39" d="M104.4,108.8c4.5-3.1,18.3,11.6,20.9,26.8s5.5,42.6-2.5,37.7C118.1,143.4,104.4,108.8,104.4,108.8z"/>
		<path class="st37" d="M117.1,107.2c-1.9-1.5-4.3-0.9-5.7,0c-1.5,0.9-20.6,13.8-22.3,14.5c-1.7,0.6-6,0-8.1-3.2
			c-2.1-3.2-18.5-2.1-18.5-2.1c0,0-16.4-1.1-18.5,2.1c-2.1,3.2-6.4,3.8-8.1,3.2c-1.7-0.6-20.9-13.6-22.3-14.5s-3.8-1.5-5.7,0
			c-1.9,1.5-4.9,5.5-3,10.9c1.9,5.3,16.8,16.6,22.1,20.6c5.3,4,3.6,26.6,1.9,36.4s-5.5,14-1.9,17.7c3.6,3.6,19.8,4.3,35.5,4.3l0,0
			l0,0l0,0l0,0c15.8,0,31.9-0.6,35.5-4.3c3.6-3.6-0.2-7.9-1.9-17.7c-1.7-9.8-3.4-32.4,1.9-36.4c5.3-4,20.2-15.3,22.1-20.6
			C122,112.7,119,108.7,117.1,107.2z"/>
		<path class="st40" d="M104.4,108.8c-0.3,0.2-0.6,0.4-0.9,0.6c-5,3.3-14.2,9.4-15.4,10c-0.6,0.2-3.6,0-5.1-2.2
			c-2.7-4-15.1-3.6-20.6-3.2c-2.5-0.2-17.7-1.2-20.6,3.2c-1.5,2.3-4.5,2.5-5.1,2.3c-1.3-0.6-10.2-6.5-15.2-9.8
			c-1.9,2-4.1,4.7-6.4,7.6l0,0l0,0c-2.3,3-5.5,5.9-7.9,12.5c-4.7,12.8-8.1,57.5,2.2,39.7c11.4-19.5,18.4-20.1,18.5-16.8
			c0.2,6.7-0.4,15.1-1.6,22.1c-0.6,3.2-1.4,5.8-2.1,8.1c-1.4,4.5-2.6,8.4,0.8,11.8c3.5,3.5,14.4,5,37.3,5c23,0,33.8-1.4,37.3-5
			c3.4-3.4,2.2-7.3,0.8-11.8c-0.7-2.3-1.5-4.8-2.1-8.1c-1.2-6.8-1.8-14.9-1.6-21.5c0.1-3.4,10.9-3.3,22.3,16.2
			c10.3,17.6,5.6-28.5,1-42.1C118.3,121.8,110,113,104.4,108.8z"/>
	</g>
	<ellipse class="st37" cx="62.3" cy="88.6" rx="39.3" ry="38"/>
	<path class="st38" d="M87,71.6c-11.5-9-20.9-5.8-24.6-1.3c-3.7-4.5-13.1-7.7-24.6,1.3c-11.5,9-10.3,24.6-2.4,32.1
		c7.9,7.6,15.1,10.7,27.1,10.7s19.2-3.1,27.1-10.7C97.3,96.1,98.5,80.6,87,71.6z"/>
	<ellipse cx="80.7" cy="88.9" rx="4.4" ry="5.3"/>
	<ellipse cx="44" cy="88.9" rx="4.4" ry="5.3"/>
	<path d="M67.7,97.4c0,0.6-0.7,1.1-1.6,1.1c-0.9,0-1.6-0.5-1.6-1.1s0.7-1.1,1.6-1.1C67,96.3,67.7,96.8,67.7,97.4z"/>
	<path d="M57,97.4c0,0.6,0.7,1.1,1.6,1.1c0.9,0,1.6-0.5,1.6-1.1s-0.7-1.1-1.6-1.1C57.8,96.3,57,96.8,57,97.4z"/>
	<g>
		<path d="M62.7,107.4l-0.6,0c-5.5-0.1-8-3.7-9.4-5.7c-0.2-0.3-0.2-0.8,0.2-1c0.3-0.2,0.8-0.2,1,0.2c1.3,1.8,3.5,4.9,8.2,5l0.6,0
			c4.8-0.1,7-3.2,8.3-5c0.2-0.3,0.7-0.4,1-0.2c0.3,0.2,0.4,0.7,0.2,1C70.7,103.7,68.2,107.3,62.7,107.4z"/>
	</g>
	<g>
		<linearGradient id="SVGID_1_" gradientUnits="userSpaceOnUse" x1="87.1804" y1="77.8497" x2="74.8093" y2="99.277">
			<stop  offset="0" style="stop-color:#2581C4;stop-opacity:0.4"/>
			<stop  offset="1" style="stop-color:#2581C4;stop-opacity:0"/>
		</linearGradient>
		<path class="st41" d="M91.7,96.3H70.3c-1.3,0-2.3-1-2.3-2.3V83.1c0-1.3,1-2.3,2.3-2.3h21.3c1.3,0,2.3,1,2.3,2.3V94
			C94,95.3,93,96.3,91.7,96.3z"/>
		<linearGradient id="SVGID_2_" gradientUnits="userSpaceOnUse" x1="49.9627" y1="77.8497" x2="37.5916" y2="99.277">
			<stop  offset="0" style="stop-color:#2581C4;stop-opacity:0.4"/>
			<stop  offset="1" style="stop-color:#2581C4;stop-opacity:0"/>
		</linearGradient>
		<path class="st42" d="M54.5,96.3H33.1c-1.3,0-2.3-1-2.3-2.3V83.1c0-1.3,1-2.3,2.3-2.3h21.3c1.3,0,2.3,1,2.3,2.3V94
			C56.8,95.3,55.7,96.3,54.5,96.3z"/>
	</g>
	<g>
		<path class="st37" d="M64.6,53.2l-0.1,0.1c0,0.1,0.1,0.2,0.1,0.3C64.6,53.6,64.7,53.6,64.6,53.2z"/>
		<path class="st37" d="M65.1,47.7c0.6-2.5,1.3-5,2.1-7.5c-1.7,2-3.3,4.1-4.8,6.3c-0.5,0.8-1,1.6-1.5,2.4c-1-1.4-2.2-2.5-3.5-3.3
			c0.6,1.4,0.8,3,0.7,4.3c0,0.7-0.2,1.3-0.5,1.8c-0.2,0.5-0.6,0.9-0.9,1.3l2.3,0.7c0,0.5-0.1,1.1,0.3,2.1l2.6-1.2l0.6,0.2
			c0-0.2,0-0.3,0-0.5l2.1-1c0-0.1,0-0.2,0-0.2c0-0.5,0-1.1,0-1.7C64.6,50.2,64.8,48.9,65.1,47.7z"/>
	</g>
	<g>
		<path class="st40" d="M57.4,92.9l-1.3-0.4c0.9-2.5,4.6-2.8,6.1-2.8h0.2c1.6,0,5.3,0.3,6.1,2.8l-1.3,0.4c-0.5-1.4-2.9-1.9-4.9-1.9
			h-0.2C60.3,91.1,57.9,91.6,57.4,92.9z"/>
	</g>
	<path class="st43" d="M36.6,51.2c4.9-2.2,7.6-7.4,8.3-12.5c0.8-5,2.1-7.7,6.6-12.8s7.9-8.3,12.4-11s5.2-4.5,7.5-7.9
		c2.3-3.5,6-7.2,9.5-7s6.8,1,9.1,2.9s3,4.5,0,4.6c-3,0.2-7,2.5-4.3,6.6s3,4.6,4.3,7.5c1.3,2.9,1.4,5,0,7.5c-1.4,2.5-3,2.5-3.3,5.8
		s1,6,1,8.5s0.2,6.6,0.2,6.6l-2.1,5.6l-13.3-3.2l-25.6,1.1l-10.2,1.2V51.2z"/>
	<path class="st40" d="M111.4,55.7c-5.7-2.8-11.6-0.9-19.4-4.2c-7.7-3.4-10.6-1.3-31.8,0c0,0,0,0-5.1-0.3
		c-5.1-0.3-18.6-1.5-30.2,2.4C13.3,57.5,6.6,64.4,10.8,68c3.3,2.8,10.5,3,15.9,4.5c3.2-6.7,8.8-12.1,15.3-16
		c3.9-0.2,3.9-0.3,10.7-0.5c8.3-0.3,8.2-1.7,16.9-1.4c6.4,0.3,8.5,1,11.8,1.3c7.1,4,13.3,9.7,16.7,17c3.1,0.2,6.2,0.4,8.9,0.2
		c8.5-0.6,9.5-3.8,11.4-8.5C120.2,60,117,58.5,111.4,55.7z"/>
	<path class="st44" d="M140.2,90L140.2,90c-1-1.3-1.9-2.7-3-4c-1-1.3-2.1-2.7-3.4-4.1c-0.7-0.7-1.4-1.4-2.5-2.1
		c-0.2-0.2-0.6-0.4-0.9-0.5c-0.4-0.2-0.7-0.4-1.2-0.5c-0.2-0.1-0.5-0.1-0.8-0.2c-0.3-0.1-0.6-0.1-1-0.1c-0.7,0-1.5,0-2.4,0.3
		c-0.4,0.2-0.8,0.3-1.2,0.6c-0.4,0.2-0.7,0.5-1,0.7c-0.6,0.5-1,1.1-1.3,1.6c-0.6,1-0.8,1.8-1,2.5c-0.4,1.4-0.4,2.5-0.5,3.4
		c0,0.8-0.1,1.6-0.2,2.4l-0.1,0c-0.1,0-0.3,0-0.5,0c-0.2,0-0.3,0-0.5,0.1c-0.7,0.1-1.9,0.3-2.9,0.9c-1.1,0.6-1.9,1.4-2.4,2.1
		c-0.3,0.4-0.4,0.7-0.6,1c-0.1,0.3-0.2,0.6-0.3,0.8c-0.5,2-0.3,3-0.2,4c0.1,0.5,0.1,1,0.2,1.4c0.1,0.4,0.2,0.9,0.3,1.2
		c0.1,0.3,0.2,0.7,0.2,1l0.1,1c0.1,1.4-0.1,2.6-0.5,4.2c-0.4,1.5-0.7,3.4-0.8,5.2c-0.1,1.8,0.1,3.5,0.2,5.1c0.2,1.6,0.5,3.3,0.7,4.8
		l0.3,2.2l0.2,2.2c0.3,3,0.4,6.1,0.4,9.1c0.1,6.1-0.2,12.3-0.8,18.5c-0.6,6.1-1.4,12.3-3,18.1c-0.2,0.7-0.4,1.4-0.6,2.2l-0.7,2.2
		l-1.4,4.5c-1,3-1.9,5.9-2.8,9c-0.9,3-1.8,6-2.6,9.1c-0.4,1.5-0.7,3.1-1,4.7c-0.1,0.8-0.3,1.6-0.3,2.5c-0.1,0.9-0.1,1.7,0,2.8l0,0
		c0,0.1,0,0.1,0,0.2c0.2,1.2,1.4,1.9,2.6,1.7c1.2-0.2,1.9-1.4,1.7-2.6c-0.1-0.5-0.1-1.2-0.1-1.9c0-0.7,0.1-1.4,0.2-2.2
		c0.2-1.5,0.5-3,0.8-4.5c0.6-3,1.4-6,2.3-8.9c0.9-3,1.7-5.9,2.7-8.9l1.5-4.4l0.7-2.2c0.2-0.7,0.5-1.5,0.7-2.3
		c1.7-6.2,2.7-12.4,3.5-18.6c0.8-6.2,1.4-12.5,1.7-18.8c0.2-3.2,0.2-6.3,0.1-9.5l-0.1-2.4l-0.2-2.5c0-0.4-0.1-0.8-0.1-1.2l0,0
		c0,0,0,0-1.3,0c-1.3,0-0.1-7.9-0.7-9.7c-0.5-1.8,2.1-3,2.8-2v0l1.4-4.6l0.4-1.4c0.4,0.1,0.8,0.1,1.3,0.1c1,0,2-0.1,2.9-0.4
		c0.5-0.1,0.9-0.3,1.4-0.5l0.5-0.2l0.3-0.2c0.5-0.2,0.9-0.5,1.7-1c0.4-0.3,0.9-0.6,1.5-1.3c0.6-0.6,1.4-1.7,1.8-3
		c0.4-1,0.4-1.9,0.4-2.6c0.1,0.2,0.3,0.4,0.4,0.6c0,0.1,0.1,0.1,0.1,0.2c1.4,1.9,4.1,2.3,6,0.9C141.3,94.6,141.7,91.9,140.2,90z"/>
	<g>
		<g>
			<path class="st40" d="M91.7,97H70.3c-1.7,0-3-1.4-3-3V83.1c0-1.7,1.4-3,3-3h21.3c1.7,0,3,1.4,3,3V94C94.7,95.7,93.3,97,91.7,97z
				 M70.3,81.5c-0.9,0-1.6,0.7-1.6,1.6V94c0,0.9,0.7,1.6,1.6,1.6h21.3c0.9,0,1.6-0.7,1.6-1.6V83.1c0-0.9-0.7-1.6-1.6-1.6H70.3z"/>
		</g>
		<g>
			<path class="st40" d="M54.5,97H33.1c-1.7,0-3-1.4-3-3V83.1c0-1.7,1.4-3,3-3h21.3c1.7,0,3,1.4,3,3V94C57.5,95.7,56.1,97,54.5,97z
				 M33.1,81.5c-0.9,0-1.6,0.7-1.6,1.6V94c0,0.9,0.7,1.6,1.6,1.6h21.3c0.9,0,1.6-0.7,1.6-1.6V83.1c0-0.9-0.7-1.6-1.6-1.6H33.1z"/>
		</g>
	</g>
</g>
</svg>
