<svg width="37" height="37" viewBox="0 0 37 37" fill="none" xmlns="http://www.w3.org/2000/svg">
<path d="M15.1339 0.436984C15.2893 0.298394 15.4749 0.188325 15.6799 0.113272C15.8849 0.0382196 16.1051 -0.00029541 16.3275 1.70599e-06C16.5499 0.000298822 16.7699 0.0394018 16.9747 0.115002C17.1794 0.190602 17.3647 0.301168 17.5196 0.440172L36.4806 17.3883C36.8136 17.686 37 18.0852 37 18.5008C37 18.9164 36.8136 19.3156 36.4806 19.6133L17.5196 36.5614C17.3644 36.7002 17.179 36.8105 16.9741 36.8859C16.7692 36.9612 16.5491 37 16.3267 37C16.1044 37 15.8842 36.9612 15.6794 36.8859C15.4745 36.8105 15.289 36.7002 15.1339 36.5614C14.8147 36.2768 14.6361 35.8947 14.6361 35.4968C14.6361 35.0989 14.8147 34.7168 15.1339 34.4321L32.9643 18.5008L15.1339 2.56308C14.8158 2.27858 14.6379 1.89715 14.6379 1.50003C14.6379 1.10291 14.8158 0.721478 15.1339 0.436984V0.436984ZM0.497819 0.436984C0.653191 0.298394 0.83886 0.188325 1.04387 0.113272C1.24887 0.0382196 1.46906 -0.00029541 1.69143 1.70599e-06C1.9138 0.000298822 2.13385 0.0394018 2.33859 0.115002C2.54333 0.190602 2.72861 0.301168 2.8835 0.440172L21.8445 17.3883C22.1775 17.686 22.3639 18.0852 22.3639 18.5008C22.3639 18.9164 22.1775 19.3156 21.8445 19.6133L2.8835 36.5614C2.72837 36.7002 2.5429 36.8105 2.33802 36.8859C2.13315 36.9612 1.91303 37 1.69066 37C1.46829 37 1.24817 36.9612 1.04329 36.8859C0.838421 36.8105 0.652947 36.7002 0.497819 36.5614C0.178671 36.2768 0 35.8947 0 35.4968C0 35.0989 0.178671 34.7168 0.497819 34.4321L18.3282 18.5008L0.497819 2.56308C0.179766 2.27858 0.00178401 1.89715 0.00178401 1.50003C0.00178401 1.10291 0.179766 0.721478 0.497819 0.436984V0.436984Z" fill="#F8E08E"/>
</svg>
