<svg width="713" height="381" viewBox="0 0 713 381" fill="none" xmlns="http://www.w3.org/2000/svg">
<g clip-path="url(#clip0_1391_495)">
<path d="M712.047 225.224C712.047 193.641 686.427 118.697 654.823 118.697C623.219 118.697 597.599 193.641 597.599 225.224C597.61 240.394 603.643 254.938 614.374 265.661C625.104 276.383 639.653 282.407 654.823 282.407C669.992 282.407 684.541 276.383 695.272 265.661C706.002 254.938 712.036 240.394 712.047 225.224H712.047Z" fill="#F2F2F2"/>
<path d="M654.822 351.941C654.649 351.941 654.482 351.872 654.36 351.749C654.237 351.627 654.168 351.46 654.168 351.287V217.702C654.168 217.528 654.237 217.362 654.36 217.239C654.482 217.116 654.649 217.047 654.822 217.047C654.996 217.047 655.162 217.116 655.285 217.239C655.408 217.362 655.477 217.528 655.477 217.702V351.287C655.477 351.46 655.408 351.627 655.285 351.749C655.162 351.872 654.996 351.941 654.822 351.941Z" fill="#CCCCCC"/>
<path d="M654.823 242.66C654.729 242.66 654.636 242.64 654.551 242.601C654.465 242.563 654.389 242.506 654.328 242.435L621.417 204.481C621.304 204.35 621.247 204.179 621.26 204.006C621.272 203.833 621.353 203.672 621.484 203.558C621.614 203.445 621.785 203.388 621.958 203.4C622.131 203.412 622.292 203.492 622.406 203.623L655.317 241.577C655.399 241.672 655.452 241.788 655.47 241.912C655.488 242.037 655.47 242.163 655.418 242.277C655.366 242.392 655.282 242.488 655.176 242.556C655.071 242.624 654.948 242.66 654.823 242.66Z" fill="#CCCCCC"/>
<path d="M654.822 264.564C654.693 264.564 654.566 264.525 654.459 264.454C654.351 264.382 654.267 264.279 654.218 264.16C654.168 264.04 654.155 263.909 654.181 263.782C654.206 263.655 654.268 263.538 654.36 263.447L673.06 244.746C673.183 244.624 673.349 244.555 673.522 244.556C673.696 244.556 673.862 244.625 673.984 244.747C674.107 244.87 674.175 245.036 674.176 245.209C674.176 245.382 674.108 245.548 673.985 245.671L655.285 264.372C655.224 264.433 655.152 264.481 655.073 264.514C654.993 264.547 654.908 264.564 654.822 264.564V264.564Z" fill="#CCCCCC"/>
<path d="M81.0468 280.584C81.0468 262.799 66.6196 220.597 48.8227 220.597C31.0258 220.597 16.5986 262.799 16.5986 280.584C16.6034 289.127 20.0005 297.319 26.0432 303.358C32.0859 309.398 40.2795 312.79 48.8228 312.79C57.366 312.79 65.5596 309.398 71.6023 303.358C77.645 297.319 81.0421 289.127 81.0469 280.584H81.0468Z" fill="#F2F2F2"/>
<path d="M48.8226 351.941C48.7249 351.941 48.6311 351.902 48.562 351.833C48.4929 351.764 48.4541 351.67 48.4541 351.573V276.348C48.4541 276.25 48.4929 276.157 48.562 276.087C48.6311 276.018 48.7249 275.979 48.8226 275.979C48.9203 275.979 49.0141 276.018 49.0832 276.087C49.1523 276.157 49.1911 276.25 49.1911 276.348V351.573C49.1911 351.67 49.1523 351.764 49.0832 351.833C49.0141 351.902 48.9203 351.941 48.8226 351.941V351.941Z" fill="#CCCCCC"/>
<path d="M48.8224 290.402C48.7696 290.403 48.7173 290.391 48.6693 290.369C48.6212 290.347 48.5784 290.315 48.5438 290.275L30.011 268.903C29.9474 268.829 29.9157 268.733 29.9229 268.636C29.93 268.538 29.9753 268.448 30.049 268.384C30.1226 268.32 30.2185 268.288 30.3158 268.295C30.4131 268.302 30.5037 268.346 30.5679 268.42L49.1007 289.793C49.147 289.846 49.1769 289.911 49.187 289.981C49.1971 290.051 49.1868 290.123 49.1575 290.187C49.1282 290.251 49.081 290.306 49.0216 290.344C48.9622 290.382 48.8931 290.403 48.8224 290.403V290.402Z" fill="#CCCCCC"/>
<path d="M48.8225 302.737C48.7496 302.737 48.6784 302.715 48.6178 302.675C48.5572 302.634 48.51 302.577 48.4821 302.51C48.4543 302.442 48.447 302.368 48.4612 302.297C48.4754 302.225 48.5105 302.16 48.562 302.108L59.0926 291.577C59.1617 291.508 59.2555 291.469 59.3532 291.469C59.4509 291.469 59.5446 291.508 59.6137 291.577C59.6828 291.646 59.7216 291.74 59.7216 291.838C59.7216 291.935 59.6828 292.029 59.6137 292.098L49.083 302.629C49.0489 302.663 49.0083 302.691 48.9636 302.709C48.9188 302.728 48.8709 302.737 48.8225 302.737Z" fill="#CCCCCC"/>
<path d="M13.9209 351.453C13.9209 347.885 15.3382 344.463 17.8611 341.94C20.384 339.417 23.8058 338 27.3737 338C30.9415 338 34.3633 339.417 36.8862 341.94C39.4091 344.463 40.8264 347.885 40.8264 351.453" fill="#F2F2F2"/>
<path d="M27.3734 351.453C27.2769 351.453 27.1844 351.415 27.1162 351.346C27.0481 351.278 27.0098 351.186 27.0098 351.089V343.999C27.0098 343.903 27.0481 343.81 27.1162 343.742C27.1844 343.674 27.2769 343.636 27.3734 343.636C27.4698 343.636 27.5622 343.674 27.6304 343.742C27.6986 343.81 27.7369 343.903 27.7369 343.999V351.089C27.7369 351.186 27.6986 351.278 27.6304 351.346C27.5622 351.415 27.4698 351.453 27.3734 351.453V351.453Z" fill="#CCCCCC"/>
<path d="M27.3728 349.017C27.2859 349.017 27.2019 348.986 27.1361 348.929L22.7732 345.184C22.7368 345.153 22.7068 345.115 22.6851 345.073C22.6634 345.03 22.6503 344.983 22.6466 344.936C22.6429 344.888 22.6486 344.84 22.6635 344.795C22.6784 344.749 22.7021 344.707 22.7332 344.671C22.7644 344.634 22.8024 344.605 22.8451 344.583C22.8878 344.561 22.9343 344.549 22.982 344.545C23.0297 344.541 23.0777 344.547 23.1231 344.562C23.1685 344.577 23.2106 344.601 23.2468 344.632L27.6098 348.377C27.6662 348.425 27.7064 348.49 27.725 348.562C27.7436 348.634 27.7397 348.71 27.7139 348.779C27.6881 348.849 27.6416 348.909 27.5806 348.951C27.5196 348.994 27.4471 349.017 27.3728 349.017H27.3728Z" fill="#CCCCCC"/>
<path d="M55.3691 351.453C55.3691 347.885 56.7865 344.463 59.3094 341.94C61.8322 339.417 65.254 338 68.8219 338C72.3898 338 75.8115 339.417 78.3344 341.94C80.8573 344.463 82.2747 347.885 82.2747 351.453" fill="#F2F2F2"/>
<path d="M68.8226 351.453C68.7261 351.453 68.6336 351.415 68.5655 351.346C68.4973 351.278 68.459 351.186 68.459 351.089V343.999C68.459 343.903 68.4973 343.81 68.5655 343.742C68.6336 343.674 68.7261 343.636 68.8226 343.636C68.919 343.636 69.0115 343.674 69.0797 343.742C69.1478 343.81 69.1862 343.903 69.1862 343.999V351.089C69.1862 351.186 69.1478 351.278 69.0797 351.346C69.0115 351.415 68.919 351.453 68.8226 351.453V351.453Z" fill="#CCCCCC"/>
<path d="M68.8222 349.016C68.7353 349.016 68.6513 348.985 68.5855 348.929L64.2225 345.184C64.1493 345.121 64.1041 345.032 64.0968 344.936C64.0894 344.84 64.1206 344.744 64.1834 344.671C64.2462 344.598 64.3355 344.553 64.4317 344.545C64.5278 344.538 64.6229 344.569 64.6961 344.632L69.0592 348.377C69.1155 348.425 69.1557 348.49 69.1744 348.562C69.193 348.634 69.1891 348.709 69.1633 348.779C69.1375 348.849 69.0909 348.909 69.03 348.951C68.969 348.994 68.8965 349.016 68.8222 349.016V349.016Z" fill="#CCCCCC"/>
<path d="M304.838 298C222.679 298 155.838 231.159 155.838 149C155.838 66.8413 222.679 0 304.838 0C386.997 0 453.838 66.8413 453.838 149C453.838 231.159 386.997 298 304.838 298ZM304.838 2C223.782 2 157.838 67.9438 157.838 149C157.838 230.056 223.782 296 304.838 296C385.894 296 451.838 230.056 451.838 149C451.838 67.9438 385.894 2 304.838 2Z" fill="#CCCCCC"/>
<path d="M304.838 138C304.573 138 304.318 137.895 304.131 137.707C303.943 137.52 303.838 137.265 303.838 137V1C303.838 0.734784 303.943 0.480444 304.131 0.292908C304.318 0.105371 304.573 0 304.838 0C305.103 0 305.357 0.105371 305.545 0.292908C305.733 0.480444 305.838 0.734784 305.838 1V137C305.838 137.265 305.733 137.52 305.545 137.707C305.357 137.895 305.103 138 304.838 138V138Z" fill="#CCCCCC"/>
<path d="M452.838 150H316.838C316.573 150 316.318 149.895 316.131 149.707C315.943 149.52 315.838 149.265 315.838 149C315.838 148.735 315.943 148.48 316.131 148.293C316.318 148.105 316.573 148 316.838 148H452.838C453.103 148 453.357 148.105 453.545 148.293C453.733 148.48 453.838 148.735 453.838 149C453.838 149.265 453.733 149.52 453.545 149.707C453.357 149.895 453.103 150 452.838 150Z" fill="#CCCCCC"/>
<path d="M292.838 150H156.902C156.637 150 156.383 149.895 156.195 149.707C156.008 149.52 155.902 149.265 155.902 149C155.902 148.735 156.008 148.48 156.195 148.293C156.383 148.105 156.637 148 156.902 148H292.838C293.103 148 293.357 148.105 293.545 148.293C293.733 148.48 293.838 148.735 293.838 149C293.838 149.265 293.733 149.52 293.545 149.707C293.357 149.895 293.103 150 292.838 150Z" fill="#CCCCCC"/>
<path d="M304.838 298C304.573 298 304.318 297.895 304.131 297.707C303.943 297.52 303.838 297.265 303.838 297V161C303.838 160.735 303.943 160.48 304.131 160.293C304.318 160.105 304.573 160 304.838 160C305.103 160 305.357 160.105 305.545 160.293C305.733 160.48 305.838 160.735 305.838 161V297C305.838 297.265 305.733 297.52 305.545 297.707C305.357 297.895 305.103 298 304.838 298V298Z" fill="#CCCCCC"/>
<path d="M313.654 141.874C313.456 141.874 313.263 141.815 313.099 141.705C312.934 141.595 312.806 141.439 312.73 141.257C312.655 141.074 312.635 140.873 312.674 140.679C312.712 140.485 312.807 140.307 312.947 140.167L408.69 44.4232C408.783 44.3304 408.894 44.2567 409.015 44.2065C409.136 44.1562 409.266 44.1304 409.398 44.1304C409.529 44.1304 409.659 44.1562 409.78 44.2065C409.901 44.2567 410.012 44.3304 410.105 44.4232C410.197 44.5161 410.271 44.6263 410.321 44.7476C410.372 44.8689 410.397 44.9989 410.397 45.1302C410.397 45.2616 410.372 45.3916 410.321 45.5129C410.271 45.6342 410.197 45.7445 410.105 45.8373L314.361 141.581C314.268 141.674 314.158 141.748 314.037 141.798C313.916 141.848 313.785 141.874 313.654 141.874V141.874Z" fill="#CCCCCC"/>
<path d="M296.021 141.874C295.89 141.874 295.759 141.848 295.638 141.798C295.517 141.748 295.407 141.674 295.314 141.581L199.57 45.8373C199.383 45.6498 199.277 45.3955 199.277 45.1303C199.277 44.8651 199.383 44.6107 199.57 44.4232C199.758 44.2357 200.012 44.1304 200.277 44.1304C200.542 44.1304 200.797 44.2357 200.984 44.4232L296.728 140.167C296.868 140.307 296.963 140.485 297.002 140.679C297.04 140.873 297.02 141.074 296.945 141.257C296.869 141.439 296.741 141.595 296.576 141.705C296.412 141.815 296.219 141.874 296.021 141.874L296.021 141.874Z" fill="#CCCCCC"/>
<path d="M409.398 253.87C409.266 253.87 409.136 253.844 409.015 253.794C408.893 253.743 408.783 253.67 408.691 253.577L312.947 157.833C312.76 157.645 312.654 157.391 312.654 157.126C312.654 156.861 312.76 156.606 312.947 156.419C313.135 156.231 313.389 156.126 313.654 156.126C313.919 156.126 314.174 156.231 314.361 156.419L410.105 252.162C410.244 252.302 410.34 252.48 410.378 252.674C410.417 252.868 410.397 253.069 410.321 253.252C410.246 253.435 410.117 253.591 409.953 253.701C409.789 253.811 409.595 253.869 409.398 253.87L409.398 253.87Z" fill="#CCCCCC"/>
<path d="M200.277 253.87C200.079 253.869 199.886 253.811 199.722 253.701C199.557 253.591 199.429 253.435 199.353 253.252C199.278 253.069 199.258 252.868 199.297 252.674C199.335 252.48 199.43 252.302 199.57 252.162L295.314 156.419C295.407 156.326 295.517 156.252 295.638 156.202C295.759 156.152 295.889 156.126 296.021 156.126C296.152 156.126 296.282 156.152 296.403 156.202C296.525 156.252 296.635 156.326 296.728 156.419C296.821 156.512 296.894 156.622 296.945 156.743C296.995 156.865 297.021 156.995 297.021 157.126C297.021 157.257 296.995 157.387 296.945 157.509C296.894 157.63 296.821 157.74 296.728 157.833L200.984 253.577C200.891 253.67 200.781 253.743 200.66 253.794C200.539 253.844 200.408 253.87 200.277 253.87V253.87Z" fill="#CCCCCC"/>
<path d="M304.838 251.5C284.565 251.5 264.748 245.489 247.892 234.226C231.036 222.963 217.898 206.955 210.14 188.225C202.382 169.496 200.352 148.886 204.307 129.003C208.262 109.12 218.025 90.8565 232.36 76.5216C246.694 62.1867 264.958 52.4245 284.841 48.4696C304.724 44.5146 325.334 46.5444 344.063 54.3024C362.792 62.0604 378.801 75.198 390.064 92.0541C401.326 108.91 407.338 128.727 407.338 149C407.307 176.175 396.498 202.229 377.282 221.445C358.067 240.66 332.013 251.469 304.838 251.5V251.5ZM304.838 48.5C284.961 48.5 265.53 54.3943 249.003 65.4374C232.476 76.4804 219.595 92.1764 211.988 110.54C204.381 128.904 202.391 149.112 206.269 168.607C210.147 188.102 219.719 206.009 233.774 220.064C247.829 234.119 265.736 243.691 285.231 247.569C304.726 251.447 324.934 249.457 343.298 241.85C361.662 234.243 377.358 221.362 388.401 204.835C399.444 188.308 405.338 168.877 405.338 149C405.308 122.355 394.71 96.81 375.869 77.9691C357.028 59.1282 331.483 48.5302 304.838 48.5V48.5Z" fill="#CCCCCC"/>
<path d="M304.838 161C311.465 161 316.838 155.627 316.838 149C316.838 142.373 311.465 137 304.838 137C298.21 137 292.838 142.373 292.838 149C292.838 155.627 298.21 161 304.838 161Z" fill="#3F3D56"/>
<path d="M258.381 351.695L247.838 352L299.295 144.305L308.86 147.223L258.381 351.695Z" fill="#3F3D56"/>
<path d="M351.295 351.695L361.838 352L310.381 144.305L300.816 147.223L351.295 351.695Z" fill="#3F3D56"/>
<path d="M320.838 31H287.838V49H320.838V31Z" fill="#CCCCCC"/>
<path d="M302.838 35H289.838V49H302.838V35Z" fill="white"/>
<path d="M318.838 35H305.838V49H318.838V35Z" fill="white"/>
<path d="M304.338 68.5C299.301 68.4943 294.471 66.4907 290.909 62.9287C287.347 59.3668 285.344 54.5374 285.338 49.5V49C285.339 47.8069 285.814 46.6631 286.657 45.8195C287.501 44.9759 288.645 44.5013 289.838 44.5H318.838C320.031 44.5013 321.175 44.9759 322.018 45.8195C322.862 46.6631 323.337 47.8069 323.338 49V49.5C323.332 54.5374 321.329 59.3668 317.767 62.9287C314.205 66.4907 309.375 68.4943 304.338 68.5Z" fill="#CCCCCC"/>
<path d="M319.602 35.5H289.074C288.648 35.5001 288.229 35.3912 287.857 35.1836C287.485 34.9761 287.172 34.6769 286.948 34.3144C286.724 33.9519 286.596 33.5381 286.577 33.1123C286.558 32.6866 286.648 32.263 286.838 31.8819L292.838 19.8819C293.045 19.4656 293.364 19.1155 293.759 18.8712C294.154 18.627 294.61 18.4984 295.074 18.5H313.602C314.067 18.4984 314.523 18.627 314.918 18.8712C315.313 19.1155 315.632 19.4656 315.838 19.8819L321.838 31.8819C322.029 32.263 322.119 32.6866 322.1 33.1123C322.081 33.5381 321.953 33.9518 321.729 34.3143C321.505 34.6769 321.192 34.9761 320.82 35.1836C320.447 35.3912 320.028 35.5001 319.602 35.5Z" fill="#6C63FF"/>
<path d="M409.838 71H376.838V89H409.838V71Z" fill="#CCCCCC"/>
<path d="M391.838 75H378.838V89H391.838V75Z" fill="white"/>
<path d="M407.838 75H394.838V89H407.838V75Z" fill="white"/>
<path d="M393.338 108.5C388.301 108.494 383.471 106.491 379.909 102.929C376.347 99.3668 374.344 94.5374 374.338 89.5V89C374.339 87.8069 374.814 86.6631 375.657 85.8195C376.501 84.9759 377.645 84.5013 378.838 84.5H407.838C409.031 84.5013 410.175 84.9759 411.018 85.8195C411.862 86.6631 412.337 87.8069 412.338 89V89.5C412.332 94.5374 410.329 99.3668 406.767 102.929C403.205 106.491 398.375 108.494 393.338 108.5Z" fill="#CCCCCC"/>
<path d="M384.074 59.5C383.796 59.4991 383.522 59.5763 383.285 59.7228C383.048 59.8694 382.857 60.0794 382.733 60.3291L376.733 72.3291C376.618 72.5578 376.564 72.8119 376.576 73.0674C376.587 73.3228 376.664 73.5711 376.798 73.7886C376.933 74.0062 377.12 74.1857 377.344 74.3102C377.567 74.4347 377.819 74.5 378.074 74.5H408.602C408.858 74.5 409.109 74.4347 409.333 74.3102C409.556 74.1857 409.744 74.0062 409.878 73.7886C410.013 73.5711 410.089 73.3228 410.101 73.0674C410.112 72.8119 410.058 72.5578 409.944 72.3291L403.944 60.3291C403.82 60.0794 403.628 59.8694 403.391 59.7228C403.154 59.5763 402.881 59.4991 402.602 59.5H384.074Z" fill="#6C63FF"/>
<path d="M444.838 161H411.838V179H444.838V161Z" fill="#CCCCCC"/>
<path d="M426.838 165H413.838V179H426.838V165Z" fill="white"/>
<path d="M442.838 165H429.838V179H442.838V165Z" fill="white"/>
<path d="M428.338 198.5C423.301 198.494 418.471 196.491 414.909 192.929C411.347 189.367 409.344 184.537 409.338 179.5V179C409.339 177.807 409.814 176.663 410.657 175.82C411.501 174.976 412.645 174.501 413.838 174.5H442.838C444.031 174.501 445.175 174.976 446.018 175.82C446.862 176.663 447.337 177.807 447.338 179V179.5C447.332 184.537 445.329 189.367 441.767 192.929C438.205 196.491 433.375 198.494 428.338 198.5V198.5Z" fill="#CCCCCC"/>
<path d="M443.602 165.5H413.074C412.648 165.5 412.229 165.391 411.857 165.184C411.485 164.976 411.172 164.677 410.948 164.314C410.724 163.952 410.596 163.538 410.577 163.112C410.558 162.687 410.648 162.263 410.838 161.882L416.838 149.882C417.045 149.466 417.364 149.115 417.759 148.871C418.154 148.627 418.61 148.498 419.074 148.5H437.602C438.067 148.498 438.523 148.627 438.918 148.871C439.313 149.115 439.632 149.466 439.838 149.882L445.838 161.882C446.029 162.263 446.119 162.687 446.1 163.112C446.081 163.538 445.953 163.952 445.729 164.314C445.505 164.677 445.192 164.976 444.82 165.184C444.447 165.391 444.028 165.5 443.602 165.5V165.5Z" fill="#6C63FF"/>
<path d="M407.838 245H374.838V263H407.838V245Z" fill="#CCCCCC"/>
<path d="M389.838 249H376.838V263H389.838V249Z" fill="white"/>
<path d="M405.838 249H392.838V263H405.838V249Z" fill="white"/>
<path d="M391.338 282.5C386.301 282.494 381.471 280.491 377.909 276.929C374.347 273.367 372.344 268.537 372.338 263.5V263C372.339 261.807 372.814 260.663 373.657 259.819C374.501 258.976 375.645 258.501 376.838 258.5H405.838C407.031 258.501 408.175 258.976 409.018 259.819C409.862 260.663 410.337 261.807 410.338 263V263.5C410.332 268.537 408.329 273.367 404.767 276.929C401.205 280.491 396.375 282.494 391.338 282.5Z" fill="#CCCCCC"/>
<path d="M406.602 249.5H376.074C375.648 249.5 375.229 249.391 374.857 249.184C374.485 248.976 374.172 248.677 373.948 248.314C373.724 247.952 373.596 247.538 373.577 247.112C373.558 246.687 373.648 246.263 373.838 245.882L379.838 233.882C380.045 233.466 380.364 233.115 380.759 232.871C381.154 232.627 381.61 232.498 382.074 232.5H400.602C401.067 232.498 401.523 232.627 401.918 232.871C402.313 233.115 402.632 233.466 402.838 233.882L408.838 245.882C409.029 246.263 409.119 246.687 409.1 247.112C409.081 247.538 408.953 247.952 408.729 248.314C408.505 248.677 408.192 248.976 407.82 249.184C407.447 249.391 407.028 249.5 406.602 249.5V249.5Z" fill="#6C63FF"/>
<path d="M199.838 89H232.838V71H199.838V89Z" fill="#CCCCCC"/>
<path d="M217.838 89H230.838V75H217.838V89Z" fill="white"/>
<path d="M201.838 89H214.838V75H201.838V89Z" fill="white"/>
<path d="M216.338 108.5C211.301 108.494 206.471 106.491 202.909 102.929C199.347 99.3668 197.344 94.5374 197.338 89.5V89C197.339 87.8069 197.814 86.6631 198.657 85.8195C199.501 84.9759 200.645 84.5013 201.838 84.5H230.838C232.031 84.5013 233.175 84.9759 234.018 85.8195C234.862 86.6631 235.337 87.8069 235.338 89V89.5C235.332 94.5374 233.329 99.3668 229.767 102.929C226.205 106.491 221.375 108.494 216.338 108.5V108.5Z" fill="#CCCCCC"/>
<path d="M231.601 75.5H201.073C200.647 75.5001 200.228 75.3912 199.856 75.1836C199.484 74.9761 199.171 74.6769 198.947 74.3144C198.723 73.9519 198.595 73.5381 198.576 73.1123C198.557 72.6866 198.647 72.263 198.837 71.8819L204.837 59.8819C205.044 59.4656 205.363 59.1155 205.758 58.8712C206.153 58.627 206.609 58.4984 207.073 58.5H225.601C226.066 58.4984 226.522 58.627 226.917 58.8712C227.312 59.1155 227.631 59.4656 227.837 59.8819L233.837 71.8819C234.028 72.263 234.118 72.6866 234.099 73.1123C234.08 73.5381 233.952 73.9518 233.728 74.3143C233.504 74.6769 233.191 74.9761 232.819 75.1836C232.446 75.3912 232.027 75.5001 231.601 75.5V75.5Z" fill="#6C63FF"/>
<path d="M164.838 179H197.838V161H164.838V179Z" fill="#CCCCCC"/>
<path d="M182.838 179H195.838V165H182.838V179Z" fill="white"/>
<path d="M166.838 179H179.838V165H166.838V179Z" fill="white"/>
<path d="M181.338 198.5C176.301 198.494 171.471 196.491 167.909 192.929C164.347 189.367 162.344 184.537 162.338 179.5V179C162.339 177.807 162.814 176.663 163.657 175.82C164.501 174.976 165.645 174.501 166.838 174.5H195.838C197.031 174.501 198.175 174.976 199.018 175.82C199.862 176.663 200.337 177.807 200.338 179V179.5C200.332 184.537 198.329 189.367 194.767 192.929C191.205 196.491 186.375 198.494 181.338 198.5V198.5Z" fill="#CCCCCC"/>
<path d="M196.601 165.5H166.073C165.647 165.5 165.228 165.391 164.856 165.184C164.484 164.976 164.171 164.677 163.947 164.314C163.723 163.952 163.595 163.538 163.576 163.112C163.557 162.687 163.647 162.263 163.837 161.882L169.837 149.882C170.044 149.466 170.363 149.115 170.758 148.871C171.153 148.627 171.609 148.498 172.073 148.5H190.601C191.066 148.498 191.522 148.627 191.917 148.871C192.312 149.115 192.631 149.466 192.837 149.882L198.837 161.882C199.028 162.263 199.118 162.687 199.099 163.112C199.08 163.538 198.952 163.952 198.728 164.314C198.504 164.677 198.191 164.976 197.819 165.184C197.446 165.391 197.027 165.5 196.601 165.5V165.5Z" fill="#6C63FF"/>
<path d="M201.838 263H234.838V245H201.838V263Z" fill="#CCCCCC"/>
<path d="M219.838 263H232.838V249H219.838V263Z" fill="white"/>
<path d="M203.838 263H216.838V249H203.838V263Z" fill="white"/>
<path d="M218.338 282.5C213.301 282.494 208.471 280.491 204.909 276.929C201.347 273.367 199.344 268.537 199.338 263.5V263C199.339 261.807 199.814 260.663 200.657 259.819C201.501 258.976 202.645 258.501 203.838 258.5H232.838C234.031 258.501 235.175 258.976 236.018 259.819C236.862 260.663 237.337 261.807 237.338 263V263.5C237.332 268.537 235.329 273.367 231.767 276.929C228.205 280.491 223.375 282.494 218.338 282.5Z" fill="#CCCCCC"/>
<path d="M233.601 249.5H203.073C202.647 249.5 202.228 249.391 201.856 249.184C201.484 248.976 201.171 248.677 200.947 248.314C200.723 247.952 200.595 247.538 200.576 247.112C200.557 246.687 200.647 246.263 200.837 245.882L206.837 233.882C207.044 233.466 207.363 233.115 207.758 232.871C208.153 232.627 208.609 232.498 209.073 232.5H227.601C228.066 232.498 228.522 232.627 228.917 232.871C229.312 233.115 229.631 233.466 229.837 233.882L235.837 245.882C236.028 246.263 236.118 246.687 236.099 247.112C236.08 247.538 235.952 247.952 235.728 248.314C235.504 248.677 235.191 248.976 234.819 249.184C234.446 249.391 234.027 249.5 233.601 249.5V249.5Z" fill="#6C63FF"/>
<path d="M320.838 283H287.838V301H320.838V283Z" fill="#CCCCCC"/>
<path d="M302.838 287H289.838V301H302.838V287Z" fill="white"/>
<path d="M318.838 287H305.838V301H318.838V287Z" fill="white"/>
<path d="M289.838 297.5C288.91 297.501 288.02 297.87 287.364 298.526C286.708 299.182 286.339 300.072 286.338 301V301.5C286.338 306.274 288.234 310.852 291.61 314.228C294.986 317.604 299.564 319.5 304.338 319.5C309.112 319.5 313.69 317.604 317.066 314.228C320.441 310.852 322.338 306.274 322.338 301.5V301C322.337 300.072 321.968 299.182 321.312 298.526C320.655 297.87 319.766 297.501 318.838 297.5H289.838Z" fill="#CCCCCC"/>
<path d="M295.074 271.5C294.796 271.499 294.522 271.576 294.285 271.723C294.048 271.869 293.857 272.079 293.733 272.329L287.733 284.329C287.618 284.558 287.564 284.812 287.576 285.067C287.587 285.323 287.664 285.571 287.798 285.789C287.933 286.006 288.12 286.186 288.344 286.31C288.567 286.435 288.819 286.5 289.074 286.5H319.602C319.858 286.5 320.109 286.435 320.333 286.31C320.556 286.186 320.744 286.006 320.878 285.789C321.013 285.571 321.089 285.323 321.101 285.067C321.112 284.812 321.058 284.558 320.944 284.329L314.944 272.329C314.82 272.079 314.628 271.869 314.391 271.723C314.154 271.576 313.881 271.499 313.602 271.5H295.074Z" fill="#6C63FF"/>
<path d="M529.047 322C529.312 322 529.566 321.895 529.754 321.707C529.942 321.52 530.047 321.265 530.047 321C530.047 320.735 529.942 320.48 529.754 320.293C529.566 320.105 529.312 320 529.047 320H519.547V316H529.047C529.312 316 529.566 315.895 529.754 315.707C529.942 315.52 530.047 315.265 530.047 315C530.047 314.735 529.942 314.48 529.754 314.293C529.566 314.105 529.312 314 529.047 314H448.047C447.782 314 447.527 314.105 447.34 314.293C447.152 314.48 447.047 314.735 447.047 315C447.047 315.265 447.152 315.52 447.34 315.707C447.527 315.895 447.782 316 448.047 316H457.547V320H448.047C447.782 320 447.527 320.105 447.34 320.293C447.152 320.48 447.047 320.735 447.047 321C447.047 321.265 447.152 321.52 447.34 321.707C447.527 321.895 447.782 322 448.047 322H457.547V326H448.047C447.782 326 447.527 326.105 447.34 326.293C447.152 326.48 447.047 326.735 447.047 327C447.047 327.265 447.152 327.52 447.34 327.707C447.527 327.895 447.782 328 448.047 328H457.547V332H449.047C448.516 332 448.008 332.211 447.633 332.586C447.258 332.961 447.047 333.47 447.047 334C447.047 334.53 447.258 335.039 447.633 335.414C448.008 335.789 448.516 336 449.047 336H457.139C457.08 336.16 457.049 336.329 457.047 336.5V350.5C457.047 350.898 457.205 351.279 457.486 351.561C457.768 351.842 458.149 352 458.547 352C458.945 352 459.326 351.842 459.608 351.561C459.889 351.279 460.047 350.898 460.047 350.5V336.5C460.045 336.329 460.014 336.16 459.955 336H517.139C517.08 336.16 517.049 336.329 517.047 336.5V350.5C517.047 350.898 517.205 351.279 517.486 351.561C517.768 351.842 518.149 352 518.547 352C518.945 352 519.326 351.842 519.608 351.561C519.889 351.279 520.047 350.898 520.047 350.5V336.5C520.045 336.329 520.014 336.16 519.955 336H528.047C528.577 336 529.086 335.789 529.461 335.414C529.836 335.039 530.047 334.53 530.047 334C530.047 333.47 529.836 332.961 529.461 332.586C529.086 332.211 528.577 332 528.047 332H519.547V328H529.047C529.312 328 529.566 327.895 529.754 327.707C529.942 327.52 530.047 327.265 530.047 327C530.047 326.735 529.942 326.48 529.754 326.293C529.566 326.105 529.312 326 529.047 326H519.547V322H529.047ZM459.547 316H517.547V320H459.547V316ZM517.547 332H459.547V328H517.547V332ZM517.547 326H459.547V322H517.547V326Z" fill="#3F3D56"/>
<path d="M189.047 322C189.312 322 189.566 321.895 189.754 321.707C189.942 321.52 190.047 321.265 190.047 321C190.047 320.735 189.942 320.48 189.754 320.293C189.566 320.105 189.312 320 189.047 320H179.547V316H189.047C189.312 316 189.566 315.895 189.754 315.707C189.942 315.52 190.047 315.265 190.047 315C190.047 314.735 189.942 314.48 189.754 314.293C189.566 314.105 189.312 314 189.047 314H108.047C107.782 314 107.527 314.105 107.34 314.293C107.152 314.48 107.047 314.735 107.047 315C107.047 315.265 107.152 315.52 107.34 315.707C107.527 315.895 107.782 316 108.047 316H117.547V320H108.047C107.782 320 107.527 320.105 107.34 320.293C107.152 320.48 107.047 320.735 107.047 321C107.047 321.265 107.152 321.52 107.34 321.707C107.527 321.895 107.782 322 108.047 322H117.547V326H108.047C107.782 326 107.527 326.105 107.34 326.293C107.152 326.48 107.047 326.735 107.047 327C107.047 327.265 107.152 327.52 107.34 327.707C107.527 327.895 107.782 328 108.047 328H117.547V332H109.047C108.516 332 108.008 332.211 107.633 332.586C107.258 332.961 107.047 333.47 107.047 334C107.047 334.53 107.258 335.039 107.633 335.414C108.008 335.789 108.516 336 109.047 336H117.139C117.08 336.16 117.049 336.329 117.047 336.5V350.5C117.047 350.898 117.205 351.279 117.486 351.561C117.768 351.842 118.149 352 118.547 352C118.945 352 119.326 351.842 119.608 351.561C119.889 351.279 120.047 350.898 120.047 350.5V336.5C120.045 336.329 120.014 336.16 119.955 336H177.139C177.08 336.16 177.049 336.329 177.047 336.5V350.5C177.047 350.898 177.205 351.279 177.486 351.561C177.768 351.842 178.149 352 178.547 352C178.945 352 179.326 351.842 179.608 351.561C179.889 351.279 180.047 350.898 180.047 350.5V336.5C180.045 336.329 180.014 336.16 179.955 336H188.047C188.577 336 189.086 335.789 189.461 335.414C189.836 335.039 190.047 334.53 190.047 334C190.047 333.47 189.836 332.961 189.461 332.586C189.086 332.211 188.577 332 188.047 332H179.547V328H189.047C189.312 328 189.566 327.895 189.754 327.707C189.942 327.52 190.047 327.265 190.047 327C190.047 326.735 189.942 326.48 189.754 326.293C189.566 326.105 189.312 326 189.047 326H179.547V322H189.047ZM119.547 316H177.547V320H119.547V316ZM177.547 332H119.547V328H177.547V332ZM177.547 326H119.547V322H177.547V326Z" fill="#3F3D56"/>
<path d="M504.047 316.5H501.047C500.649 316.5 500.268 316.341 499.987 316.06C499.705 315.779 499.547 315.398 499.547 315V312C499.547 311.602 499.705 311.221 499.987 310.94C500.268 310.659 500.649 310.5 501.047 310.5H504.047C504.445 310.5 504.826 310.659 505.107 310.94C505.388 311.221 505.546 311.602 505.547 312V315C505.546 315.398 505.388 315.779 505.107 316.06C504.826 316.341 504.445 316.5 504.047 316.5Z" fill="#CCCCCC"/>
<path d="M502.603 313.194C502.546 313.194 502.489 313.19 502.432 313.18C502.303 313.157 502.179 313.11 502.068 313.04C501.957 312.97 501.861 312.879 501.785 312.771C501.709 312.664 501.655 312.543 501.626 312.415C501.597 312.287 501.594 312.154 501.616 312.025L511.506 254.478C511.551 254.218 511.698 253.985 511.915 253.833C512.131 253.68 512.399 253.619 512.66 253.664C512.921 253.709 513.154 253.856 513.307 254.072C513.46 254.288 513.521 254.556 513.477 254.817L503.587 312.364C503.547 312.596 503.427 312.806 503.246 312.958C503.066 313.11 502.838 313.194 502.603 313.194V313.194Z" fill="#CCCCCC"/>
<path d="M502.6 313.194C502.365 313.194 502.137 313.11 501.957 312.959C501.776 312.807 501.656 312.596 501.616 312.364L491.726 254.817C491.681 254.556 491.742 254.287 491.895 254.071C492.048 253.854 492.281 253.707 492.543 253.662C492.804 253.617 493.072 253.678 493.289 253.831C493.506 253.984 493.653 254.217 493.698 254.479L503.587 312.025C503.609 312.154 503.606 312.287 503.577 312.415C503.548 312.543 503.494 312.664 503.418 312.771C503.342 312.879 503.246 312.97 503.135 313.04C503.024 313.11 502.9 313.158 502.771 313.18C502.714 313.19 502.657 313.195 502.6 313.194Z" fill="#CCCCCC"/>
<path d="M523.892 244.628C524.856 237.799 521.209 231.638 515.745 230.866C510.282 230.095 505.071 235.006 504.107 241.835C503.294 247.595 505.768 252.866 509.838 254.843L509.606 256.484L514.553 257.183L514.784 255.541C519.243 254.768 523.079 250.388 523.892 244.628Z" fill="#FF6584"/>
<path d="M500.925 241.52C499.741 234.726 494.376 229.985 488.94 230.932C483.504 231.879 480.057 238.154 481.241 244.949C482.239 250.679 486.214 254.934 490.695 255.563L490.979 257.196L495.9 256.339L495.616 254.705C499.621 252.599 501.923 247.251 500.925 241.52Z" fill="#CCCCCC"/>
<path d="M502.547 312C502.282 312 502.027 311.895 501.84 311.707C501.652 311.52 501.547 311.265 501.547 311V251.842C501.547 251.577 501.652 251.323 501.84 251.135C502.027 250.948 502.282 250.842 502.547 250.842C502.812 250.842 503.066 250.948 503.254 251.135C503.442 251.323 503.547 251.577 503.547 251.842V311C503.547 311.265 503.442 311.52 503.254 311.707C503.066 311.895 502.812 312 502.547 312V312Z" fill="#CCCCCC"/>
<path d="M511.917 240.479C511.917 233.582 507.445 227.991 501.927 227.991C496.409 227.991 491.937 233.582 491.937 240.479C491.937 246.296 495.123 251.17 499.429 252.558V254.216H504.424V252.558C508.731 251.17 511.917 246.296 511.917 240.479Z" fill="#6C63FF"/>
<path d="M710.485 353.537H1.19067C0.874886 353.537 0.572035 353.412 0.34874 353.188C0.125444 352.965 0 352.662 0 352.346C0 352.031 0.125444 351.728 0.34874 351.505C0.572035 351.281 0.874886 351.156 1.19067 351.156H710.485C710.8 351.156 711.103 351.281 711.327 351.505C711.55 351.728 711.675 352.031 711.675 352.346C711.675 352.662 711.55 352.965 711.327 353.188C711.103 353.412 710.8 353.537 710.485 353.537V353.537Z" fill="#CCCCCC"/>
<path d="M553.475 351.407L551.2 351.406L550.118 342.633H553.475V351.407Z" fill="#A0616A"/>
<path d="M549.251 350.757H553.962V353.519H546.813V353.195C546.813 352.875 546.877 352.558 546.999 352.262C547.122 351.966 547.301 351.697 547.528 351.471C547.754 351.245 548.023 351.065 548.318 350.942C548.614 350.82 548.931 350.757 549.251 350.757V350.757Z" fill="#2F2E41"/>
<path d="M569.978 348.83L567.909 349.775L563.28 342.245L566.333 340.85L569.978 348.83Z" fill="#A0616A"/>
<path d="M565.867 349.994L570.152 348.036L571.299 350.549L564.797 353.519L564.662 353.224C564.529 352.933 564.455 352.618 564.443 352.298C564.432 351.978 564.484 351.659 564.596 351.359C564.707 351.059 564.877 350.784 565.095 350.55C565.314 350.316 565.576 350.127 565.867 349.994Z" fill="#2F2E41"/>
<path d="M553.329 349.093H551.156C550.946 349.092 550.743 349.012 550.589 348.869C550.434 348.725 550.34 348.529 550.324 348.319L549.139 316.676C549.13 316.554 549.148 316.433 549.191 316.319C549.234 316.205 549.302 316.102 549.389 316.018C549.476 315.933 549.58 315.868 549.695 315.827C549.81 315.787 549.932 315.772 550.053 315.784L562.619 317.119C562.823 317.139 563.012 317.233 563.151 317.383C563.29 317.533 563.369 317.729 563.373 317.934L563.636 331.892C563.638 331.968 563.652 332.043 563.68 332.113L568.835 345.481C568.874 345.584 568.893 345.695 568.89 345.805C568.887 345.916 568.862 346.025 568.816 346.126C568.771 346.226 568.705 346.317 568.624 346.393C568.543 346.468 568.448 346.527 568.344 346.565L566.142 347.376C565.951 347.446 565.741 347.445 565.551 347.371C565.361 347.297 565.205 347.156 565.111 346.975L558.779 334.661C558.744 334.594 558.719 334.523 558.704 334.449L557.622 329.237C557.591 329.086 557.506 328.951 557.385 328.856C557.263 328.762 557.111 328.714 556.957 328.721C556.803 328.728 556.656 328.789 556.543 328.895C556.43 329 556.359 329.142 556.341 329.295L554.159 348.353C554.136 348.557 554.038 348.745 553.885 348.881C553.732 349.018 553.534 349.093 553.329 349.093V349.093Z" fill="#2F2E41"/>
<path d="M554.412 291.934C556.929 291.934 558.969 289.894 558.969 287.377C558.969 284.86 556.929 282.82 554.412 282.82C551.896 282.82 549.855 284.86 549.855 287.377C549.855 289.894 551.896 291.934 554.412 291.934Z" fill="#A0616A"/>
<path d="M557.553 319.563C554.614 319.527 551.739 318.705 549.224 317.183V317.183C549.095 317.103 548.989 316.99 548.92 316.854C548.851 316.719 548.82 316.567 548.831 316.415L549.939 300.576C550.011 299.507 550.331 298.47 550.875 297.547C551.418 296.624 552.171 295.841 553.071 295.261C553.931 294.691 554.913 294.331 555.937 294.209C556.962 294.087 558 294.206 558.97 294.558C559.398 294.705 559.802 294.915 560.17 295.179C561.35 296.021 562.277 297.17 562.849 298.502C563.422 299.834 563.618 301.297 563.416 302.732C562.603 308.895 563.524 317.209 563.631 318.137L563.639 318.203L563.578 318.231C561.691 319.109 559.635 319.563 557.553 319.563Z" fill="#6C63FF"/>
<path d="M563.354 321.826C563.572 321.662 563.751 321.452 563.879 321.211C564.008 320.971 564.081 320.705 564.095 320.432C564.11 320.16 564.064 319.888 563.961 319.635C563.859 319.382 563.702 319.155 563.503 318.969L566.176 312.902L562.78 313.478L560.761 319.151C560.472 319.507 560.323 319.957 560.343 320.416C560.363 320.875 560.55 321.31 560.87 321.64C561.189 321.97 561.619 322.171 562.077 322.205C562.534 322.239 562.989 322.104 563.354 321.826V321.826Z" fill="#A0616A"/>
<path d="M563.61 318.078C563.495 318.078 563.38 318.054 563.274 318.007C563.169 317.961 563.074 317.893 562.996 317.807L561.999 316.72C561.902 316.613 561.834 316.484 561.802 316.344C561.769 316.203 561.773 316.057 561.814 315.919L564.097 308.192L560.623 300.898C560.471 300.578 560.434 300.214 560.517 299.869C560.592 299.567 560.756 299.293 560.988 299.086C561.221 298.878 561.51 298.746 561.82 298.706C562.129 298.667 562.443 298.722 562.72 298.864C562.997 299.007 563.225 299.23 563.372 299.505L568.068 307.124C568.251 307.42 568.358 307.756 568.38 308.103C568.402 308.45 568.339 308.797 568.196 309.114L564.372 317.587C564.315 317.713 564.228 317.823 564.119 317.906C564.009 317.99 563.88 318.046 563.743 318.067C563.699 318.074 563.655 318.078 563.61 318.078Z" fill="#6C63FF"/>
<path d="M558.166 291.395C557.693 291.476 557.304 290.818 557.246 290.355C557.25 289.898 557.293 289.441 557.374 288.99C557.4 288.751 557.349 288.509 557.227 288.301C557.106 288.093 556.92 287.93 556.698 287.836C556.198 287.693 555.734 288.094 555.221 288.046C554.508 287.979 554.149 287.143 554.063 286.467C553.976 285.792 553.908 284.991 553.29 284.606C552.674 284.222 551.911 284.501 551.203 284.513C550.598 284.507 550.01 284.307 549.525 283.944C549.041 283.581 548.684 283.073 548.508 282.494C548.653 282.536 548.808 282.528 548.948 282.472C549.089 282.416 549.206 282.315 549.282 282.184C549.342 282.045 549.355 281.89 549.317 281.743C549.28 281.596 549.195 281.465 549.076 281.372L550.432 282.036C550.398 281.942 550.383 281.843 550.389 281.743C550.395 281.643 550.421 281.546 550.466 281.457C550.511 281.368 550.574 281.289 550.651 281.225C550.728 281.161 550.817 281.114 550.912 281.086C551.325 280.977 551.757 280.973 552.172 281.073C554.296 281.403 556.757 281.241 558.166 282.86C559.229 284.174 559.817 285.809 559.836 287.499C559.498 288.881 558.934 290.197 558.166 291.395V291.395Z" fill="#2F2E41"/>
<path d="M534.004 299.162C534.241 299.027 534.505 298.946 534.776 298.924C535.048 298.902 535.322 298.94 535.577 299.035C535.833 299.13 536.065 299.28 536.256 299.474C536.448 299.668 536.594 299.902 536.685 300.159L543.315 300.112L541.439 303.001L535.431 302.604C534.989 302.728 534.517 302.687 534.104 302.486C533.69 302.286 533.365 301.941 533.189 301.517C533.013 301.093 532.999 300.619 533.149 300.185C533.299 299.751 533.603 299.387 534.004 299.162V299.162Z" fill="#A0616A"/>
<path d="M537.454 302.312C537.43 302.199 537.431 302.082 537.455 301.969C537.479 301.856 537.526 301.749 537.594 301.656L538.455 300.458C538.54 300.341 538.653 300.248 538.783 300.188C538.914 300.128 539.058 300.102 539.201 300.113L546.956 299.789L553.664 295.885C553.947 295.67 554.295 295.56 554.65 295.572C554.961 295.582 555.262 295.687 555.513 295.873C555.763 296.058 555.952 296.315 556.054 296.609C556.155 296.904 556.165 297.222 556.082 297.523C555.999 297.823 555.827 298.091 555.589 298.292L549.087 304.443C548.835 304.682 548.527 304.855 548.192 304.948C547.857 305.041 547.504 305.049 547.164 304.974L538.091 302.958C537.956 302.928 537.83 302.865 537.726 302.775C537.621 302.685 537.541 302.57 537.492 302.44C537.476 302.399 537.463 302.356 537.454 302.312V302.312Z" fill="#6C63FF"/>
<path d="M423.453 347.67C423.547 347.406 423.581 347.124 423.555 346.844C423.528 346.565 423.44 346.294 423.297 346.052C423.155 345.811 422.961 345.603 422.729 345.444C422.498 345.285 422.234 345.179 421.957 345.133L420.805 338.405L418.216 340.829L419.707 346.847C419.66 347.317 419.788 347.789 420.066 348.171C420.344 348.554 420.752 348.821 421.214 348.923C421.676 349.024 422.159 348.953 422.571 348.722C422.984 348.491 423.298 348.117 423.453 347.67V347.67Z" fill="#FFB8B8"/>
<path d="M421.733 344.451L419.191 345.118C419.07 345.15 418.941 345.132 418.833 345.07C418.724 345.008 418.644 344.906 418.61 344.786L414.042 328.601L412.661 324.472C412.528 324.074 412.498 323.649 412.574 323.237C412.649 322.824 412.828 322.437 413.093 322.112C413.358 321.787 413.701 321.534 414.09 321.377C414.479 321.22 414.902 321.164 415.318 321.215V321.215C415.8 321.273 416.255 321.47 416.625 321.784C416.996 322.097 417.267 322.512 417.405 322.978L421.055 335.317L422.086 343.933C422.097 344.029 422.079 344.125 422.034 344.211C421.989 344.296 421.92 344.366 421.835 344.412C421.802 344.429 421.768 344.442 421.733 344.451V344.451Z" fill="#6C63FF"/>
<path d="M412.442 318.484C415.033 318.484 417.133 316.384 417.133 313.793C417.133 311.202 415.033 309.101 412.442 309.101C409.851 309.101 407.75 311.202 407.75 313.793C407.75 316.384 409.851 318.484 412.442 318.484Z" fill="#FFB8B8"/>
<path d="M398.628 377.976L396.383 377.308L397.891 368.332L401.204 369.318L398.628 377.976Z" fill="#FFB8B8"/>
<path d="M398.553 380.322L391.315 378.168L391.343 378.077C391.453 377.707 391.635 377.362 391.878 377.062C392.121 376.763 392.421 376.514 392.76 376.33C393.1 376.146 393.472 376.031 393.856 375.991C394.24 375.951 394.628 375.988 394.998 376.098H394.998L399.419 377.413L398.553 380.322Z" fill="#2F2E41"/>
<path d="M423.22 377.861L420.878 377.86L419.764 368.827L422.074 368.828L423.22 377.861Z" fill="#FFB8B8"/>
<path d="M423.817 380.131L416.266 380.13V380.035C416.266 379.649 416.342 379.267 416.489 378.91C416.637 378.554 416.854 378.229 417.126 377.957C417.399 377.684 417.723 377.467 418.08 377.319C418.437 377.172 418.819 377.096 419.205 377.096H419.205L423.817 377.096L423.817 380.131Z" fill="#2F2E41"/>
<path d="M399.492 375.32H397.14C397.014 375.32 396.89 375.292 396.776 375.239C396.662 375.185 396.561 375.107 396.48 375.01C396.399 374.913 396.341 374.8 396.309 374.678C396.277 374.556 396.272 374.429 396.295 374.305C394.795 373.638 402.869 334.919 404.777 335.67L404.839 335.579L414.445 336.363C418.748 344.974 421.472 359.223 424.02 374.098C424.051 374.222 424.055 374.35 424.03 374.475C424.006 374.6 423.954 374.718 423.878 374.821C423.802 374.923 423.705 375.007 423.592 375.068C423.48 375.128 423.356 375.162 423.228 375.168L420.587 375.296C420.408 375.306 420.231 375.259 420.08 375.162C419.929 375.065 419.813 374.923 419.747 374.757L409.625 349.453C409.605 349.398 409.567 349.35 409.518 349.318C409.469 349.285 409.411 349.27 409.352 349.273C409.294 349.273 409.237 349.292 409.189 349.327C409.142 349.361 409.107 349.41 409.088 349.465L400.304 374.742C400.245 374.911 400.135 375.057 399.99 375.161C399.844 375.264 399.67 375.32 399.492 375.32V375.32Z" fill="#2F2E41"/>
<path d="M414.647 337.121L414.573 337.115L404.346 336.343L406.14 324.934C406.337 323.66 406.94 322.484 407.86 321.582C408.78 320.679 409.967 320.098 411.244 319.926V319.926C411.323 319.915 411.402 319.904 411.482 319.894C412.485 319.762 413.505 319.89 414.445 320.266C415.384 320.642 416.211 321.253 416.846 322.041C417.497 322.833 417.932 323.779 418.112 324.789C418.291 325.798 418.207 326.836 417.869 327.804L414.647 337.121Z" fill="#6C63FF"/>
<path d="M421.553 319.159C418.327 320.635 413.949 320.371 408.945 319.159C409.638 317.263 410.177 315.431 409.565 314.086C409.318 313.578 409.179 313.025 409.155 312.461C409.132 311.896 409.226 311.333 409.431 310.807C409.911 309.66 410.719 308.68 411.754 307.991C412.789 307.302 414.005 306.934 415.249 306.934V306.934C416.921 306.934 418.524 307.598 419.706 308.78C420.889 309.963 421.553 311.566 421.553 313.238L421.553 319.159Z" fill="#2F2E41"/>
<path d="M411.204 307.363H414.676V312.296H406.271C406.271 311.648 406.398 311.007 406.646 310.408C406.894 309.81 407.257 309.266 407.715 308.808C408.173 308.35 408.717 307.986 409.316 307.738C409.914 307.49 410.556 307.363 411.204 307.363V307.363Z" fill="#2F2E41"/>
<path d="M404.125 348.732C404.332 348.542 404.494 348.309 404.602 348.049C404.709 347.79 404.758 347.51 404.745 347.229C404.733 346.949 404.659 346.675 404.529 346.426C404.399 346.177 404.215 345.96 403.992 345.789L406.128 339.306L402.704 340.234L401.201 346.249C400.94 346.642 400.832 347.119 400.898 347.587C400.964 348.055 401.2 348.482 401.56 348.789C401.92 349.095 402.38 349.258 402.853 349.247C403.326 349.237 403.778 349.053 404.125 348.732V348.732Z" fill="#FFB8B8"/>
<path d="M404.114 345.082L401.555 344.48C401.434 344.451 401.329 344.375 401.262 344.27C401.195 344.164 401.172 344.036 401.198 343.914L404.747 327.475L405.463 323.181C405.532 322.767 405.704 322.378 405.965 322.049C406.225 321.719 406.564 321.461 406.95 321.298C407.337 321.135 407.758 321.073 408.175 321.117C408.593 321.16 408.992 321.309 409.336 321.548C409.735 321.826 410.044 322.213 410.225 322.664C410.405 323.115 410.45 323.608 410.353 324.084L407.796 336.695L404.668 344.789C404.633 344.879 404.572 344.956 404.492 345.011C404.413 345.065 404.319 345.094 404.222 345.094C404.186 345.094 404.149 345.09 404.114 345.082V345.082Z" fill="#6C63FF"/>
<path d="M483.179 309.354C483.08 309.379 482.983 309.412 482.89 309.453L475.203 304.494L475.309 302.275L471.98 301.677L471.411 305.588C471.365 305.904 471.423 306.226 471.575 306.507C471.728 306.787 471.968 307.01 472.258 307.143L481.725 311.464C481.772 311.855 481.937 312.221 482.197 312.516C482.458 312.81 482.802 313.018 483.184 313.112C483.566 313.206 483.967 313.182 484.334 313.042C484.702 312.903 485.018 312.654 485.241 312.331C485.464 312.007 485.584 311.623 485.583 311.23C485.583 310.837 485.462 310.453 485.238 310.13C485.015 309.807 484.698 309.559 484.33 309.421C483.962 309.282 483.56 309.259 483.179 309.354H483.179Z" fill="#FFB8B8"/>
<path d="M474.889 304.358L470.767 303.597C470.65 303.575 470.539 303.528 470.441 303.46C470.343 303.391 470.262 303.302 470.201 303.199C470.141 303.097 470.104 302.982 470.092 302.863C470.08 302.744 470.094 302.625 470.133 302.512L471.485 298.558C471.598 297.957 471.945 297.425 472.449 297.08C472.954 296.735 473.575 296.605 474.176 296.717C474.777 296.83 475.308 297.177 475.653 297.681C475.998 298.186 476.129 298.807 476.016 299.408L475.869 303.571C475.865 303.69 475.835 303.807 475.782 303.914C475.728 304.02 475.653 304.114 475.56 304.189C475.467 304.263 475.359 304.317 475.243 304.346C475.127 304.375 475.007 304.379 474.889 304.358V304.358Z" fill="#3F3D56"/>
<path d="M489.223 293.633C489.201 293.732 489.186 293.833 489.179 293.935L481.256 298.506L479.33 297.397L477.277 300.085L480.496 302.379C480.756 302.564 481.069 302.66 481.388 302.652C481.707 302.645 482.015 302.534 482.266 302.336L490.436 295.89C490.805 296.027 491.206 296.048 491.587 295.951C491.968 295.853 492.311 295.642 492.569 295.346C492.827 295.049 492.988 294.681 493.032 294.29C493.076 293.9 493 293.505 492.814 293.159C492.628 292.812 492.341 292.531 491.991 292.351C491.641 292.172 491.245 292.104 490.855 292.155C490.465 292.207 490.1 292.376 489.809 292.64C489.517 292.904 489.313 293.25 489.223 293.633L489.223 293.633Z" fill="#FFB8B8"/>
<path d="M480.992 298.722L478.431 302.041C478.358 302.135 478.266 302.213 478.16 302.269C478.055 302.324 477.938 302.356 477.819 302.363C477.7 302.369 477.581 302.35 477.47 302.306C477.359 302.263 477.259 302.196 477.176 302.11L474.277 299.099C473.794 298.725 473.48 298.173 473.404 297.567C473.327 296.96 473.495 296.348 473.87 295.865C474.245 295.382 474.796 295.068 475.403 294.992C476.009 294.915 476.621 295.083 477.104 295.458L480.74 297.491C480.844 297.549 480.934 297.629 481.005 297.725C481.075 297.822 481.124 297.932 481.148 298.049C481.172 298.166 481.17 298.286 481.143 298.402C481.116 298.519 481.065 298.628 480.992 298.722V298.722Z" fill="#CCCCCC"/>
<path d="M470.506 290.798C473.007 290.798 475.036 288.77 475.036 286.268C475.036 283.766 473.007 281.738 470.506 281.738C468.004 281.738 465.976 283.766 465.976 286.268C465.976 288.77 468.004 290.798 470.506 290.798Z" fill="#FFB8B8"/>
<path d="M474.782 351.13H477.043L478.118 342.408H474.781L474.782 351.13Z" fill="#FFB8B8"/>
<path d="M474.205 350.392L478.658 350.392H478.658C479.031 350.392 479.4 350.465 479.744 350.608C480.089 350.75 480.402 350.959 480.665 351.223C480.929 351.486 481.138 351.799 481.28 352.143C481.423 352.488 481.496 352.857 481.496 353.229V353.322L474.205 353.322L474.205 350.392Z" fill="#2F2E41"/>
<path d="M467.035 351.13H469.296L470.372 342.408H467.035V351.13Z" fill="#FFB8B8"/>
<path d="M466.458 350.392L470.911 350.392H470.911C471.284 350.392 471.653 350.465 471.997 350.608C472.342 350.75 472.654 350.959 472.918 351.223C473.181 351.486 473.39 351.799 473.533 352.143C473.676 352.488 473.749 352.857 473.749 353.229V353.322L466.458 353.322L466.458 350.392Z" fill="#2F2E41"/>
<path d="M474.103 347.82L471.797 329.975C471.796 329.951 471.785 329.929 471.768 329.913C471.75 329.897 471.727 329.888 471.703 329.889C471.692 329.888 471.68 329.89 471.669 329.894C471.658 329.899 471.647 329.905 471.639 329.914C471.63 329.922 471.624 329.932 471.619 329.943C471.615 329.954 471.612 329.966 471.613 329.977L470.95 347.564C470.942 347.778 470.852 347.982 470.697 348.131C470.542 348.28 470.335 348.363 470.12 348.362H467.382C467.164 348.364 466.956 348.279 466.8 348.128C466.645 347.976 466.556 347.769 466.552 347.552L465.841 318.251L478.098 318.374L478.404 347.769C478.401 347.886 478.374 348.001 478.324 348.106C478.274 348.212 478.202 348.306 478.113 348.381C478.026 348.456 477.924 348.512 477.814 348.545C477.704 348.578 477.589 348.588 477.475 348.573L474.819 348.581C474.63 348.555 474.457 348.465 474.327 348.327C474.196 348.188 474.118 348.009 474.103 347.82V347.82Z" fill="#2F2E41"/>
<path d="M465.659 319.053C465.522 319 465.401 318.912 465.309 318.798C465.217 318.683 465.157 318.547 465.135 318.402L465.013 302.298C464.471 298.713 463.831 295.2 466.965 293.383L467.242 292.554C467.272 292.465 467.329 292.386 467.404 292.33C467.48 292.274 467.572 292.242 467.666 292.239L473.613 292.069C473.705 292.066 473.797 292.091 473.875 292.141C473.953 292.191 474.014 292.263 474.05 292.348L474.492 293.381L474.649 293.47C476.143 294.322 477.353 295.595 478.127 297.131C478.901 298.666 479.205 300.396 479.002 302.104L478.662 304.974L478.42 318.39C478.417 318.537 478.375 318.681 478.299 318.807C478.222 318.933 478.114 319.036 477.984 319.107C476.302 319.981 474.427 320.418 472.532 320.376C470.182 320.334 467.857 319.886 465.659 319.053Z" fill="#CCCCCC"/>
<path d="M470.358 290.966C469.676 290.981 468.999 290.851 468.371 290.585C467.742 290.32 467.178 289.924 466.713 289.425C466.249 288.925 465.896 288.333 465.676 287.687C465.457 287.042 465.377 286.357 465.441 285.678C465.506 284.999 465.713 284.341 466.05 283.748C466.386 283.155 466.844 282.64 467.394 282.237C467.944 281.833 468.573 281.551 469.24 281.408C469.907 281.265 470.596 281.265 471.263 281.407C472.244 280.762 473.405 280.444 474.578 280.499C475.162 280.536 475.725 280.729 476.208 281.059C476.69 281.389 477.075 281.843 477.321 282.373C477.541 282.914 477.548 283.518 477.342 284.064C477.136 284.61 476.732 285.059 476.21 285.32C475.489 285.528 474.725 285.539 473.998 285.351C473.268 285.164 472.497 285.233 471.811 285.545C471.168 285.926 470.88 286.947 471.455 287.424C471.76 287.686 471.978 288.036 472.08 288.425C472.181 288.815 472.162 289.226 472.024 289.604C471.889 289.956 471.664 290.268 471.372 290.506C471.08 290.745 470.73 290.904 470.358 290.966Z" fill="#2F2E41"/>
<path d="M207.665 377.775H209.869L210.917 369.275H207.664L207.665 377.775Z" fill="#FFB8B8"/>
<path d="M206.693 380.322L206.692 376.646L211.442 376.646C212.284 376.646 213.092 376.981 213.687 377.577C214.282 378.172 214.617 378.979 214.618 379.821V380.321L206.693 380.322Z" fill="#2F2E41"/>
<path d="M195.787 377.775H197.99L199.038 369.275H195.786L195.787 377.775Z" fill="#FFB8B8"/>
<path d="M194.815 380.322L194.814 376.646L199.564 376.646C200.406 376.646 201.214 376.981 201.809 377.577C202.404 378.172 202.739 378.979 202.74 379.821V380.321L194.815 380.322Z" fill="#2F2E41"/>
<path d="M202.24 317.349C204.855 317.349 206.975 315.23 206.975 312.615C206.975 310 204.855 307.88 202.24 307.88C199.626 307.88 197.506 310 197.506 312.615C197.506 315.23 199.626 317.349 202.24 317.349Z" fill="#FFB8B8"/>
<path d="M218.429 343.491C218.396 343.229 218.306 342.977 218.165 342.754C218.024 342.53 217.836 342.34 217.614 342.197C217.392 342.054 217.141 341.962 216.879 341.926C216.617 341.891 216.351 341.913 216.098 341.992L213.452 338.82L211.133 339.958L214.932 344.384C215.092 344.799 215.399 345.141 215.795 345.345C216.19 345.549 216.646 345.601 217.077 345.491C217.509 345.381 217.884 345.117 218.133 344.748C218.383 344.379 218.488 343.932 218.429 343.491V343.491Z" fill="#FFB8B8"/>
<path d="M195.657 346.699C195.77 346.46 195.829 346.199 195.83 345.935C195.831 345.67 195.774 345.409 195.663 345.169C195.553 344.929 195.39 344.717 195.189 344.546C194.987 344.376 194.75 344.252 194.495 344.183L193.964 340.087L191.396 339.802L192.227 345.576C192.139 346.012 192.215 346.466 192.439 346.85C192.663 347.234 193.021 347.523 193.444 347.661C193.866 347.799 194.325 347.778 194.733 347.601C195.141 347.423 195.47 347.102 195.657 346.699H195.657Z" fill="#FFB8B8"/>
<path d="M198.284 321.557C198.032 321.234 197.699 320.983 197.32 320.829C196.94 320.676 196.526 320.625 196.12 320.682C195.715 320.739 195.331 320.903 195.009 321.156C194.686 321.408 194.436 321.742 194.284 322.122L190.403 331.807C190.007 332.796 189.88 333.873 190.037 334.928L191.301 343.44C191.317 343.55 191.357 343.655 191.418 343.748C191.478 343.841 191.558 343.92 191.652 343.979C191.746 344.038 191.852 344.076 191.962 344.091C192.072 344.106 192.184 344.096 192.29 344.064L193.955 343.552C194.128 343.5 194.276 343.388 194.375 343.237C194.473 343.086 194.516 342.905 194.495 342.726V342.726C193.907 337.714 194.684 332.637 196.743 328.031L198.572 323.939C198.745 323.553 198.809 323.128 198.758 322.708C198.707 322.289 198.543 321.891 198.284 321.557V321.557Z" fill="#CCCCCC"/>
<path d="M201.088 317.349C200.376 317.364 199.668 317.229 199.011 316.951C198.355 316.674 197.765 316.26 197.28 315.738C196.794 315.216 196.425 314.597 196.196 313.923C195.967 313.248 195.883 312.532 195.95 311.822C196.017 311.113 196.234 310.426 196.586 309.806C196.938 309.186 197.417 308.648 197.991 308.226C198.566 307.804 199.223 307.509 199.92 307.36C200.617 307.21 201.338 307.21 202.035 307.359C203.06 306.684 204.273 306.352 205.499 306.41C206.109 306.448 206.698 306.65 207.202 306.995C207.707 307.34 208.109 307.814 208.366 308.369C208.595 308.934 208.603 309.565 208.388 310.136C208.172 310.707 207.75 311.175 207.204 311.448C206.451 311.666 205.652 311.678 204.893 311.481C204.13 311.286 203.324 311.357 202.607 311.683C201.936 312.082 201.634 313.149 202.235 313.647C202.554 313.922 202.782 314.287 202.888 314.694C202.994 315.101 202.974 315.531 202.83 315.926C202.689 316.294 202.454 316.619 202.148 316.869C201.843 317.119 201.477 317.284 201.088 317.349V317.349Z" fill="#2F2E41"/>
<path d="M195.214 343.304L194.374 375.175C194.371 375.281 194.391 375.387 194.431 375.486C194.471 375.584 194.531 375.673 194.607 375.747C194.683 375.822 194.773 375.879 194.873 375.917C194.972 375.954 195.078 375.971 195.184 375.966L197.951 375.824C198.127 375.815 198.296 375.746 198.427 375.628C198.558 375.51 198.645 375.35 198.673 375.175L201.964 354.475C201.978 354.386 202.022 354.305 202.09 354.246C202.157 354.187 202.243 354.153 202.333 354.15C202.422 354.147 202.51 354.176 202.581 354.231C202.652 354.286 202.701 354.364 202.721 354.451L207.175 374.382C207.199 374.489 207.245 374.589 207.31 374.676C207.376 374.764 207.459 374.836 207.555 374.889C207.65 374.942 207.756 374.974 207.865 374.983C207.974 374.991 208.083 374.977 208.186 374.941L210.931 374.773C211.09 374.716 211.226 374.609 211.319 374.468C211.411 374.327 211.454 374.16 211.442 373.992L209.045 343.002L195.214 343.304Z" fill="#2F2E41"/>
<path d="M193.866 328.166C193.749 327.017 193.862 325.856 194.198 324.751C194.535 323.646 195.089 322.619 195.827 321.731C196.565 320.842 197.473 320.11 198.497 319.576C199.522 319.043 200.643 318.719 201.794 318.624C203.879 318.476 207.116 318.423 208.184 321.156C211.398 329.39 205.771 329.19 207.71 336.324C209.649 343.457 211.361 343.866 208.701 344.381C206.04 344.896 194.076 347.937 194.568 342.916C194.87 339.83 194.328 332.984 193.866 328.166Z" fill="#CCCCCC"/>
<path d="M207.614 320.319C207.232 320.171 206.818 320.127 206.413 320.19C206.008 320.254 205.627 320.423 205.309 320.68C204.99 320.938 204.745 321.275 204.599 321.658C204.452 322.04 204.409 322.455 204.474 322.859L205.985 332.303C206.243 333.918 206.926 335.435 207.963 336.699L212.871 342.68C212.941 342.765 213.03 342.835 213.129 342.884C213.229 342.932 213.338 342.959 213.449 342.961C213.56 342.964 213.671 342.942 213.773 342.898C213.874 342.854 213.966 342.789 214.04 342.706L215.206 341.412C215.326 341.278 215.396 341.106 215.403 340.925C215.41 340.745 215.354 340.568 215.244 340.425L214.9 339.98C212.045 336.275 210.244 331.867 209.687 327.223L209.086 322.214C209.036 321.794 208.872 321.396 208.613 321.063C208.354 320.729 208.009 320.472 207.614 320.319V320.319Z" fill="#CCCCCC"/>
<path d="M218.654 345.686C218.897 345.565 219.111 345.392 219.28 345.18C219.449 344.967 219.569 344.72 219.633 344.457C219.696 344.193 219.701 343.918 219.646 343.652C219.592 343.386 219.48 343.135 219.318 342.917L220.707 329.343H217.706L216.603 342.598C216.255 342.894 216.027 343.307 215.964 343.76C215.9 344.212 216.004 344.672 216.257 345.053C216.51 345.434 216.894 345.708 217.336 345.825C217.777 345.941 218.247 345.892 218.654 345.686V345.686Z" fill="#A0616A"/>
<path d="M221.41 321.852C223.754 321.852 225.655 319.952 225.655 317.607C225.655 315.263 223.754 313.362 221.41 313.362C219.066 313.362 217.165 315.263 217.165 317.607C217.165 319.952 219.066 321.852 221.41 321.852Z" fill="#A0616A"/>
<path d="M222.209 337.248C222.039 337.248 221.874 337.192 221.739 337.089C221.604 336.986 221.506 336.842 221.461 336.678C220.748 334.542 219.869 332.466 218.831 330.468C218.514 329.816 218.339 329.104 218.316 328.379C218.293 327.655 218.424 326.933 218.7 326.263C218.976 325.592 219.39 324.988 219.916 324.488C220.442 323.989 221.068 323.607 221.752 323.367V323.367C222.4 323.138 223.088 323.041 223.774 323.083C224.461 323.124 225.132 323.303 225.747 323.608C226.363 323.914 226.912 324.339 227.36 324.86C227.809 325.382 228.148 325.987 228.359 326.642C229.156 329.396 229.481 332.264 229.322 335.127C229.313 335.297 229.248 335.46 229.138 335.59C229.028 335.72 228.878 335.81 228.711 335.846L222.376 337.23C222.321 337.242 222.265 337.248 222.209 337.248V337.248Z" fill="#6C63FF"/>
<path d="M228.344 377.557H230.463L231.471 369.384H228.343L228.344 377.557Z" fill="#A0616A"/>
<path d="M235.049 380.024H227.39L227.39 376.452H231.977C232.381 376.452 232.78 376.531 233.153 376.686C233.526 376.84 233.864 377.066 234.15 377.352C234.435 377.637 234.661 377.976 234.815 378.349C234.97 378.721 235.049 379.121 235.049 379.524L235.049 380.024Z" fill="#2F2E41"/>
<path d="M207.156 374.811L209.013 375.832L213.834 369.156L211.094 367.649L207.156 374.811Z" fill="#A0616A"/>
<path d="M211.844 380.204L205.132 376.514L206.853 373.382L210.872 375.592C211.586 375.985 212.115 376.645 212.342 377.428C212.57 378.21 212.477 379.051 212.084 379.765L211.844 380.204Z" fill="#2F2E41"/>
<path d="M228.245 373.021C228.056 373.021 227.874 372.952 227.732 372.827C227.59 372.702 227.499 372.53 227.475 372.343L224.825 351.924C224.813 351.833 224.773 351.749 224.711 351.683C224.648 351.617 224.566 351.572 224.477 351.555C224.387 351.538 224.295 351.549 224.212 351.588C224.13 351.627 224.062 351.691 224.018 351.771L212.974 371.807C212.883 371.97 212.736 372.096 212.561 372.16C212.385 372.225 212.192 372.224 212.016 372.158L209.609 371.241C209.512 371.204 209.424 371.149 209.349 371.077C209.274 371.005 209.214 370.92 209.173 370.825C209.132 370.73 209.11 370.627 209.108 370.524C209.107 370.42 209.127 370.317 209.166 370.221L216.816 351.428C216.835 351.381 216.848 351.331 216.855 351.279C217.891 343.26 220.528 339.181 221.311 338.122C221.368 338.044 221.406 337.954 221.421 337.859C221.436 337.763 221.427 337.665 221.397 337.574L221.289 337.251C221.246 337.123 221.237 336.986 221.263 336.853C221.29 336.72 221.35 336.597 221.439 336.494C224.261 333.28 229.181 335.034 229.23 335.052L229.255 335.061L229.27 335.082C234.786 342.647 232.747 367.219 232.282 372.068C232.265 372.25 232.183 372.42 232.053 372.548C231.922 372.676 231.75 372.754 231.567 372.768L228.306 373.019C228.285 373.02 228.265 373.021 228.245 373.021Z" fill="#2F2E41"/>
<path d="M237.912 322.538C237.891 322.631 237.877 322.726 237.87 322.821L230.446 327.104L228.642 326.065L226.718 328.584L229.734 330.733C229.977 330.907 230.271 330.997 230.57 330.99C230.869 330.982 231.158 330.878 231.393 330.693L239.048 324.653C239.394 324.781 239.77 324.801 240.127 324.71C240.484 324.619 240.805 324.421 241.047 324.143C241.288 323.865 241.44 323.52 241.481 323.154C241.522 322.788 241.451 322.418 241.276 322.093C241.102 321.769 240.833 321.505 240.505 321.337C240.177 321.169 239.806 321.105 239.441 321.153C239.075 321.202 238.733 321.36 238.46 321.607C238.187 321.854 237.996 322.179 237.912 322.538V322.538Z" fill="#A0616A"/>
<path d="M230.198 327.307L227.798 330.417C227.73 330.505 227.644 330.578 227.545 330.63C227.446 330.682 227.337 330.712 227.225 330.718C227.114 330.725 227.002 330.707 226.898 330.666C226.794 330.625 226.7 330.562 226.623 330.481L223.906 327.661C223.456 327.309 223.163 326.792 223.093 326.225C223.022 325.658 223.179 325.086 223.53 324.634C223.88 324.183 224.396 323.889 224.963 323.816C225.53 323.744 226.102 323.899 226.555 324.248L229.962 326.153C230.06 326.208 230.144 326.283 230.21 326.373C230.276 326.463 230.322 326.567 230.344 326.676C230.367 326.786 230.365 326.899 230.34 327.008C230.315 327.116 230.266 327.219 230.198 327.307H230.198Z" fill="#6C63FF"/>
<path d="M220.898 332.71L217.032 332.012C216.922 331.993 216.818 331.949 216.726 331.885C216.634 331.822 216.557 331.739 216.501 331.642C216.444 331.546 216.408 331.439 216.397 331.328C216.385 331.216 216.398 331.104 216.433 330.998L217.687 327.288C217.791 326.726 218.115 326.228 218.586 325.904C219.057 325.58 219.638 325.456 220.2 325.559C220.762 325.663 221.261 325.985 221.586 326.455C221.912 326.925 222.037 327.505 221.935 328.068L221.813 331.97C221.81 332.081 221.782 332.191 221.732 332.291C221.683 332.391 221.612 332.479 221.525 332.55C221.438 332.62 221.337 332.671 221.229 332.698C221.121 332.726 221.008 332.73 220.898 332.71V332.71Z" fill="#6C63FF"/>
<path d="M222.081 316.631C223.172 317.378 224.605 318.145 225.719 317.35C226.068 317.084 226.321 316.713 226.441 316.292C226.561 315.871 226.541 315.422 226.385 315.012C225.851 313.487 224.385 312.815 222.983 312.3C221.202 311.496 219.221 311.244 217.295 311.577C215.414 312.057 213.751 313.878 214.091 315.79C214.364 317.327 215.814 318.606 215.608 320.154C215.401 321.711 213.649 322.531 212.103 322.809C210.556 323.088 208.826 323.177 207.715 324.288C206.297 325.705 206.651 328.238 207.985 329.734C209.442 331.13 211.29 332.049 213.283 332.369C215.867 332.98 218.663 333.301 221.118 332.287C223.572 331.273 225.482 328.545 224.771 325.986C224.397 324.925 223.823 323.946 223.08 323.102C222.336 322.258 221.778 321.266 221.443 320.192C221.322 319.739 221.309 319.264 221.404 318.804C221.499 318.345 221.699 317.914 221.989 317.545C222.099 317.426 222.168 317.275 222.186 317.114C222.205 316.953 222.172 316.79 222.092 316.649L222.081 316.631Z" fill="#2F2E41"/>
</g>
<defs>
<clipPath id="clip0_1391_495">
<rect width="712.046" height="380.322" fill="white"/>
</clipPath>
</defs>
</svg>
