<svg width="624" height="752" viewBox="0 0 624 752" fill="none" xmlns="http://www.w3.org/2000/svg">
<g clip-path="url(#clip0_1391_442)">
<path d="M201.815 329.092C201.815 329.092 215.686 343.426 216.917 351.507L204.85 358.457L190.923 334.051L183.577 301.471C182.887 300.78 182.393 299.919 182.143 298.975C181.893 298.031 181.898 297.038 182.156 296.097C182.414 295.155 182.917 294.299 183.613 293.614C184.31 292.93 185.175 292.442 186.121 292.2C187.066 291.958 188.059 291.971 188.999 292.236C189.938 292.502 190.791 293.012 191.469 293.714C192.148 294.415 192.629 295.284 192.863 296.232C193.098 297.18 193.077 298.173 192.804 299.11L201.815 329.092Z" fill="#FFB6B6"/>
<path d="M330.467 294.722C330.229 293.775 330.245 292.782 330.514 291.844C330.784 290.905 331.297 290.055 332.001 289.379C332.705 288.703 333.576 288.225 334.525 287.994C335.473 287.763 336.466 287.788 337.402 288.065C338.339 288.342 339.185 288.861 339.855 289.571C340.526 290.281 340.996 291.155 341.219 292.106C341.443 293.056 341.41 294.049 341.126 294.983C340.841 295.917 340.315 296.759 339.6 297.423L331.051 329.708L316.228 353.581L304.427 346.189C305.957 338.159 320.35 324.349 320.35 324.349L330.467 294.722Z" fill="#FFB6B6"/>
<path d="M110.656 411.823C110.569 392.796 117.872 374.863 125.989 357.989C134.377 340.554 143.925 323.449 148.665 304.546C151.433 294.136 152.106 283.281 150.646 272.609C150.359 270.706 147.468 271.515 147.753 273.407C150.66 292.714 144.377 311.944 136.554 329.357C128.795 346.625 119.124 363.052 113.071 381.06C109.59 390.947 107.76 401.341 107.656 411.823C107.67 412.212 107.834 412.581 108.113 412.851C108.393 413.121 108.767 413.272 109.156 413.272C109.545 413.272 109.919 413.121 110.199 412.851C110.479 412.581 110.643 412.212 110.656 411.823H110.656Z" fill="#E6E6E6"/>
<path d="M197.844 418.208C197.203 410.108 202.921 403.35 209.67 399.632C218.235 394.914 228.602 395.319 238.067 395.6C247.777 395.987 257.503 395.525 267.133 394.217C289.874 390.913 311.513 382.284 330.287 369.032C349.062 355.781 364.441 338.282 375.171 317.962C384.073 301.108 390.34 281.675 387.838 262.428C387.535 260.088 387.104 257.766 386.547 255.473C386.09 253.598 383.196 254.392 383.654 256.271C388.315 275.392 382.972 295.42 374.499 312.681C366.712 328.504 356.09 342.767 343.16 354.76C329.619 367.321 313.755 377.116 296.46 383.595C287.477 386.954 278.186 389.42 268.721 390.957C259.127 392.442 249.413 393.008 239.712 392.648C230.067 392.368 219.845 391.859 210.78 395.762C203.686 398.817 197.1 404.869 195.273 412.604C194.84 414.438 194.695 416.329 194.844 418.208C194.995 420.119 197.996 420.136 197.844 418.208V418.208Z" fill="#E6E6E6"/>
<path d="M503.387 140.907C499.857 139.317 496.387 137.787 493.067 136.377C492.567 136.167 492.067 135.947 491.567 135.737L491.507 135.707C488.517 134.427 485.52 133.174 482.517 131.947C480.417 131.087 478.327 130.237 476.227 129.407C475.407 129.067 474.587 128.747 473.757 128.427C472.427 127.897 471.087 127.377 469.757 126.857C468.657 126.427 467.547 126.007 466.447 125.587C465.177 125.097 463.907 124.627 462.647 124.147C461.147 123.587 459.65 123.034 458.157 122.487C458.142 122.479 458.124 122.476 458.107 122.477C456.977 122.057 455.847 121.647 454.727 121.247C439.517 115.767 424.087 110.867 408.847 106.677C408.297 106.527 407.747 106.377 407.197 106.227C406.247 105.967 405.297 105.707 404.347 105.447C402.667 104.997 400.98 104.557 399.287 104.127C397.697 103.707 396.097 103.307 394.497 102.907C393.087 102.557 391.677 102.207 390.257 101.867C388.867 101.527 387.477 101.197 386.077 100.877C381.907 99.8972 377.744 98.9706 373.587 98.0973C373.558 98.089 373.527 98.0856 373.497 98.0872C372.497 97.8672 371.507 97.6573 370.507 97.4573C355.327 94.3473 339.887 91.8473 324.617 90.0173C323.867 89.9273 323.117 89.8373 322.367 89.7573H322.347C322.217 89.7373 322.077 89.7273 321.947 89.7173C320.687 89.5673 319.427 89.4273 318.167 89.2973C316.507 89.1173 314.857 88.9473 313.197 88.7873C309.267 88.3973 305.344 88.0573 301.427 87.7673C300.437 87.6873 299.457 87.6172 298.477 87.5572C297.347 87.4672 296.217 87.3973 295.097 87.3273C293.937 87.2473 292.777 87.1772 291.617 87.1172C291.177 87.0872 290.747 87.0673 290.317 87.0473C289.777 87.0073 289.227 86.9873 288.687 86.9573C287.877 86.9173 287.067 86.8772 286.257 86.8372C271.017 86.1072 255.587 86.0473 240.387 86.6573C239.547 86.6873 238.707 86.7273 237.857 86.7673H237.827C237.217 86.7973 236.607 86.8173 235.987 86.8473C235.767 86.8573 235.537 86.8673 235.317 86.8773C233.807 86.9573 232.297 87.0373 230.787 87.1273C229.177 87.2173 227.577 87.3173 225.977 87.4273C224.967 87.4973 223.967 87.5673 222.967 87.6373C222.307 87.6873 221.647 87.7373 220.977 87.7873C216.797 88.1073 212.617 88.4773 208.467 88.8973C207.077 89.0373 205.697 89.1773 204.317 89.3273C203.547 89.4073 202.787 89.4873 202.027 89.5773C186.787 91.2973 171.347 93.7273 156.147 96.7873C155.147 96.9873 154.137 97.1973 153.127 97.4073C153.107 97.4073 153.087 97.4173 153.067 97.4173C152.917 97.4473 152.757 97.4773 152.607 97.5173C151.567 97.7273 150.517 97.9473 149.477 98.1773C148.327 98.4173 147.187 98.6673 146.037 98.9173C145.077 99.1273 144.117 99.3473 143.157 99.5673C140.897 100.077 138.627 100.597 136.367 101.147C131.767 102.247 127.17 103.411 122.577 104.637C121.537 104.917 120.487 105.197 119.437 105.487C119.429 105.488 119.422 105.492 119.417 105.497C118.877 105.637 118.327 105.787 117.787 105.937C102.587 110.117 87.1571 115.057 71.9171 120.637C70.7971 121.047 69.6771 121.457 68.5471 121.887C68.5195 121.889 68.4924 121.896 68.4671 121.907C65.4371 123.037 62.3904 124.197 59.3271 125.387C58.2171 125.827 57.0971 126.267 55.9771 126.707C54.8971 127.137 53.8071 127.567 52.7271 128.007C51.7771 128.387 50.8371 128.767 49.8871 129.157C49.1271 129.467 48.3771 129.777 47.6171 130.087C45.0171 131.167 42.4204 132.261 39.8271 133.367C38.2571 134.047 36.6771 134.727 35.1071 135.417C34.5971 135.637 34.0771 135.857 33.5671 136.087C29.7871 137.757 26.3471 139.307 23.0471 140.837C19.5326 142.463 16.5552 145.058 14.4648 148.317C12.3745 151.577 11.2582 155.365 11.2471 159.237V194.527C11.247 197.671 11.9796 200.772 13.3866 203.584C14.7936 206.395 16.8364 208.841 19.3529 210.725C21.8694 212.61 24.7905 213.882 27.8844 214.442C30.9783 215.001 34.16 214.832 37.1771 213.947C38.6671 213.507 40.1571 213.067 41.6571 212.627C42.9071 212.257 44.1671 211.897 45.4171 211.537C46.7871 211.147 48.1471 210.757 49.5171 210.367C52.647 209.497 55.7971 208.627 58.9471 207.787C60.4171 207.397 61.8871 207.007 63.3571 206.617C65.6671 206.007 67.9771 205.417 70.2871 204.827C70.9271 204.667 71.5671 204.507 72.2071 204.347C82.2571 201.827 92.3571 199.487 102.377 197.367C103.407 197.147 104.437 196.937 105.457 196.727C109.667 195.847 113.854 195.014 118.017 194.227L121.017 193.657H121.047C122.027 193.467 123.007 193.287 123.987 193.107C126.727 192.607 129.484 192.121 132.257 191.647C133.847 191.367 135.447 191.097 137.047 190.837C137.207 190.807 137.367 190.777 137.527 190.757C140.287 190.297 143.054 189.854 145.827 189.427C147.707 189.137 149.597 188.847 151.487 188.577C153.097 188.337 154.707 188.107 156.317 187.877C171.577 185.737 186.987 184.027 202.127 182.827C203.437 182.717 204.747 182.617 206.057 182.517C211.137 182.137 216.257 181.797 221.387 181.517C227.727 181.177 234.087 180.907 240.417 180.717C255.617 180.247 271.027 180.247 286.217 180.717C292.557 180.907 298.917 181.177 305.257 181.517C310.387 181.797 315.507 182.137 320.587 182.517C321.897 182.617 323.207 182.717 324.517 182.827C339.647 184.027 355.057 185.727 370.337 187.877C371.067 187.977 371.787 188.087 372.517 188.187C372.777 188.227 373.027 188.257 373.287 188.297C374.397 188.457 375.507 188.627 376.617 188.787C380.787 189.407 384.954 190.064 389.117 190.757C390.187 190.927 391.257 191.107 392.317 191.287C394.607 191.677 396.887 192.074 399.157 192.477C400.477 192.717 401.787 192.957 403.097 193.197C403.927 193.347 404.767 193.497 405.597 193.657C406.607 193.847 407.617 194.037 408.617 194.227C410.267 194.537 411.917 194.857 413.577 195.187C414.617 195.397 415.667 195.597 416.717 195.817C427.907 198.067 439.207 200.597 450.457 203.357C451.627 203.647 452.797 203.937 453.967 204.227C454.127 204.267 454.277 204.307 454.437 204.347C455.647 204.647 456.857 204.957 458.067 205.267C459.797 205.707 461.53 206.157 463.267 206.617C464.737 206.997 466.207 207.387 467.677 207.787C472.217 208.997 476.757 210.257 481.267 211.547C484.017 212.337 486.754 213.137 489.477 213.947H489.497C490.582 214.269 491.693 214.496 492.817 214.627C493.613 214.727 494.415 214.777 495.217 214.777C500.578 214.766 505.715 212.627 509.499 208.83C513.283 205.032 515.404 199.888 515.397 194.527V159.397C515.387 155.486 514.248 151.661 512.118 148.382C509.988 145.102 506.956 142.507 503.387 140.907V140.907Z" fill="#6C63FF"/>
<path d="M71.2666 122.257C70.8746 121.985 70.4237 121.81 69.951 121.746C69.4783 121.682 68.9971 121.73 68.5466 121.887C68.519 121.889 68.4919 121.896 68.4666 121.907C65.4366 123.037 62.39 124.197 59.3266 125.387C58.2166 125.827 57.0966 126.267 55.9766 126.707C54.8966 127.137 53.8066 127.567 52.7266 128.007C51.7766 128.387 50.8366 128.767 49.8866 129.157C49.1266 129.467 48.3766 129.777 47.6166 130.087C45.0166 131.167 42.42 132.261 39.8266 133.367C38.2566 134.047 36.6766 134.727 35.1066 135.417C34.5596 135.656 34.0941 136.048 33.7672 136.548C33.4403 137.047 33.2664 137.631 33.2666 138.227V210.997C33.2647 211.477 33.3759 211.951 33.5913 212.38C33.8068 212.81 34.1204 213.182 34.5066 213.467C34.7519 213.647 35.0212 213.792 35.3066 213.897C35.9098 214.109 36.5649 214.123 37.1766 213.937L41.6466 212.617C42.8966 212.257 44.1466 211.897 45.3966 211.537C46.7667 211.147 48.1366 210.757 49.5167 210.367C52.6466 209.497 55.7967 208.627 58.9467 207.787C60.4167 207.387 61.8867 206.997 63.3567 206.617C65.6667 206.007 67.9767 205.417 70.2867 204.827C70.8569 204.682 71.3738 204.376 71.7767 203.947L71.7867 203.937C72.3001 203.374 72.5853 202.639 72.5867 201.877V124.777C72.587 124.282 72.4671 123.793 72.2371 123.355C72.0072 122.916 71.6742 122.539 71.2666 122.257Z" fill="#3F3D56"/>
<path d="M155.607 98.0371C155.265 97.7557 154.866 97.5533 154.437 97.4444C154.009 97.3355 153.561 97.3227 153.127 97.4071C153.107 97.4071 153.087 97.4171 153.067 97.4171C152.917 97.4471 152.757 97.4771 152.607 97.5171C151.567 97.7271 150.517 97.9471 149.477 98.1771C148.327 98.4171 147.187 98.6671 146.037 98.9171C145.077 99.1271 144.117 99.3471 143.157 99.5671C140.897 100.077 138.627 100.597 136.367 101.147C131.757 102.247 127.16 103.41 122.577 104.637C121.617 104.887 120.647 105.147 119.687 105.407C119.602 105.429 119.519 105.456 119.437 105.487C119.429 105.488 119.422 105.491 119.417 105.497C118.833 105.718 118.331 106.11 117.975 106.623C117.62 107.135 117.429 107.743 117.427 108.367V190.657C117.426 191.106 117.524 191.549 117.714 191.955C117.904 192.361 118.182 192.721 118.527 193.007C118.763 193.205 119.03 193.363 119.317 193.477C119.685 193.628 120.079 193.706 120.477 193.707C120.658 193.705 120.838 193.689 121.017 193.657H121.047C122.027 193.467 123.007 193.287 123.987 193.107C126.727 192.607 129.483 192.12 132.257 191.647C133.847 191.367 135.447 191.097 137.047 190.837C137.207 190.807 137.367 190.777 137.527 190.757C140.287 190.297 143.053 189.854 145.827 189.427C147.707 189.137 149.597 188.847 151.487 188.577C152.367 188.437 153.247 188.317 154.127 188.187C154.709 188.107 155.256 187.856 155.697 187.467C156.025 187.181 156.289 186.827 156.47 186.43C156.651 186.034 156.745 185.603 156.747 185.167V100.417C156.747 99.9603 156.645 99.5093 156.448 99.0974C156.25 98.6854 155.963 98.3231 155.607 98.0371Z" fill="#3F3D56"/>
<path d="M239.957 87.6171C239.39 87.078 238.639 86.7743 237.857 86.7671H237.707C237.137 86.7971 236.557 86.8171 235.987 86.8471C235.767 86.8571 235.537 86.8671 235.317 86.8771C233.807 86.9571 232.297 87.0371 230.787 87.1271C229.177 87.2171 227.577 87.3171 225.977 87.4271C224.967 87.4971 223.967 87.5671 222.967 87.6371C222.307 87.6871 221.647 87.7371 220.977 87.7871C216.797 88.1071 212.617 88.4771 208.467 88.8971C207.077 89.0371 205.697 89.1771 204.317 89.3271C203.565 89.4081 202.87 89.7646 202.366 90.3279C201.862 90.8911 201.584 91.6212 201.587 92.3771V179.567C201.586 179.987 201.673 180.402 201.842 180.785C202.01 181.169 202.257 181.514 202.567 181.797C202.753 181.973 202.962 182.124 203.187 182.247C203.635 182.49 204.137 182.617 204.647 182.617C204.717 182.617 204.797 182.607 204.877 182.607C205.267 182.577 205.667 182.547 206.057 182.517C211.137 182.137 216.257 181.797 221.387 181.517C226.917 181.207 232.447 180.967 237.947 180.787C238.542 180.778 239.12 180.59 239.607 180.247C240.01 179.965 240.339 179.589 240.566 179.152C240.792 178.715 240.909 178.229 240.907 177.737V89.8371C240.909 89.4218 240.825 89.0105 240.662 88.6287C240.498 88.2469 240.259 87.9026 239.957 87.6171V87.6171Z" fill="#3F3D56"/>
<path d="M322.367 89.757H322.347C322.217 89.737 322.077 89.727 321.947 89.717C320.687 89.567 319.427 89.427 318.167 89.297C316.507 89.117 314.857 88.947 313.197 88.787C309.267 88.397 305.344 88.057 301.427 87.767C300.437 87.687 299.457 87.617 298.477 87.557C297.347 87.467 296.217 87.397 295.097 87.327C293.937 87.247 292.777 87.1769 291.617 87.1169C291.177 87.0869 290.747 87.067 290.317 87.047C289.857 87.017 289.407 86.987 288.957 86.967C288.868 86.9586 288.777 86.9553 288.687 86.957C287.943 86.9791 287.233 87.2787 286.697 87.797C286.393 88.0831 286.151 88.4287 285.986 88.8123C285.821 89.1959 285.736 89.6093 285.737 90.027V177.737C285.735 178.23 285.853 178.717 286.081 179.154C286.309 179.592 286.641 179.967 287.047 180.247C287.53 180.59 288.105 180.778 288.697 180.787C294.197 180.967 299.727 181.207 305.257 181.517C310.387 181.797 315.507 182.137 320.587 182.517C320.977 182.547 321.377 182.577 321.767 182.607C321.847 182.607 321.917 182.617 321.997 182.617C322.507 182.617 323.009 182.489 323.457 182.247C323.683 182.124 323.891 181.973 324.077 181.797C324.385 181.512 324.631 181.168 324.8 180.784C324.968 180.4 325.056 179.986 325.057 179.567V92.797C325.055 92.0499 324.781 91.3293 324.285 90.7699C323.79 90.2104 323.109 89.8504 322.367 89.757Z" fill="#3F3D56"/>
<path d="M407.198 106.227C407.119 106.196 407.039 106.169 406.958 106.147C406.087 105.907 405.218 105.677 404.347 105.447C402.667 104.997 400.981 104.557 399.287 104.127C397.697 103.707 396.097 103.307 394.497 102.907C393.087 102.557 391.677 102.207 390.257 101.867C388.867 101.527 387.477 101.197 386.077 100.877C381.907 99.8969 377.744 98.9702 373.587 98.0969C373.558 98.0887 373.528 98.0853 373.497 98.0869C373.066 98.0063 372.623 98.0209 372.198 98.1297C371.773 98.2385 371.377 98.439 371.037 98.7169C370.681 99.003 370.394 99.3653 370.197 99.7773C369.999 100.189 369.897 100.64 369.897 101.097V185.167C369.898 185.604 369.994 186.036 370.177 186.433C370.359 186.83 370.626 187.182 370.958 187.467C371.395 187.856 371.938 188.106 372.518 188.187C372.778 188.227 373.028 188.257 373.288 188.297C374.398 188.457 375.508 188.617 376.618 188.787C380.788 189.407 384.954 190.064 389.118 190.757C390.188 190.927 391.258 191.107 392.318 191.287C394.608 191.677 396.888 192.074 399.158 192.477C400.478 192.717 401.788 192.957 403.098 193.197C403.928 193.347 404.768 193.497 405.598 193.657C405.786 193.688 405.977 193.705 406.168 193.707C406.566 193.707 406.96 193.629 407.328 193.477C407.615 193.366 407.882 193.207 408.118 193.007C408.463 192.72 408.74 192.361 408.93 191.955C409.121 191.549 409.219 191.105 409.218 190.657V109.107C409.216 108.478 409.022 107.864 408.661 107.349C408.299 106.834 407.789 106.442 407.198 106.227Z" fill="#3F3D56"/>
<path d="M491.567 135.737L491.507 135.707C488.517 134.427 485.52 133.174 482.517 131.947C480.417 131.087 478.327 130.237 476.227 129.407C475.407 129.067 474.587 128.747 473.757 128.427C472.427 127.897 471.087 127.377 469.757 126.857C468.657 126.427 467.547 126.007 466.447 125.587C465.177 125.097 463.907 124.627 462.647 124.147C461.147 123.587 459.65 123.034 458.157 122.487C458.141 122.479 458.124 122.476 458.107 122.477C457.653 122.314 457.167 122.263 456.69 122.329C456.213 122.396 455.759 122.577 455.367 122.857C454.962 123.139 454.632 123.515 454.404 123.952C454.176 124.389 454.057 124.874 454.057 125.367V201.877C454.057 202.512 454.256 203.131 454.627 203.647C454.698 203.748 454.775 203.845 454.857 203.937L454.867 203.947C455.268 204.378 455.785 204.684 456.357 204.827C456.927 204.967 457.497 205.117 458.067 205.267C459.797 205.707 461.53 206.157 463.267 206.617C464.737 206.997 466.207 207.387 467.677 207.787C472.217 208.997 476.757 210.257 481.267 211.547C484.017 212.337 486.753 213.137 489.477 213.947H489.497C489.773 214.026 490.059 214.067 490.347 214.067C490.684 214.066 491.018 214.009 491.337 213.897C491.624 213.796 491.894 213.651 492.137 213.467C492.52 213.18 492.831 212.807 493.044 212.378C493.258 211.949 493.368 211.476 493.367 210.997V138.527C493.368 137.938 493.199 137.361 492.879 136.866C492.56 136.371 492.104 135.979 491.567 135.737V135.737Z" fill="#3F3D56"/>
<path d="M41.7244 212.676C54.7467 221.451 68.3437 229.341 82.0464 236.996C96.7052 245.185 111.517 253.096 126.179 261.28C140.928 269.513 155.548 278.012 169.65 287.321C183.363 296.196 196.328 306.177 208.416 317.163C219.864 327.76 230.233 339.602 238.384 352.937C239.356 354.528 240.296 356.137 241.203 357.765C242.144 359.451 244.736 357.94 243.793 356.251C236.03 342.657 226.365 330.241 215.09 319.38C203.3 308.028 190.536 297.733 176.944 288.615C162.934 279.025 148.329 270.335 133.556 261.982C118.826 253.654 103.905 245.671 89.0971 237.482C75.1583 229.774 61.2892 221.896 47.9375 213.2C46.363 212.174 44.7967 211.136 43.2386 210.086C41.6332 209.004 40.13 211.602 41.7244 212.676H41.7244Z" fill="#3F3D56"/>
<path d="M92.3396 177.472C98.5788 191.532 106.244 204.915 115.216 217.41C124.397 230.206 134.218 242.532 144.641 254.339C155.067 266.35 165.805 278.084 176.306 290.028C186.688 301.837 196.867 313.853 206.163 326.544C215.387 338.896 223.399 352.109 230.086 365.999C230.895 367.721 231.677 369.456 232.433 371.202C233.198 372.969 235.783 371.443 235.023 369.688C228.784 355.628 221.118 342.246 212.147 329.751C202.965 316.954 193.144 304.629 182.722 292.821C172.296 280.811 161.558 269.076 151.057 257.132C140.675 245.324 130.496 233.307 121.2 220.617C111.975 208.265 103.964 195.052 97.2768 181.161C96.4676 179.439 95.6853 177.705 94.93 175.958C94.1644 174.191 91.5791 175.717 92.3396 177.472V177.472Z" fill="#3F3D56"/>
<path d="M459.057 195.362C447.615 206.279 435.498 216.466 422.777 225.862C409.577 235.797 396.018 245.243 382.527 254.776C369.058 264.293 355.636 273.894 342.703 284.134C330.223 293.815 318.504 304.438 307.647 315.91C297.516 326.834 288.435 338.865 281.628 352.154C280.809 353.752 280.025 355.366 279.274 356.997C278.471 358.739 281.056 360.265 281.864 358.512C288.198 345.155 296.445 332.792 306.344 321.814C316.812 310.205 328.223 299.482 340.459 289.755C353.172 279.435 366.45 269.835 379.803 260.366C393.304 250.791 406.911 241.36 420.209 231.501C433.055 222.159 445.366 212.103 457.085 201.38C458.463 200.096 459.827 198.796 461.178 197.483C462.565 196.135 460.443 194.015 459.057 195.362V195.362Z" fill="#3F3D56"/>
<path d="M428.137 167.747C421.898 181.807 414.233 195.189 405.261 207.684C396.073 220.476 386.241 232.792 375.802 244.585C365.366 256.588 354.627 268.321 344.133 280.273C333.759 292.088 323.61 304.128 314.314 316.818C305.09 329.17 297.078 342.383 290.391 356.274C289.582 357.996 288.8 359.73 288.045 361.477C287.285 363.23 289.869 364.76 290.635 362.991C296.874 348.931 304.54 335.548 313.511 323.053C322.699 310.262 332.532 297.945 342.97 286.152C353.406 274.15 364.146 262.416 374.639 250.465C385.014 238.649 395.162 226.61 404.458 213.919C413.682 201.567 421.694 188.354 428.381 174.464C429.19 172.742 429.973 171.007 430.728 169.261C431.488 167.507 428.904 165.978 428.137 167.747V167.747Z" fill="#3F3D56"/>
<path d="M206.669 548.641L208.56 555.2L234.762 551.029L231.971 541.347L206.669 548.641Z" fill="#FFB6B6"/>
<path d="M199.76 550.382L205.574 570.554L205.829 570.48C207.911 569.88 209.67 568.477 210.718 566.58C211.766 564.684 212.018 562.448 211.418 560.366L211.418 560.365L213.151 555.875L208.374 549.806L207.867 548.045L199.76 550.382Z" fill="#2F2E41"/>
<path d="M319.171 580.861L325.832 579.364L323.228 552.96L313.397 555.17L319.171 580.861Z" fill="#FFB6B6"/>
<path d="M318.556 588.341L339.038 583.738L338.98 583.479C338.505 581.365 337.209 579.526 335.378 578.367C333.547 577.208 331.331 576.823 329.216 577.298L329.216 577.299L324.837 575.301L318.494 579.708L316.706 580.11L318.556 588.341Z" fill="#2F2E41"/>
<path d="M298.785 439.447L328.946 563.207L314.192 564.514L297.845 523.096L272.61 474.347L274.89 529.988L227.941 557.445L216.908 542.331L254.441 522.145L238.046 448.507L242.409 439.447L298.785 439.447Z" fill="#2F2E41"/>
<path d="M238.354 450.284C233.465 443.439 242.51 432.168 243.619 429.784C242.302 429.356 241.174 428.486 240.427 427.32C239.68 426.154 239.36 424.765 239.522 423.39L240 419.326L240.498 415.34L236.928 411.769L236.918 411.68L234.863 393.701L231.876 381.76C230.75 377.246 230.846 372.514 232.154 368.049C233.461 363.584 235.933 359.547 239.317 356.354L246.222 355.257L254.614 347.171H268.148L272.789 351.604C281.451 353.124 282.939 352.628 290.38 361.557L286.999 389.318L286.156 393.137L286.158 398.317L288.303 400.7C289.075 401.559 289.636 402.586 289.942 403.699C290.247 404.813 290.288 405.983 290.062 407.115L289.78 408.525C291.991 409.473 294.102 426.317 294.606 428.669L295.359 432.184C296.004 433.034 300.257 438.705 300.257 440.255C300.257 440.488 300.085 440.713 299.716 440.963C296.818 442.925 271.445 448.121 264.354 445.284C256.802 442.264 238.354 450.284 238.354 450.284Z" fill="#E6E6E6"/>
<path d="M211.235 367.913L217.185 375.191C219.425 377.93 222.184 380.199 225.304 381.868C228.423 383.537 231.842 384.572 235.364 384.915V384.915C237.546 385.12 239.742 384.709 241.703 383.731C243.665 382.753 245.313 381.246 246.463 379.38V379.38C248.005 376.84 248.524 373.81 247.917 370.901C247.309 367.993 245.62 365.424 243.191 363.713C235.819 358.532 231.797 350.503 226.002 353.106L224.755 350.044L208.415 336.841L195.022 348.333L211.235 367.913Z" fill="#E6E6E6"/>
<path d="M326.424 343.829L313.467 331.848L303.362 338.283L302.003 341.296C296.308 338.48 285.278 352.506 277.719 357.411C275.228 359.03 273.444 361.535 272.729 364.419C272.014 367.303 272.421 370.35 273.867 372.946V372.946C274.947 374.853 276.539 376.42 278.462 377.471C280.386 378.521 282.565 379.012 284.754 378.889C288.285 378.677 291.74 377.769 294.92 376.217C298.099 374.665 300.941 372.5 303.28 369.846L309.497 362.794L326.424 343.829Z" fill="#E6E6E6"/>
<path d="M260.468 343.265C268.769 343.265 275.498 336.536 275.498 328.235C275.498 319.934 268.769 313.205 260.468 313.205C252.167 313.205 245.438 319.934 245.438 328.235C245.438 336.536 252.167 343.265 260.468 343.265Z" fill="#FFB6B6"/>
<path d="M249.56 338.829C249.429 338.714 249.305 338.591 249.177 338.473C249.173 338.485 249.172 338.497 249.167 338.509L249.56 338.829Z" fill="#2F2E41"/>
<path d="M274.577 322.597C274.497 322.547 274.427 322.497 274.347 322.457C273.359 321.68 272.134 321.267 270.877 321.287C269.677 321.437 268.687 322.297 267.537 322.637C265.067 323.357 262.577 321.597 260.017 321.417H259.957C259.142 321.366 258.324 321.476 257.551 321.74C256.778 322.005 256.065 322.419 255.452 322.96C254.839 323.5 254.338 324.156 253.979 324.89C253.62 325.624 253.408 326.421 253.357 327.237C253.307 328.067 253.417 328.897 253.317 329.717C253.29 330.133 253.161 330.535 252.941 330.889C252.721 331.243 252.418 331.538 252.057 331.747C250.927 332.257 249.407 331.497 248.447 332.287C247.597 332.997 247.907 334.377 248.417 335.367C249.013 336.201 249.305 337.214 249.247 338.237C249.229 338.318 249.205 338.398 249.177 338.477C246.863 336.322 245.026 333.705 243.786 330.796C242.546 327.886 241.929 324.749 241.977 321.587C241.938 320.193 242.225 318.809 242.817 317.547C243.115 316.918 243.564 316.372 244.124 315.958C244.684 315.545 245.338 315.276 246.027 315.177C247.207 315.077 248.427 315.607 249.547 315.227C250.927 314.767 251.507 313.177 252.227 311.897C253.115 310.371 254.406 309.119 255.958 308.277C257.51 307.436 259.264 307.038 261.027 307.127C262.296 307.251 263.549 307.503 264.767 307.877L267.147 308.527C268.055 308.741 268.937 309.052 269.777 309.457C271.006 310.163 272.04 311.163 272.787 312.367C273.421 313.336 273.922 314.385 274.277 315.487C272.959 315.555 271.637 315.509 270.327 315.347C271.827 316.277 273.337 317.207 274.837 318.137C275.015 319.627 274.927 321.137 274.577 322.597V322.597Z" fill="#2F2E41"/>
<path d="M511.617 98.8642C538.917 98.8642 561.049 76.7327 561.049 49.4321C561.049 22.1315 538.917 0 511.617 0C484.316 0 462.185 22.1315 462.185 49.4321C462.185 76.7327 484.316 98.8642 511.617 98.8642Z" fill="#FF6584"/>
<path d="M622.257 26.027C619.397 16.447 611.317 10.197 601.557 8.82704C601.457 8.81704 601.347 8.83699 601.247 8.82704C601.11 8.78317 600.969 8.74974 600.827 8.72704C587.001 7.04515 573.013 10.0902 561.137 17.367C558.42 19.0652 555.578 20.5561 552.637 21.827C543.206 25.803 533.118 27.987 522.887 28.267C522.807 28.267 522.727 28.277 522.647 28.277C517.636 28.61 512.85 30.4794 508.94 33.6306C505.03 36.7818 502.187 41.0615 500.797 45.887C500.65 46.477 500.694 47.0986 500.925 47.6615C501.155 48.2244 501.558 48.6992 502.077 49.0169C503.57 50.2822 505.336 51.1826 507.237 51.6469C511.347 52.5169 515.467 53.3136 519.597 54.0369C527.667 55.4469 535.777 56.5869 543.927 57.4569C549.327 58.0369 554.737 58.4903 560.157 58.8169C571.337 59.5169 582.567 59.6869 593.767 59.3369C599.307 59.1669 604.647 58.9869 609.727 56.5369C613.42 54.7147 616.574 51.9607 618.877 48.5469C621.05 45.2673 622.478 41.5519 623.062 37.6614C623.646 33.771 623.371 29.8 622.257 26.027V26.027Z" fill="#F2F2F2"/>
<path d="M428.597 394.277C426.537 387.377 420.717 382.867 413.677 381.877C413.597 381.867 413.527 381.887 413.447 381.877C413.348 381.848 413.248 381.824 413.147 381.807C403.177 380.589 393.088 382.785 384.527 388.037C376.277 393.187 366.667 395.517 356.947 395.897C356.89 395.896 356.833 395.899 356.777 395.907C353.166 396.148 349.716 397.495 346.898 399.766C344.08 402.036 342.03 405.12 341.027 408.597C340.919 409.023 340.95 409.471 341.116 409.878C341.281 410.284 341.572 410.628 341.947 410.857C343.02 411.771 344.295 412.419 345.667 412.747C348.627 413.377 351.607 413.947 354.587 414.477C360.397 415.487 366.257 416.307 372.127 416.937C384.057 418.22 396.063 418.674 408.057 418.297C412.047 418.177 415.897 418.047 419.557 416.277C422.223 414.964 424.501 412.979 426.167 410.517C427.731 408.151 428.759 405.471 429.179 402.666C429.599 399.861 429.4 396.997 428.597 394.277V394.277Z" fill="#F2F2F2"/>
<path d="M112.597 312.277C110.537 305.377 104.717 300.867 97.6767 299.877C97.5967 299.867 97.5267 299.887 97.4467 299.877C97.3481 299.848 97.2479 299.824 97.1467 299.807C87.1767 298.589 77.0882 300.785 68.5267 306.037C60.2767 311.187 50.6667 313.517 40.9467 313.897C40.8898 313.896 40.833 313.899 40.7767 313.907C37.1657 314.148 33.7165 315.495 30.8984 317.766C28.0803 320.036 26.0301 323.12 25.0267 326.597C24.9191 327.023 24.9503 327.471 25.1158 327.878C25.2813 328.284 25.5724 328.628 25.9467 328.857C27.0205 329.771 28.2951 330.419 29.6667 330.747C32.6267 331.377 35.6067 331.947 38.5867 332.477C44.3967 333.487 50.2567 334.307 56.1266 334.937C68.0575 336.22 80.063 336.674 92.0567 336.297C96.0467 336.177 99.8967 336.047 103.557 334.277C106.223 332.964 108.501 330.979 110.167 328.517C111.731 326.151 112.759 323.471 113.179 320.666C113.599 317.861 113.4 314.997 112.597 312.277V312.277Z" fill="#F2F2F2"/>
<path d="M195.525 740.004C198.905 743.714 202.185 747.504 205.365 751.374C158.083 742.916 112.863 725.468 72.1546 699.974C71.3046 699.444 70.4646 698.914 69.6246 698.374C46.5256 683.662 25.0873 666.492 5.68457 647.164C9.08457 643.974 11.1846 642.074 11.1846 642.074C58.6346 591.114 63.9546 573.174 111.405 522.214C127.185 586.154 193.535 630.574 228.335 686.484C218.187 693.565 207.087 699.171 195.365 703.134C195.285 703.224 195.205 703.324 195.125 703.414C190.708 708.508 188.309 715.043 188.383 721.785C188.457 728.527 190.997 735.008 195.525 740.004Z" fill="#F2F2F2"/>
<path d="M604.504 559.864C576.088 611.965 535.859 656.684 487.044 690.434C486.004 691.154 484.964 691.874 483.914 692.584C449.337 715.993 411.105 733.482 370.784 744.334C368.848 742.844 366.674 741.691 364.354 740.924V740.904C366.954 736.044 369.554 731.184 372.154 726.324C363.174 735.484 347.514 737.054 336.894 729.874C338.64 725.931 341.133 722.362 344.234 719.364C341.634 720.554 337.594 718.834 336.474 715.834C335.064 712.084 336.664 707.934 338.344 704.294C356.874 664.214 417.584 599.324 418.534 598.314C417.884 598.714 390.164 616.124 374.084 614.834C373.264 609.914 351.934 603.904 349.554 601.404C359.244 579.614 404.184 539.074 404.184 539.074C451.634 488.114 456.954 470.174 504.404 419.214C517.904 473.914 568.404 514.324 604.504 559.864Z" fill="#F2F2F2"/>
<g opacity="0.2">
<path opacity="0.2" d="M0 198.051C0.29522 197.66 0.604618 197.284 0.905518 196.898L0.921875 196.745L0 198.051Z" fill="black"/>
<path opacity="0.2" d="M513.364 202.174C511.705 206.118 508.811 209.417 505.115 211.574C501.42 213.731 497.124 214.629 492.874 214.134C491.771 214.001 490.68 213.777 489.614 213.464C477.924 209.984 466.237 206.784 454.554 203.864C439.274 200.024 423.994 196.648 408.714 193.734C395.944 191.294 383.174 189.178 370.404 187.384C355.114 185.234 339.831 183.548 324.554 182.324C311.784 181.294 299.011 180.591 286.234 180.214C270.954 179.744 255.678 179.744 240.404 180.214C227.634 180.594 214.861 181.298 202.084 182.324C186.804 183.544 171.524 185.231 156.244 187.384C143.474 189.184 130.701 191.301 117.924 193.734C102.644 196.644 87.3641 200.021 72.0841 203.864C60.3941 206.794 48.7108 209.994 37.0342 213.464C35.9679 213.777 34.8775 214.001 33.7741 214.134C31.007 214.458 28.2026 214.192 25.5455 213.355C22.8884 212.517 20.4388 211.126 18.3578 209.274C16.2768 207.421 14.6116 205.149 13.4717 202.607C12.3318 200.065 11.743 197.31 11.7441 194.524V185.284C34.2941 164.894 66.1941 155.444 96.9541 152.224C133.534 148.394 170.704 151.664 207.084 146.234C236.744 141.804 266.214 131.594 295.994 135.144C321.944 138.224 345.594 151.524 371.184 156.844C403.284 163.514 437.174 157.384 468.984 165.314C481.454 168.414 493.674 173.864 502.584 183.114C507.747 188.442 511.458 195.004 513.364 202.174V202.174Z" fill="black"/>
</g>
<path d="M262.126 410.709C272.737 410.709 281.338 402.108 281.338 391.497C281.338 380.886 272.737 372.284 262.126 372.284C251.515 372.284 242.913 380.886 242.913 391.497C242.913 402.108 251.515 410.709 262.126 410.709Z" fill="#6C63FF"/>
<path d="M259.505 401.496C259.173 401.496 258.846 401.419 258.549 401.27C258.253 401.122 257.995 400.906 257.796 400.641L252.554 393.652C252.385 393.428 252.262 393.172 252.192 392.9C252.122 392.628 252.106 392.345 252.145 392.066C252.185 391.788 252.279 391.52 252.422 391.278C252.565 391.036 252.754 390.825 252.979 390.657C253.204 390.488 253.46 390.365 253.732 390.296C254.004 390.226 254.288 390.211 254.566 390.251C254.844 390.291 255.111 390.386 255.353 390.529C255.595 390.673 255.805 390.863 255.974 391.088L259.403 395.66L268.21 382.449C268.525 381.977 269.013 381.65 269.569 381.539C270.125 381.427 270.702 381.542 271.174 381.856C271.645 382.17 271.973 382.659 272.084 383.215C272.195 383.771 272.081 384.348 271.767 384.82L261.284 400.544C261.094 400.829 260.839 401.063 260.54 401.229C260.241 401.394 259.906 401.486 259.565 401.495L259.505 401.496Z" fill="white"/>
<path d="M498.354 503.644C497.444 518.594 496.537 533.548 495.634 548.504C494.034 574.924 492.434 601.348 490.834 627.774C489.574 648.664 488.311 669.551 487.044 690.434C486.004 691.154 484.964 691.874 483.914 692.584C484.524 682.614 485.127 672.644 485.724 662.674C487.324 636.244 488.924 609.821 490.524 583.404C492.134 556.814 493.744 530.228 495.354 503.644C495.464 501.714 498.464 501.714 498.354 503.644Z" fill="white"/>
<path d="M399.908 577.297L452.777 532.721L467.61 520.214C469.088 518.968 466.957 516.855 465.489 518.092L412.62 562.669L397.787 575.176C396.309 576.422 398.44 578.535 399.908 577.297Z" fill="white"/>
<path d="M406.659 661.14L445.21 627.124C446.661 625.844 444.532 623.729 443.089 625.003L404.538 659.019C403.087 660.299 405.216 662.414 406.659 661.14Z" fill="white"/>
<path d="M35.6591 646.14L74.2103 612.124C75.6608 610.844 73.5324 608.729 72.0889 610.003L33.5378 644.019C32.0872 645.299 34.2156 647.414 35.6591 646.14Z" fill="white"/>
<path d="M532.583 548.059C537.644 547.844 542.675 548.934 547.193 551.225C551.711 553.515 555.563 556.93 558.38 561.139C559.435 562.748 562.033 561.246 560.971 559.625C557.886 554.967 553.654 551.18 548.683 548.629C543.711 546.078 538.167 544.848 532.583 545.059C530.661 545.149 530.65 548.15 532.583 548.059V548.059Z" fill="white"/>
<path d="M112.471 604.333C138.124 616.542 158.669 637.379 170.514 663.202C171.318 664.955 173.905 663.432 173.105 661.688C163.686 641.346 148.958 623.919 130.471 611.24C125.234 607.646 119.722 604.47 113.985 601.742C112.251 600.917 110.727 603.502 112.471 604.333H112.471Z" fill="white"/>
<path d="M110.544 583.474C108.484 594.924 105.971 606.281 103.004 617.544C97.7618 637.436 91.1254 656.935 83.144 675.894C79.724 684.034 76.0607 692.061 72.154 699.974C71.304 699.444 70.464 698.914 69.624 698.374C78.5628 680.208 86.228 661.443 92.564 642.214C98.9833 622.75 104.022 602.857 107.644 582.684C107.984 580.784 110.884 581.594 110.544 583.474Z" fill="white"/>
<path d="M138.654 447.342C146.698 447.342 153.219 440.821 153.219 432.777C153.219 424.734 146.698 418.213 138.654 418.213C130.611 418.213 124.09 424.734 124.09 432.777C124.09 440.821 130.611 447.342 138.654 447.342Z" fill="#E6E6E6"/>
<path d="M136.668 440.357C136.416 440.357 136.168 440.299 135.943 440.186C135.718 440.074 135.522 439.91 135.372 439.709L131.398 434.411C131.14 434.067 131.03 433.635 131.091 433.21C131.151 432.785 131.379 432.401 131.722 432.143C132.066 431.885 132.498 431.775 132.923 431.835C133.349 431.896 133.733 432.123 133.99 432.467L136.59 435.933L143.266 425.918C143.384 425.74 143.536 425.587 143.712 425.468C143.889 425.348 144.088 425.265 144.297 425.223C144.506 425.18 144.722 425.18 144.931 425.221C145.141 425.262 145.34 425.344 145.517 425.463C145.695 425.581 145.847 425.733 145.966 425.911C146.084 426.088 146.167 426.287 146.208 426.497C146.249 426.706 146.249 426.921 146.207 427.131C146.165 427.34 146.082 427.539 145.962 427.716L138.016 439.636C137.872 439.851 137.679 440.029 137.452 440.155C137.225 440.28 136.972 440.349 136.713 440.357L136.668 440.357Z" fill="white"/>
<path d="M166.703 447.342C174.747 447.342 181.267 440.821 181.267 432.777C181.267 424.734 174.747 418.213 166.703 418.213C158.659 418.213 152.139 424.734 152.139 432.777C152.139 440.821 158.659 447.342 166.703 447.342Z" fill="#E6E6E6"/>
<path d="M164.716 440.357C164.465 440.357 164.217 440.299 163.992 440.186C163.767 440.074 163.571 439.91 163.42 439.709L159.447 434.411C159.189 434.067 159.079 433.635 159.139 433.21C159.2 432.785 159.427 432.401 159.771 432.143C160.115 431.885 160.547 431.775 160.972 431.835C161.398 431.896 161.781 432.123 162.039 432.467L164.639 435.933L171.315 425.918C171.433 425.74 171.584 425.587 171.761 425.468C171.938 425.348 172.137 425.265 172.346 425.223C172.555 425.18 172.771 425.18 172.98 425.221C173.189 425.262 173.389 425.344 173.566 425.463C173.744 425.581 173.896 425.733 174.015 425.911C174.133 426.088 174.216 426.287 174.257 426.497C174.298 426.706 174.298 426.921 174.256 427.131C174.214 427.34 174.13 427.539 174.011 427.716L166.064 439.636C165.921 439.851 165.727 440.029 165.501 440.155C165.274 440.28 165.02 440.349 164.761 440.357L164.716 440.357Z" fill="white"/>
<path d="M152.3 423.842C160.343 423.842 166.864 417.321 166.864 409.277C166.864 401.234 160.343 394.713 152.3 394.713C144.256 394.713 137.735 401.234 137.735 409.277C137.735 417.321 144.256 423.842 152.3 423.842Z" fill="#E6E6E6"/>
<path d="M150.313 416.858C150.062 416.858 149.813 416.799 149.589 416.687C149.364 416.574 149.168 416.411 149.017 416.21L145.044 410.912C144.786 410.568 144.675 410.136 144.736 409.71C144.797 409.285 145.024 408.901 145.368 408.644C145.712 408.386 146.144 408.275 146.569 408.336C146.994 408.397 147.378 408.624 147.636 408.968L150.235 412.433L156.912 402.419C157.151 402.063 157.521 401.817 157.942 401.734C158.362 401.651 158.798 401.738 159.154 401.976C159.511 402.213 159.759 402.582 159.844 403.002C159.929 403.422 159.844 403.858 159.608 404.216L151.661 416.136C151.517 416.352 151.324 416.53 151.097 416.655C150.871 416.781 150.617 416.85 150.358 416.857L150.313 416.858Z" fill="white"/>
<path d="M194.414 410.274L192.263 410.489L181.65 438.538H124.037L113.424 410.489L111.274 410.274C110.587 410.205 109.894 410.281 109.238 410.497C108.583 410.713 107.98 411.063 107.468 411.526C106.957 411.989 106.548 412.554 106.268 413.185C105.988 413.816 105.844 414.498 105.844 415.188V478.766C105.844 481.248 106.333 483.706 107.282 485.999C108.232 488.292 109.625 490.376 111.38 492.131C113.135 493.886 115.218 495.278 117.512 496.228C119.805 497.178 122.262 497.667 124.745 497.667H180.943C183.425 497.667 185.883 497.178 188.176 496.228C190.469 495.278 192.553 493.886 194.308 492.131C196.063 490.376 197.455 488.292 198.405 485.999C199.355 483.706 199.844 481.248 199.844 478.766V415.188C199.844 414.498 199.699 413.816 199.419 413.185C199.14 412.554 198.731 411.989 198.219 411.526C197.707 411.063 197.105 410.713 196.449 410.497C195.794 410.281 195.1 410.205 194.414 410.274V410.274Z" fill="#F2F2F2"/>
<path d="M275.622 346.786C274.911 344.695 272.169 344.3 269.96 344.306C265.036 344.321 260.117 344.53 255.205 344.934L255.697 344.365C254.392 343.815 252.955 343.653 251.56 343.901C250.205 344.286 249.091 345.842 249.704 347.11C250.164 348.063 251.449 348.668 251.356 349.722C251.2 351.506 247.747 350.913 247.21 352.621C247.136 352.961 247.17 353.314 247.305 353.634C247.44 353.954 247.672 354.224 247.967 354.407C248.564 354.761 249.235 354.974 249.928 355.029C257.236 356.089 264.695 355.128 271.495 352.248C272.683 351.816 273.768 351.139 274.677 350.261C275.126 349.816 275.45 349.26 275.616 348.65C275.782 348.04 275.784 347.397 275.622 346.786V346.786Z" fill="#E6E6E6"/>
</g>
<defs>
<clipPath id="clip0_1391_442">
<rect width="623.352" height="751.374" fill="white"/>
</clipPath>
</defs>
</svg>
