<svg width="39" height="39" viewBox="0 0 39 39" fill="none" xmlns="http://www.w3.org/2000/svg">
<path d="M1.94141 14.5667C4.0839 6.74441 11.1965 1 19.6405 1C29.7799 1 37.9995 9.28273 37.9995 19.5C37.9995 29.7173 29.7799 38 19.6405 38C11.1965 38 4.0839 32.2556 1.94141 24.4333" stroke="#F8E08E" stroke-width="2" stroke-linecap="round"/>
<path d="M23.3081 20.1279C25.6863 18.9147 27.3144 16.4453 27.3144 13.5962C27.3144 9.54765 24.0266 6.26562 19.9708 6.26562C15.915 6.26562 12.6272 9.54765 12.6272 13.5962C12.6272 16.4453 14.2554 18.9147 16.6336 20.1279C12.8678 21.1047 9.83965 23.6934 8.49107 27.0302C7.66329 29.0784 9.52229 30.9327 11.7314 30.9327L28.2102 30.9328C30.4193 30.9328 32.2783 29.0785 31.4506 27.0303C30.102 23.6935 27.0739 21.1047 23.3081 20.1279Z" fill="#F8E08E"/>
<path d="M1 19.2157H8.34363M8.34363 19.2157L5.28378 16.1323M8.34363 19.2157L5.28378 22.299" stroke="#F8E08E" stroke-width="2" stroke-linecap="round"/>
</svg>
