<svg width="19" height="18" viewBox="0 0 19 18" fill="none" xmlns="http://www.w3.org/2000/svg">
<path fill-rule="evenodd" clip-rule="evenodd" d="M0 2C0 0.9 0.9 0 2 0H9.5C9.77614 0 10 0.223858 10 0.5V1.5C10 1.77614 9.77614 2 9.5 2H2.5C2.22386 2 2 2.22386 2 2.5V15.5C2 15.7761 2.22386 16 2.5 16H9.5C9.77614 16 10 16.2239 10 16.5V17.5C10 17.7761 9.77614 18 9.5 18H2C0.9 18 0 17.1 0 16V2ZM12.9689 8C13.4143 8 13.6374 7.46143 13.3224 7.14645L11.9936 5.81755C11.7983 5.62229 11.7983 5.30571 11.9936 5.11045L12.7004 4.40355C12.8957 4.20829 13.2123 4.20829 13.4076 4.40355L17.6504 8.64645C17.8457 8.84171 17.8457 9.15829 17.6504 9.35355L13.4076 13.5964C13.2123 13.7917 12.8957 13.7917 12.7004 13.5964L11.9936 12.8896C11.7983 12.6943 11.7983 12.3777 11.9936 12.1824L13.3224 10.8536C13.6374 10.5386 13.4143 10 12.9689 10H8.09C7.81386 10 7.59 9.77614 7.59 9.5V8.5C7.59 8.22386 7.81386 8 8.09 8H12.9689Z" fill="#F8E08E"/>
</svg>
