<?xml version="1.0" encoding="utf-8"?>
<!-- Generator: Adobe Illustrator 24.3.0, SVG Export Plug-In . SVG Version: 6.00 Build 0)  -->
<svg version="1.1" id="Capa_1" xmlns="http://www.w3.org/2000/svg" xmlns:xlink="http://www.w3.org/1999/xlink" x="0px" y="0px"
	 viewBox="0 0 143.9 144" style="enable-background:new 0 0 143.9 144;" xml:space="preserve">
<style type="text/css">
	.st0{fill:#E5C34D;}
	.st1{fill:#003A70;}
	.st2{fill:#B5B5C6;}
	.st3{fill:#E4E4D7;}
	.st4{fill:#FFFFFF;}
	.st5{fill:#71CC98;}
	.st6{fill:#007D8A;}
	.st7{fill:#91835C;}
	.st8{fill:#F8E08E;}
	.st9{fill:#E5A977;}
	.st10{fill:#D47147;}
	.st11{fill:#E8A362;}
	.st12{fill:#241E1E;}
	.st13{fill:#231F1E;}
	.st14{fill:#B1603F;}
	.st15{fill:#41392E;}
	.st16{fill:#2D2825;}
	.st17{fill:#D1A683;}
	.st18{fill:#F8CACA;}
	.st19{fill:#CC878C;}
	.st20{fill:#F4A7AF;}
	.st21{fill:#3A2218;}
	.st22{fill:#74D56E;}
	.st23{fill:#408E38;}
	.st24{fill:#002A00;}
	.st25{fill:#967157;}
	.st26{fill:#2C140A;}
	.st27{fill:#CCA285;}
	.st28{fill:#825B40;}
	.st29{fill:#E73E37;}
	.st30{fill:#AC202D;}
	.st31{fill:#F39200;}
	.st32{fill:#CC3333;}
	.st33{fill:#DF342D;}
	.st34{opacity:0.1;}
	.st35{fill:#5CA077;}
	.st36{fill:#C6B372;}
</style>
<path class="st4" d="M114.2,97.5c-8.7-8.7-17.4-17.4-26.1-26.1c-1.2-1.2-2.4-2.4-3.6-3.6c5.4-5.4,10.8-10.8,16.1-16.1
	c0.6-0.6,1.1-1.1,1.7-1.7c1.6,0.7,3.4,0.5,4.9-1c0.9-0.9,1.6-1.8,2.5-2.8c2-2.3,4.1-4.5,6-6.8c1-1.2,1.5-2.7,1.1-4.3
	c-0.3-1.1-1.1-1.9-1.9-2.7c-1.7-1.7-3.4-3.6-6-3c-1.4,0.4-2.5,1.5-3.6,2.5c-1.4,1.2-2.8,2.5-4.2,3.7c-1.2,1.1-2.5,2.2-3.7,3.3
	c-1.6,1.5-1.9,3.3-1.2,5c-6,6-11.9,11.9-17.9,17.9l0,0c-3.3-3.3-6.7-6.7-10-10c2.1-7.3,0-15.5-5.4-20.9c-5.8-5.8-14.6-7.7-22.3-5
	c-1.7,0.6-2.5,2.8-1.1,4.2c2.7,2.7,5.4,5.4,8.1,8.1c-2.5,2.5-5.1,5.1-7.6,7.6c-2.7-2.7-5.4-5.4-8.1-8.1c-1.4-1.4-3.6-0.6-4.2,1.1
	c-2.7,7.7-0.8,16.5,5,22.3c5.4,5.4,13.6,7.5,20.9,5.4c1.7,1.7,3.4,3.4,5.1,5.1c0.7,0.7,1.5,0.8,2.2,0.7c-1.3,1.3-2.5,2.5-3.8,3.8
	c-7.3,7.3-14.7,14.7-22,22c-1.2-0.8-2.8-0.8-4.1,0c-1,0.7-1.8,1.7-2.7,2.6c-0.4,0.4-0.8,0.7-1.1,1.2c-0.8,1.2-0.7,2.8,0,4.1
	c1,1.5,2.7,2.8,3.9,4.1c2.1,2.1,4.1,4.1,6.2,6.2c1.7,1.7,3.7,4.3,6.5,3.1c1.2-0.6,2.1-1.8,3-2.7c0.3-0.3,0.6-0.6,0.8-0.8
	c1.1-1.2,1.3-2.9,0.5-4.3c0-0.1-0.1-0.1-0.1-0.2c0.2-0.2,0.4-0.4,0.6-0.6c1.5-1.5,2.9-2.9,4.4-4.4c6.9-6.9,13.9-13.9,20.8-20.8
	c-0.2,0.7,0,1.5,0.7,2.2c4.7,4.7,9.4,9.4,14.1,14.1c2.8,2.8,5.7,5.7,8.5,8.5c0.7,0.7,1.3,1.4,2,2c1.9,1.8,4.2,2.9,6.8,3.2
	c4.2,0.3,8.4-2.2,10.1-6C118,105.3,117.2,100.7,114.2,97.5z"/>
<g>
	<g>
		<path class="st5" d="M75.2,82.6c0.6,0.6,1.4,0.7,1.8,0.3l1.3-1.3c0.4-0.4,0.3-1.3-0.3-1.8l-0.2-0.2c-0.6-0.6-0.7-1.4-0.3-1.8
			l1.5-1.5c0.4-0.4,0.3-1.3-0.3-1.8l-2.2-2.2L102,46.8l0.5,0.5c0.8,0.8,2.1,0.8,2.8-0.1l8.6-9.6c0.7-0.8,0.7-1.9-0.1-2.7l-2.6-2.6
			c-0.7-0.7-1.9-0.8-2.7-0.1L99,40.9c-0.8,0.7-0.9,2-0.1,2.8l0.5,0.5L74,69.7l-2.2-2.2c-0.6-0.6-1.4-0.7-1.8-0.3l-1.5,1.5
			c-0.4,0.4-1.3,0.3-1.8-0.3l-0.2-0.2c-0.6-0.6-1.4-0.7-1.8-0.3l-1.3,1.3c-0.4,0.4-0.3,1.3,0.3,1.8c0.6,0.6,0.7,1.4,0.3,1.8
			l-27.8,27.8c-0.4,0.4-1.3,0.3-1.8-0.3c-0.6-0.6-1.4-0.7-1.8-0.3l-2.9,2.9c-0.4,0.4-0.3,1.3,0.3,1.8l11.6,11.6
			c0.6,0.6,1.4,0.7,1.8,0.3l2.9-2.9c0.4-0.4,0.3-1.3-0.3-1.8c-0.6-0.6-0.7-1.4-0.3-1.8l27.8-27.8C73.8,82,74.6,82.1,75.2,82.6z
			 M40.5,101c-0.2,0.2-0.5,0.1-0.7-0.2c-0.3-0.3-0.3-0.6-0.2-0.7l23.7-23.7c0.2-0.2,0.5-0.1,0.7,0.2c0.3,0.3,0.3,0.6,0.2,0.7
			L40.5,101z M40.8,106.3c-0.2,0.2-0.5,0.1-0.8-0.1c-0.3-0.3-0.3-0.6-0.1-0.8l28.6-28.6c0.2-0.2,0.5-0.1,0.8,0.1
			c0.3,0.3,0.3,0.6,0.1,0.8L40.8,106.3z M46.1,106.7c-0.2,0.2-0.5,0.1-0.7-0.2c-0.3-0.3-0.3-0.6-0.2-0.7L68.9,82
			c0.2-0.2,0.5-0.1,0.7,0.2c0.3,0.3,0.3,0.6,0.2,0.7L46.1,106.7z"/>
	</g>
	<g>
		<g>
			<path class="st5" d="M60.9,68.5c0.7-1.5,2.6-3.2,4.2-3.3c0.7,0,1.4,0.1,2.1,0.4c0.1,0.1,0.3,0.2,0.5,0.3c0.6-0.6,1.2-1.2,2.1-1.4
				c1.4-0.3,2.8,0.2,3.8,1.2c0.2,0.1,0.3,0.3,0.5,0.5c0.5-0.5,0.9-0.9,1.4-1.4c0.4-0.4,0.8-0.8,1.2-1.2L65.5,52.5
				c2.5-6.7,1-14.5-4.3-19.8S48,25.8,41.4,28.3l9.9,9.9L40.1,49.3l-9.9-9.9c-2.5,6.7-1,14.5,4.3,19.8s13.2,6.8,19.8,4.3l6.2,6.2
				C60.6,69.3,60.7,68.9,60.9,68.5z"/>
		</g>
		<g>
			<path class="st5" d="M112.4,99.3L82.7,69.6c-0.9,0.9-1.7,1.7-2.6,2.6c0.4,0.4,0.8,0.9,1.1,1.4c0.8,1.5,0.7,3.2-0.4,4.4
				c-0.1,0.2-0.3,0.4-0.5,0.6c0.3,0.4,0.5,1,0.6,1.3c0.3,1.4-0.1,2.6-1.1,3.6c-0.5,0.6-1.1,1.2-1.8,1.6c-0.5,0.3-1,0.4-1.6,0.4
				l24.8,24.8c3.1,3.1,8.1,3.1,11.1,0C115.5,107.4,115.5,102.4,112.4,99.3z"/>
		</g>
	</g>
</g>
<g>
	<path class="st4" d="M84.6,136.7c-0.3-1.5-1.5-2.8-3-3.1c-0.8-0.2-1.6,0-2.5,0.1c-0.8,0.1-1.7,0.2-2.5,0.2c-1.6,0.1-3.2,0-4.8,0.2
		c-2.1,0.2-3.7,1.8-3.8,3.9c0,0.7,0,1.3,0,2c0,2,1.4,3.7,3.4,4c0.2,0,0.3,0.1,0.5,0.1c1.6,0,3.3-0.1,4.9-0.2
		c0.8-0.1,1.6-0.1,2.3-0.2c0.9-0.1,1.9-0.1,2.8-0.4c1-0.2,1.8-0.9,2.4-1.7c0.6-1,0.7-1.9,0.5-3C84.8,138,84.7,137.4,84.6,136.7z"/>
	<path class="st4" d="M59.5,133.1c-0.7-0.4-1.6-0.5-2.4-0.7c-0.8-0.2-1.6-0.4-2.4-0.6c-1.5-0.4-2.9-0.9-4.4-1.4
		c-0.8-0.3-1.7-0.3-2.5,0c-1.3,0.4-2,1.3-2.5,2.5c-0.2,0.6-0.5,1.2-0.7,1.7c-0.5,1.4-0.2,3.1,0.9,4.2c0.8,0.8,1.9,1.1,2.9,1.4
		c0.8,0.3,1.6,0.5,2.4,0.8c1.8,0.5,3.5,1,5.3,1.4c0.2,0,0.4,0.1,0.6,0.1c0.9,0.1,1.7,0,2.5-0.5c0.9-0.5,1.5-1.4,1.8-2.4
		c0.2-0.6,0.3-1.2,0.4-1.9C61.6,135.8,61.1,134.1,59.5,133.1z"/>
	<path class="st4" d="M106.3,128.6c-0.8-1.4-2.2-2.3-3.8-2.2c-1,0.1-1.8,0.6-2.7,1c-0.7,0.4-1.4,0.7-2.2,1.1c-0.3,0.2-0.7,0.3-1,0.5
		c-0.2,0.1-0.4,0.2-0.6,0.3c0,0-0.1,0-0.1,0c0,0,0,0,0,0c-0.7,0.3-1.5,0.6-2.2,0.9c-1.2,0.4-2.1,1.1-2.6,2.3
		c-0.4,0.9-0.4,1.8-0.1,2.7c0.2,0.6,0.4,1.3,0.7,1.9c0.1,0.2,0.1,0.3,0.2,0.5c0.4,0.8,0.9,1.5,1.7,1.9c1,0.5,2.1,0.6,3.2,0.2
		c1.6-0.6,3.1-1.2,4.6-1.9c1.4-0.6,2.8-1.3,4.2-2.1c2-1.1,2.6-3.5,1.6-5.4C106.9,129.6,106.6,129.1,106.3,128.6z"/>
	<path class="st4" d="M36.9,123.3c-0.7-0.4-1.3-0.9-2-1.4c-0.3-0.2-0.5-0.4-0.8-0.6c0,0-0.1-0.1-0.1-0.1c-0.2-0.1-0.3-0.2-0.5-0.4
		c-0.6-0.5-1.2-1-1.9-1.5c-0.8-0.7-1.8-1.1-2.9-1.1c-1,0-2,0.5-2.7,1.2c-0.4,0.4-0.8,0.9-1.2,1.4c-1.2,1.4-1.6,3.2-0.7,4.9
		c0.5,0.8,1.3,1.4,2.1,2c0.8,0.6,1.6,1.3,2.4,1.9c1.4,1,2.8,2,4.2,3c0.2,0.1,0.3,0.2,0.5,0.2c1.8,0.7,3.8,0.1,4.9-1.6
		c0.3-0.5,0.7-1.1,1-1.6c0.9-1.5,0.8-3.5-0.4-4.8C38.4,124.2,37.6,123.8,36.9,123.3z"/>
	<path class="st4" d="M123.9,113.3c-0.5-0.5-1.1-0.9-1.7-1c-1.1-0.3-2.2-0.1-3.1,0.4c-0.7,0.4-1.3,1.2-1.8,1.8
		c-0.5,0.5-1,1.1-1.6,1.6c-1.1,1.1-2.2,2.1-3.3,3.1c-0.9,0.8-1.5,1.9-1.5,3.1c0,1.1,0.4,1.9,1.1,2.7c0.4,0.5,0.9,1,1.3,1.6
		c0.1,0.1,0.2,0.3,0.4,0.3c0.7,0.6,1.6,0.9,2.4,0.9c1.2,0,2.1-0.5,3-1.3c1.1-1,2.2-2,3.3-3.1c1.1-1,2.1-2.1,3.1-3.3
		c0.7-0.8,1.1-1.7,1.1-2.8c0-1.1-0.5-2.1-1.2-2.8C124.9,114.1,124.4,113.7,123.9,113.3z"/>
	<path class="st4" d="M21.5,108.3c-0.5-0.7-0.9-1.3-1.4-2c-0.8-1.3-1.6-2.5-2.3-3.8c-1.1-2-3.4-2.7-5.5-1.6
		c-0.5,0.3-1.1,0.6-1.6,0.9c-1.4,0.7-2.3,2.1-2.2,3.7c0,1.2,0.7,2.1,1.2,3.1c0.4,0.7,0.9,1.4,1.3,2.1c1,1.5,2,3,3.1,4.5
		c0.1,0.1,0.2,0.2,0.2,0.3c0,0.1,0.1,0.1,0.1,0.2c0.7,0.8,1.7,1.2,2.7,1.3c1.1,0.1,2-0.4,2.8-1c0.5-0.4,1-0.8,1.4-1.1
		c1.2-1,1.8-2.7,1.3-4.2C22.5,109.6,22,109,21.5,108.3z"/>
	<path class="st4" d="M136.4,93.2c-0.6-0.2-1.1-0.4-1.7-0.6c-1.5-0.6-3.2-0.2-4.3,1c-0.7,0.7-0.9,1.6-1.3,2.5c0,0,0,0.1,0,0.1
		c0,0,0,0.1-0.1,0.1c-0.1,0.1-0.1,0.3-0.2,0.4c-0.2,0.4-0.4,0.8-0.5,1.2c-0.7,1.4-1.4,2.8-2.1,4.2c-1.1,2-0.5,4.3,1.4,5.5
		c0.6,0.4,1.2,0.7,1.7,1c0.2,0.1,0.4,0.2,0.5,0.2c1.9,0.7,3.9,0,5-1.8c0.8-1.3,1.4-2.7,2.1-4.1c0.7-1.5,1.4-3.1,2-4.7
		c0.4-1,0.3-2.1-0.2-3.1C138.2,94.2,137.4,93.6,136.4,93.2z"/>
	<path class="st4" d="M12.5,91.1c0.1-0.8-0.2-1.6-0.5-2.4c-0.2-0.8-0.4-1.6-0.6-2.5c-0.4-1.5-0.6-3.1-0.9-4.7
		c-0.3-1.8-2.2-3.3-4-3.2c-0.6,0.1-1.3,0.2-1.9,0.3c-0.7,0.1-1.3,0.2-1.9,0.5c-0.9,0.5-1.6,1.4-1.8,2.3c-0.3,1.1,0,2.2,0.2,3.3
		c0.1,0.8,0.3,1.6,0.5,2.5c0.4,1.8,0.8,3.6,1.4,5.3C2.9,92.8,3,93,3.1,93.2c0.9,1.7,2.7,2.7,4.6,2.1c0.6-0.2,1.2-0.4,1.7-0.6
		C11.2,94.2,12.4,93,12.5,91.1z"/>
	<path class="st4" d="M143.9,73.3c-0.2-2.1-1.8-3.7-3.9-3.8c-0.6,0-1.2,0-1.8,0c-1.6,0-3,0.7-3.7,2.2c-0.4,0.9-0.4,1.9-0.5,2.9
		c0,0.8-0.1,1.5-0.1,2.3c-0.1,0.8-0.1,1.5-0.2,2.3c0,0.4-0.1,0.7-0.1,1.1c0,0.1,0,0.2,0,0.2c0,0.3-0.1,0.5-0.1,0.8
		c-0.2,1.3,0,2.5,0.9,3.5c0.5,0.6,1.3,1.1,2.1,1.2c0.6,0.1,1.3,0.2,2,0.3c0.1,0,0.3,0,0.4,0c0.1,0,0.2,0,0.3,0.1
		c2,0.2,3.8-1.4,4.1-3.2c0.3-1.7,0.5-3.4,0.6-5.1C143.7,76.6,144,74.9,143.9,73.3z"/>
	<path class="st4" d="M4,71.7c0.7,0,1.3,0.1,2,0.1c0.2,0,0.4,0,0.5-0.1c0.8-0.1,1.6-0.4,2.3-1.1c0.8-0.8,1.1-1.8,1.2-3
		c0.1-0.7,0.1-1.5,0.2-2.2c0-0.4,0.1-0.8,0.1-1.2c0-0.2,0-0.4,0.1-0.6c0-0.1,0-0.1,0-0.1c0,0,0-0.1,0-0.1c0.1-0.8,0.2-1.5,0.4-2.3
		c0.2-1,0.5-2.1,0.2-3.1c-0.4-1.5-1.6-2.5-3.1-2.9c-0.6-0.1-1.2-0.3-1.8-0.4c-2.2-0.4-4.3,0.9-4.8,3.1c-0.3,1.7-0.6,3.4-0.8,5.1
		C0.2,64.6,0,66.2,0,67.8C0,70,1.8,71.5,4,71.7z"/>
	<path class="st4" d="M132.5,53.8c-1.1,1.8-0.1,4,0.3,5.9c0.2,0.8,0.3,1.7,0.5,2.5c0.1,0.5,0.1,0.9,0.2,1.4c0.1,0.5,0,0.1,0,0
		c0,0.3,0.1,0.6,0.1,0.9c0,0.1,0,0.2,0.1,0.3c0,0.1,0,0.3,0,0.4c0.3,1.8,2.2,3.2,4,3.1c0.6,0,1.3-0.1,1.9-0.2c0.7-0.1,1.3-0.2,2-0.5
		c0.9-0.5,1.6-1.4,1.8-2.4c0.2-0.8,0.1-1.5,0-2.3c-0.1-1-0.3-2-0.4-3c-0.3-1.6-0.6-3.2-0.9-4.7c-0.2-0.8-0.3-1.5-0.8-2.2
		c-0.7-1-1.8-1.7-3-1.7c-0.9-0.1-1.7,0.2-2.5,0.5C134.3,52.2,133.2,52.6,132.5,53.8z"/>
	<path class="st4" d="M8.5,48.2c0.6,0.3,1.2,0.5,1.8,0.8c2,0.7,4-0.5,4.9-2.3c0.6-1.4,1.4-2.8,2.1-4.2c0.3-0.6,0.7-1.3,1.1-1.9
		c0.6-0.9,1.1-1.8,1.2-2.9c0.1-1.6-0.8-2.9-2.1-3.7c-0.5-0.3-1-0.7-1.5-1c-0.9-0.5-2.1-0.7-3.1-0.4c-1.1,0.3-1.9,1-2.4,2
		c-0.8,1.3-1.6,2.7-2.3,4.1c-0.8,1.5-1.6,3-2.2,4.6c-0.4,1.1-0.2,2.3,0.3,3.2C6.7,47.4,7.5,47.8,8.5,48.2z"/>
	<path class="st4" d="M124.8,39.6c0.9,1.5,1.8,3,2.6,4.6c0.1,0.2,0.2,0.3,0.3,0.4c0.5,0.7,1.2,1.2,2.1,1.5c1,0.3,2,0.1,3-0.3
		c0.6-0.3,1.2-0.5,1.7-0.8c1.6-0.8,2.5-2.7,2.1-4.4c-0.2-0.8-0.7-1.6-1.1-2.3c-0.4-0.7-0.7-1.3-1.1-2c-0.8-1.3-1.6-2.6-2.4-3.9
		c-0.5-0.8-1-1.7-1.9-2.2c-0.9-0.5-2-0.7-3.1-0.4c-0.9,0.2-1.5,0.8-2.2,1.3c-0.2,0.1-0.3,0.2-0.5,0.4c-1.1,0.8-1.8,1.8-1.8,3.2
		c0,1.1,0.4,1.9,0.9,2.8C123.8,38,124.3,38.8,124.8,39.6z"/>
	<path class="st4" d="M21.8,28.8c0.1,0.1,0.3,0.2,0.4,0.3c0.7,0.5,1.5,0.8,2.5,0.8c1.2-0.1,2.1-0.6,2.9-1.4c1.1-1.1,2.2-2.1,3.3-3.1
		c0.6-0.5,1.2-1,1.7-1.5c0.7-0.5,1.4-1,1.8-1.8c0.8-1.4,0.6-3.1-0.3-4.4c-0.5-0.6-0.9-1.3-1.4-1.9c-0.7-0.8-1.7-1.3-2.8-1.3
		c-1.2,0-2,0.4-2.9,1.1c-2.4,1.9-4.8,3.9-6.8,6.2c-1.5,1.6-1.5,4.1,0.1,5.7C20.8,28,21.3,28.4,21.8,28.8z"/>
	<path class="st4" d="M114,26.5c0.1,0.1,0.3,0.2,0.4,0.3c0.7,0.5,1.5,0.8,2.5,0.8c1,0,1.9-0.5,2.6-1.2c0.5-0.4,0.9-0.9,1.3-1.4
		c1.3-1.4,1.7-3.3,0.7-5c-0.4-0.7-1.1-1.2-1.7-1.8c-0.6-0.5-1.2-1-1.8-1.5c-1.3-1.1-2.7-2.1-4.1-3.2c-0.6-0.5-1.2-0.9-2-1.1
		c-1-0.2-2.2,0-3,0.6c-0.9,0.6-1.4,1.5-2,2.4c-0.8,1.1-1.1,2.3-0.8,3.6c0.3,1.2,1.2,1.9,2.2,2.6c0.4,0.3,0.7,0.5,1.1,0.8
		c0.1,0.1,0.2,0.2,0.3,0.3c0.1,0.1,0.2,0.1,0.2,0.2C111.4,24.2,112.8,25.3,114,26.5z"/>
	<path class="st4" d="M47.5,14.9c0.1,0,0.1-0.1,0.2-0.1c0,0,0.4-0.1,0.4-0.2c0.4-0.2,0.8-0.3,1.2-0.5c0.7-0.3,1.4-0.5,2.1-0.8
		c1-0.3,2-0.6,2.8-1.3c1.2-1.1,1.5-2.7,1.1-4.2c-0.2-0.6-0.3-1.2-0.5-1.7c-0.7-2.2-2.9-3.3-5.1-2.6c-1.5,0.5-3,1-4.4,1.6
		c-1.6,0.6-3.2,1.2-4.7,2.1c-1,0.5-1.7,1.5-1.9,2.5c-0.2,1,0,2,0.4,2.9c0.3,0.6,0.6,1.2,0.9,1.8c0.1,0.2,0.2,0.3,0.3,0.4
		c0.5,0.7,1.2,1.2,2,1.4c1.1,0.3,2.1,0.1,3.1-0.4C46.1,15.5,46.8,15.2,47.5,14.9z"/>
	<path class="st4" d="M96,14.8c0.2,0.1,0.3,0.1,0.5,0.1c1.7,0.3,3.5-0.5,4.2-2c0.3-0.6,0.5-1.2,0.8-1.7c0.3-0.7,0.5-1.3,0.5-2.1
		c0-1-0.5-2-1.2-2.8c-0.7-0.7-1.7-1-2.6-1.4c-0.7-0.3-1.5-0.6-2.2-0.8c-1.5-0.5-3-1-4.5-1.4c-0.9-0.3-1.7-0.5-2.7-0.4
		c-1.1,0.2-2.1,0.8-2.7,1.7c-0.5,0.7-0.6,1.6-0.8,2.5c-0.3,1.3-0.4,2.5,0.3,3.7c1.1,1.8,3.5,2,5.4,2.6C92.7,13.5,94.4,14.1,96,14.8z
		"/>
	<path class="st4" d="M73.4,10c0.9,0,1.8,0.1,2.7-0.3c1.6-0.7,2.3-2.1,2.4-3.8c0-0.6,0.1-1.3,0.1-1.9c0-1-0.4-2-1.1-2.7
		c-0.8-0.8-1.8-1.1-2.9-1.2c-3-0.2-6.1-0.1-9.1,0.2C64.1,0.5,63,1,62.2,2.1c-0.4,0.7-0.7,1.5-0.6,2.3c0,0.7,0.2,1.3,0.2,2
		c0,0.1,0,0.2,0.1,0.3c0,0.1,0,0.3,0,0.4c0.2,1,0.8,1.9,1.7,2.4c0.8,0.6,1.8,0.7,2.8,0.6c1.7-0.1,3.3-0.2,5-0.2
		C72.1,10,72.7,10,73.4,10z"/>
</g>
<g>
	<g>
		<path class="st5" d="M71.9,141.5C71.9,141.5,71.9,141.5,71.9,141.5c-0.8,0-1.4-0.7-1.4-1.5l0-2.1c0-0.8,0.7-1.4,1.4-1.4
			c2.9,0,5.7-0.2,8.6-0.6c0.8-0.1,1.5,0.4,1.6,1.2l0.3,2c0.1,0.8-0.4,1.5-1.2,1.7C78.1,141.3,75,141.5,71.9,141.5z M56.8,139.9
			c-3.1-0.7-6.1-1.6-9-2.6c-0.8-0.3-1.1-1.1-0.8-1.9l0.8-1.9c0.3-0.7,1.1-1.1,1.8-0.8c2.7,1,5.4,1.8,8.2,2.4
			c0.8,0.2,1.3,0.9,1.1,1.7l-0.4,2C58.3,139.5,57.6,140.1,56.8,139.9z M94.1,136.4l-0.7-2c-0.3-0.7,0.1-1.5,0.9-1.8
			c2.7-1,5.3-2.2,7.8-3.5c0.7-0.4,1.6-0.1,1.9,0.6l1,1.8c0.4,0.7,0.1,1.6-0.6,2c-2.8,1.5-5.6,2.8-8.5,3.8
			C95.2,137.5,94.4,137.1,94.1,136.4z M34.2,130.5c-2.6-1.7-5.1-3.6-7.5-5.6c-0.6-0.5-0.7-1.4-0.1-2l1.4-1.5c0.5-0.6,1.4-0.6,2-0.1
			c2.2,1.9,4.5,3.6,6.9,5.1c0.7,0.4,0.9,1.3,0.5,2l-1.1,1.8C35.8,130.7,34.9,130.9,34.2,130.5z M115,124.7l-1.3-1.6
			c-0.5-0.6-0.4-1.5,0.2-2c2.2-1.9,4.2-3.9,6.1-6c0.5-0.6,1.4-0.7,2-0.1l1.6,1.3c0.6,0.5,0.7,1.4,0.1,2c-2.1,2.3-4.3,4.5-6.7,6.6
			C116.4,125.4,115.5,125.3,115,124.7z M16.3,113.8c-1.9-2.5-3.6-5.1-5.1-7.8c-0.4-0.7-0.1-1.6,0.6-2l1.8-1c0.7-0.4,1.5-0.1,1.9,0.6
			c1.4,2.5,3,4.9,4.7,7.2c0.5,0.6,0.4,1.5-0.3,2l-1.6,1.3C17.7,114.5,16.8,114.4,16.3,113.8z M130.6,106.5l-1.8-1
			c-0.7-0.4-0.9-1.3-0.5-1.9c1.4-2.5,2.6-5.1,3.7-7.8c0.3-0.7,1.1-1.1,1.8-0.8l1.9,0.7c0.8,0.3,1.1,1.1,0.8,1.9
			c-1.1,2.9-2.5,5.7-4,8.5C132.2,106.6,131.3,106.9,130.6,106.5z M5.3,92c-0.9-3-1.6-6.1-2.1-9.1c-0.1-0.8,0.4-1.5,1.2-1.6l2-0.3
			c0.8-0.1,1.5,0.4,1.6,1.2c0.4,2.8,1.1,5.6,1.9,8.4c0.2,0.8-0.2,1.5-0.9,1.8l-2,0.6C6.3,93.1,5.5,92.7,5.3,92z M138.9,84l-2-0.4
			c-0.8-0.1-1.3-0.9-1.2-1.6c0.4-2.8,0.7-5.7,0.7-8.5c0-0.8,0.6-1.4,1.4-1.4h2.1c0.8,0,1.5,0.7,1.4,1.5c-0.1,3.1-0.3,6.3-0.8,9.3
			C140.4,83.6,139.7,84.1,138.9,84z M6,69.3l-2.1-0.1c-0.8,0-1.4-0.7-1.4-1.5c0.2-3.1,0.6-6.2,1.2-9.3c0.2-0.8,0.9-1.3,1.7-1.1
			l2,0.4c0.8,0.2,1.2,0.9,1.1,1.7C8,62.2,7.6,65,7.4,67.9C7.4,68.7,6.7,69.3,6,69.3z M136,64.6c-0.3-2.8-0.8-5.7-1.5-8.4
			c-0.2-0.8,0.2-1.5,1-1.7l2-0.5c0.8-0.2,1.6,0.2,1.8,1c0.8,3,1.3,6.1,1.7,9.2c0.1,0.8-0.5,1.5-1.3,1.6l-2.1,0.2
			C136.8,66,136.1,65.4,136,64.6z M11,46.6l-1.9-0.8c-0.7-0.3-1.1-1.2-0.8-1.9c1.3-2.9,2.7-5.6,4.4-8.3c0.4-0.7,1.3-0.9,2-0.4
			l1.7,1.1c0.7,0.4,0.8,1.3,0.4,2c-1.5,2.4-2.8,5-4,7.6C12.5,46.6,11.7,46.9,11,46.6z M129.5,42.9c-1.3-2.5-2.8-5-4.4-7.4
			c-0.4-0.6-0.3-1.5,0.3-2l1.7-1.2c0.7-0.5,1.6-0.3,2,0.3c1.8,2.6,3.4,5.3,4.8,8.1c0.4,0.7,0.1,1.6-0.7,1.9l-1.9,0.9
			C130.7,43.9,129.8,43.6,129.5,42.9z M23.6,27.1l-1.5-1.4c-0.6-0.5-0.6-1.5-0.1-2.1c2.2-2.2,4.5-4.3,7-6.3c0.6-0.5,1.6-0.4,2,0.3
			l1.2,1.7c0.5,0.6,0.3,1.5-0.3,2C29.7,23,27.6,25,25.6,27C25,27.6,24.1,27.6,23.6,27.1z M115.8,24.7c-2.1-1.9-4.3-3.8-6.7-5.4
			c-0.6-0.5-0.8-1.3-0.4-2l1.2-1.7c0.4-0.7,1.4-0.8,2-0.4c2.5,1.8,5,3.8,7.3,5.9c0.6,0.5,0.6,1.5,0,2.1l-1.4,1.5
			C117.3,25.2,116.4,25.3,115.8,24.7z M42.1,13.1l-0.9-1.8c-0.4-0.7-0.1-1.6,0.6-1.9c2.8-1.4,5.7-2.5,8.7-3.5c0.8-0.2,1.6,0.2,1.8,1
			l0.6,2c0.2,0.8-0.2,1.5-0.9,1.8c-2.7,0.9-5.4,1.9-8,3.2C43.3,14.1,42.5,13.8,42.1,13.1z M96.7,12.4c-2.6-1.1-5.4-2-8.1-2.8
			c-0.8-0.2-1.2-1-1-1.7l0.5-2c0.2-0.8,1-1.3,1.8-1.1c3,0.8,6,1.8,8.9,3c0.7,0.3,1.1,1.2,0.7,1.9l-0.8,1.9
			C98.3,12.4,97.4,12.7,96.7,12.4z M64.4,6.5l-0.2-2.1c-0.1-0.8,0.5-1.5,1.3-1.6c2.1-0.2,4.3-0.3,6.4-0.3c0,0,0,0,0,0
			c1,0,1.9,0,2.9,0.1c0.8,0,1.4,0.7,1.4,1.5L76,6.2c0,0.8-0.7,1.4-1.5,1.3c-0.9,0-1.8-0.1-2.7-0.1c0,0,0,0,0,0c-2,0-4,0.1-5.9,0.3
			C65.2,7.8,64.5,7.3,64.4,6.5z"/>
	</g>
</g>
</svg>
