<svg width="20" height="20" viewBox="0 0 20 20" fill="none" xmlns="http://www.w3.org/2000/svg">
<path d="M8.75434 11.6192L6.70969 9.57328L6.70963 9.57322C6.60678 9.47037 6.48468 9.38878 6.3503 9.33312C6.21591 9.27746 6.07188 9.24881 5.92643 9.24881C5.78097 9.24881 5.63694 9.27746 5.50256 9.33312C5.36818 9.38878 5.24608 9.47037 5.14322 9.57322C4.9355 9.78094 4.81881 10.0627 4.81881 10.3564C4.81881 10.6502 4.9355 10.9319 5.14322 11.1396L7.97111 13.9675C7.97126 13.9677 7.97141 13.9678 7.97156 13.968C8.07412 14.0712 8.19608 14.1532 8.33041 14.2091C8.46496 14.2652 8.60926 14.294 8.755 14.294C8.90074 14.294 9.04504 14.2652 9.17959 14.2091C9.31396 14.1532 9.43594 14.0712 9.53852 13.9679C9.53864 13.9678 9.53877 13.9676 9.53889 13.9675L15.3938 8.11117C15.3941 8.11091 15.3943 8.11066 15.3946 8.11041C15.4985 8.00813 15.5811 7.88633 15.6378 7.75202L15.4075 7.65481L15.6378 7.75202C15.6946 7.61737 15.7242 7.4728 15.7249 7.32666C15.7256 7.18051 15.6973 7.03568 15.6418 6.9005C15.5862 6.76534 15.5044 6.64251 15.4011 6.5391L15.2242 6.71577L15.4011 6.5391C15.2978 6.4357 15.1751 6.35377 15.04 6.29803C14.9049 6.2423 14.7601 6.21387 14.6139 6.21437C14.4678 6.21488 14.3232 6.24432 14.1885 6.30099C14.0541 6.35752 13.9322 6.44003 13.8298 6.54378C13.8296 6.54404 13.8293 6.5443 13.829 6.54456L8.75434 11.6192ZM10 0.25C12.5859 0.25 15.0658 1.27723 16.8943 3.10571C18.7228 4.93419 19.75 7.41414 19.75 10C19.75 12.5859 18.7228 15.0658 16.8943 16.8943C15.0658 18.7228 12.5859 19.75 10 19.75C7.41414 19.75 4.93419 18.7228 3.10571 16.8943C1.27723 15.0658 0.25 12.5859 0.25 10C0.25 7.41414 1.27723 4.93419 3.10571 3.10571C4.93419 1.27723 7.41414 0.25 10 0.25Z" fill="#71CC98" stroke="white" stroke-width="0.5"/>
</svg>
