<svg width="20" height="20" viewBox="0 0 20 20" fill="none" xmlns="http://www.w3.org/2000/svg">
<path d="M0.25 10C0.25 4.6172 4.61564 0.25 10 0.25C15.3844 0.25 19.75 4.6172 19.75 10C19.75 15.386 15.3844 19.75 10 19.75C4.61559 19.75 0.25 15.386 0.25 10ZM11.75 6.12903C11.75 5.61215 11.5937 5.14203 11.2876 4.79768C10.9786 4.45007 10.5337 4.25 10 4.25C9.4663 4.25 9.02139 4.45007 8.7124 4.79768C8.40631 5.14203 8.25 5.61215 8.25 6.12903C8.25 6.64847 8.40868 7.0682 8.73463 7.35341C9.05471 7.63348 9.49791 7.75 10 7.75C10.5021 7.75 10.9453 7.63348 11.2654 7.35341C11.5913 7.0682 11.75 6.64847 11.75 6.12903ZM11.7742 15.4113C12.1795 15.4113 12.5081 15.0827 12.5081 14.6774V13.7097C12.5081 13.3044 12.1795 12.9758 11.7742 12.9758H11.5403V9.19355C11.5403 8.78826 11.2117 8.45968 10.8065 8.45968H8.22581C7.82052 8.45968 7.49194 8.78826 7.49194 9.19355V10.1613C7.49194 10.5666 7.82052 10.8952 8.22581 10.8952H8.45968V12.9758H8.22581C7.82052 12.9758 7.49194 13.3044 7.49194 13.7097V14.6774C7.49194 15.0827 7.82052 15.4113 8.22581 15.4113H11.7742Z" fill="#003A70" stroke="white" stroke-width="0.5"/>
</svg>
