<svg width="20" height="20" viewBox="0 0 20 20" fill="none" xmlns="http://www.w3.org/2000/svg">
<path d="M9.99973 19.75C4.61492 19.7499 0.25 15.3848 0.25 10C0.25 4.61507 4.61507 0.25 10 0.25C15.3848 0.25 19.7499 4.61492 19.75 9.99973C19.7442 15.3819 15.3819 19.7442 9.99973 19.75ZM10 12.75C9.30964 12.75 8.75 13.3096 8.75 14C8.75 14.6904 9.30964 15.25 10 15.25C10.6904 15.25 11.25 14.6904 11.25 14C11.25 13.3096 10.6904 12.75 10 12.75ZM10 4.75C9.30964 4.75 8.75 5.30964 8.75 6V10C8.75 10.6904 9.30964 11.25 10 11.25C10.6904 11.25 11.25 10.6904 11.25 10V6C11.25 5.30964 10.6904 4.75 10 4.75Z" fill="#E5C34D" stroke="white" stroke-width="0.5"/>
</svg>
