<svg width="842" height="843" viewBox="0 0 842 843" fill="none" xmlns="http://www.w3.org/2000/svg">
<g clip-path="url(#clip0_1391_679)">
<path d="M842 421C842.056 468.941 833.905 516.539 817.901 561.73C817.831 561.94 817.76 562.13 817.68 562.34V562.35C805.695 595.971 789.464 627.923 769.38 657.43C765.9 662.57 762.297 667.627 758.57 672.6C754.47 678.1 750.24 683.49 745.88 688.77C741.86 693.64 737.734 698.417 733.5 703.1C728.47 708.68 723.291 714.117 717.961 719.41C705.416 731.903 692.096 743.593 678.081 754.41C675.621 756.32 673.134 758.197 670.62 760.04C664.77 764.36 658.804 768.527 652.72 772.54C639.34 781.385 625.46 789.452 611.151 796.7C608.681 797.96 606.19 799.2 603.69 800.4C594.02 805.07 584.154 809.367 574.091 813.29C571.22 814.42 568.34 815.51 565.43 816.56C564.94 816.75 564.451 816.93 563.951 817.1C529.443 829.554 493.448 837.415 456.89 840.48C454.35 840.71 451.807 840.903 449.26 841.06C446.56 841.25 443.857 841.403 441.15 841.52C439.01 841.63 436.88 841.71 434.73 841.77C434.29 841.79 433.841 841.81 433.4 841.81C430.51 841.9 427.61 841.957 424.7 841.98C423.47 841.99 422.24 842 421 842C420.42 842 419.84 842 419.26 841.99C410.87 841.96 402.544 841.687 394.28 841.17C394.11 841.16 393.94 841.14 393.77 841.14C390.81 840.94 387.86 840.73 384.92 840.47C374.45 839.59 364.094 838.323 353.85 836.67C351.49 836.3 349.137 835.9 346.79 835.47C336.6 833.67 326.544 831.5 316.62 828.96C313.67 828.21 310.737 827.427 307.82 826.61C267.27 815.313 228.656 797.964 193.28 775.15C187.2 771.24 181.234 767.173 175.38 762.95C174.66 762.45 173.95 761.93 173.24 761.41C159.022 751.044 145.465 739.798 132.65 727.74C126.58 722.04 120.687 716.16 114.97 710.1C40.9979 632.039 -0.160439 528.543 0.000470032 421C0.000470032 188.49 188.49 0 421 0C653.51 0 842 188.49 842 421Z" fill="#F2F2F2"/>
<path d="M472.36 107.328C480.79 93.3861 490.778 78.5008 506.421 73.9484C524.536 68.6766 543.145 79.1493 558.93 89.4837C606.136 120.391 651.595 153.885 695.101 189.813L695.054 190.354C661.183 188.018 627.312 185.682 593.441 183.347C568.969 181.659 543.656 179.739 522.03 168.162C513.824 163.769 505.824 157.901 496.525 157.492C484.971 156.984 474.898 165.053 466.981 173.483C420.151 223.35 406.6 299.609 354.062 343.421C387.19 261.72 426.747 182.774 472.36 107.328V107.328Z" fill="white"/>
<path d="M184.506 530.292C189.684 523.753 191.8 522.221 196.909 515.622C238.502 461.827 277.596 406.216 314.191 348.787C339.048 309.784 362.672 270.031 385.064 229.53C395.724 210.275 406.092 190.869 416.168 171.312C423.987 156.148 431.631 140.893 439.1 125.548C441.237 121.165 443.312 116.762 445.378 112.348C450.244 101.97 455.02 91.542 460.149 81.305C465.993 69.6372 473.106 57.4052 483.837 49.5662C488.721 45.8523 494.56 43.6052 500.674 43.0875C509.409 42.5233 517.47 46.1304 525.047 50.07C580.484 78.9775 632.384 115.22 679.327 156.46C726.391 197.793 768.457 244.489 804.67 295.597C805.778 297.179 808.398 295.667 807.28 294.075C802.877 287.849 798.386 281.689 793.808 275.596C755.818 225.037 712.006 179.128 663.277 138.818C639.151 118.856 613.889 100.309 587.618 83.2698C574.247 74.6046 560.624 66.3458 546.75 58.4934C539.758 54.5336 532.735 50.6242 525.591 46.9566C518.588 43.3596 511.152 40.1252 503.152 40.0043C475.928 39.5811 461.831 70.413 452.149 91.1591C449.106 97.6882 446.026 104.197 442.909 110.686C431.131 135.321 418.899 159.732 406.213 183.917C398.384 198.849 390.384 213.694 382.212 228.452C356.781 274.407 329.751 319.433 301.123 363.528C263.197 421.937 225.574 473.535 182.369 528.156C181.18 529.667 183.306 531.824 184.506 530.292Z" fill="white"/>
<path d="M335.185 285.115L294.623 270.28L274.484 262.914C267.925 260.515 261.382 257.784 254.602 256.066C248.607 254.547 242.516 254.299 236.605 256.295C231.391 258.225 226.617 261.184 222.569 264.996C218.433 268.805 214.585 272.915 211.056 277.291C206.671 282.561 202.351 287.885 198.012 293.192C180.103 315.094 162.311 337.091 144.636 359.184C126.962 381.275 109.406 403.461 91.9679 425.741C74.4872 448.075 57.1268 470.502 39.8865 493.023C37.7746 495.782 35.6644 498.542 33.5561 501.303C32.3913 502.829 29.7648 501.325 30.9461 499.778C48.3135 477.031 65.802 454.376 83.4115 431.815C101.064 409.201 118.839 386.681 136.736 364.258C154.632 341.836 172.65 319.51 190.788 297.282C195.307 291.744 199.833 286.213 204.367 280.687C208.191 276.026 211.972 271.315 216.167 266.977C223.867 259.014 233.486 251.976 245.001 251.785C251.771 251.673 258.323 253.821 264.613 256.097C271.395 258.55 278.159 261.049 284.932 263.526L325.777 278.466L335.989 282.201C337.801 282.863 337.018 285.786 335.185 285.115V285.115Z" fill="white"/>
<path d="M224.096 285.264C228.089 280.403 232.406 275.314 238.378 273.34L243.954 273.56C201.509 348.562 144.184 414.097 75.498 466.145C125.031 405.851 174.564 345.558 224.096 285.264Z" fill="white"/>
<path d="M495.243 207.612C495.246 215.276 493.367 222.823 489.772 229.592C486.177 236.36 480.976 242.142 474.624 246.431C468.273 250.72 460.966 253.384 453.344 254.19C445.723 254.995 438.021 253.918 430.913 251.051C423.805 248.185 417.51 243.618 412.579 237.751C407.649 231.884 404.234 224.896 402.634 217.401C401.035 209.906 401.3 202.133 403.406 194.764C405.512 187.395 409.395 180.656 414.713 175.138C414.788 175.063 414.863 174.988 414.938 174.913C415.312 174.52 415.687 174.127 416.08 173.752C416.083 173.752 416.085 173.752 416.087 173.751C416.09 173.75 416.092 173.748 416.094 173.747C416.095 173.745 416.097 173.743 416.098 173.74C416.098 173.738 416.099 173.736 416.099 173.733C416.586 173.284 417.073 172.834 417.578 172.404C424.344 166.472 432.675 162.617 441.576 161.298C450.476 159.979 459.567 161.254 467.762 164.969C475.956 168.684 482.907 174.682 487.78 182.245C492.654 189.807 495.245 198.615 495.243 207.612V207.612Z" fill="#2F2E41"/>
<path d="M464.649 246.206C479.981 230.874 479.981 206.016 464.649 190.684C449.317 175.352 424.459 175.352 409.126 190.684C393.794 206.016 393.794 230.874 409.126 246.206C424.459 261.538 449.317 261.538 464.649 246.206Z" fill="#9E616A"/>
<path d="M464.94 180.69C458.858 174.998 451.293 171.138 443.115 169.553C434.938 167.968 426.478 168.723 418.71 171.73C418.48 171.82 418.25 171.92 418.02 172.03C418.01 172.03 418.01 172.04 418 172.04C417.25 172.35 416.49 172.67 415.76 173.02L415.31 173.24V173.3C415.23 173.36 415.14 173.43 415.05 173.49C414.866 173.661 414.643 173.785 414.4 173.85C406.85 173.95 400.7 176.51 396.14 181.46C390.05 188.06 387.19 198.73 388.07 211.51L388.09 211.9L388.43 212.12C391.65 214.13 394.7 215.9 397.64 217.45C399.38 218.38 401.07 219.23 402.75 220.01C402.95 220.1 403.15 220.2 403.35 220.29C420.35 228.14 435.9 229.56 450.84 224.59L451.12 224.5L457.47 213.86C458.124 217.495 459.873 220.844 462.482 223.458C465.091 226.073 468.436 227.828 472.07 228.49L474.71 228.96L478.58 229.64L478.74 228.91C482.58 211.61 477.03 192.24 464.94 180.69Z" fill="#2F2E41"/>
<path d="M561.387 263.091C548.026 256.196 565.209 231.168 561.756 216.535C558.304 201.902 533.44 197.196 531.856 182.244C530.272 167.293 526.546 151.873 516.68 140.528C510.375 133.278 501.086 127.926 491.522 128.834C488.286 129.142 485.154 130.143 482.34 131.769C479.525 133.396 477.095 135.61 475.213 138.261C473.332 140.912 472.044 143.937 471.437 147.13C470.83 150.324 470.919 153.61 471.696 156.767C468.973 152.908 461.926 153.744 460.182 158.133C458.631 162.035 462.057 166.761 466.089 167.106C471.364 173.621 477.406 180.536 485.671 181.85C488.333 182.273 491.326 181.963 493.27 180.096C495.215 178.229 495.366 174.495 493.059 173.1C503.446 177.226 509.536 188.456 511.077 199.526C512.618 210.595 510.486 221.796 509.081 232.883C507.676 243.971 507.07 255.635 511.418 265.931C516.554 278.096 528.38 286.815 541.286 289.611C554.192 292.407 567.936 289.674 579.618 283.517C591.3 277.36 601.042 267.96 609 257.422C595.292 267.156 576.326 270.803 561.387 263.091Z" fill="#2F2E41"/>
<path d="M409.593 428.003L382.475 613.181L530.504 602.024L486.197 419.853L409.593 428.003Z" fill="#FFB8B8"/>
<path d="M564.45 815.21C564.318 815.849 564.151 816.48 563.95 817.1C546.866 823.276 529.395 828.324 511.65 832.21C507.91 819.91 500.74 796.62 494.46 777.57C489.33 762.02 484.8 749.3 483.22 747.71C478.83 743.34 483.22 737.51 483.22 737.51L464.47 679.22L455.95 652.74L453.03 708.37L448.79 788.95L448.67 791.21C448.67 791.21 442.83 808.7 445.75 811.62C448.67 814.54 442.83 826.21 442.83 826.21L441.15 841.52C439.01 841.63 436.88 841.71 434.73 841.77L434 842L433.4 841.81C430.51 841.9 427.61 841.957 424.7 841.98C423.47 841.99 422.24 842 421 842C420.42 842 419.84 842 419.26 841.99C410.87 841.96 402.543 841.687 394.28 841.17L389.15 799.42L383.85 756.28C383.85 756.28 389.68 744.63 383.85 738.8C380.34 735.29 382.1 730.19 384.07 726.69C382.85 721.28 381.18 712.96 378.93 700.64C378.85 700.23 378.78 699.81 378.7 699.39C377.99 695.48 377.353 691.647 376.79 687.89C375.79 681.28 375.01 674.93 374.41 668.85C372.375 649.157 372.094 629.322 373.57 609.58C374.13 602.56 374.83 597.42 375.29 594.45C375.33 594.17 375.76 592.6 376.46 590.12C377.56 586.15 379.37 579.85 381.4 572.8C382.48 569.06 383.62 565.11 384.75 561.18C386.72 554.37 388.68 547.62 390.26 542.16V542.13C391.65 537.34 392.76 533.56 393.34 531.58C393.62 530.61 393.77 530.08 393.77 530.08C393.77 530.08 394.08 530.01 394.67 529.88C396.5 529.46 401.02 528.45 407.28 527.1C413.81 525.72 422.22 523.97 431.46 522.19C439.37 520.67 447.89 519.12 456.36 517.73C459.4 517.24 462.44 516.76 465.44 516.31C483.97 513.55 500.98 511.98 509.04 513.77C509.598 513.889 510.149 514.039 510.69 514.22C511.237 514.401 511.763 514.639 512.26 514.93C512.51 515.08 514.93 524.52 518.02 536.82C518.05 536.94 518.08 537.07 518.11 537.19C519.04 540.91 520.03 544.87 521.04 548.92C522.07 553.05 523.11 557.26 524.13 561.36C527.16 573.54 529.96 584.81 531.4 590.33C531.95 592.47 532.31 593.74 532.39 593.88C535.77 599.51 538.53 613.31 540.77 630.62C542.77 646.07 544.36 664.32 545.59 682.05C546.2 690.82 546.72 699.47 547.16 707.59C548.65 734.91 549.25 756.24 549.25 756.24C549.25 756.24 551.48 774.02 555.91 782.41C556.455 783.493 557.152 784.493 557.98 785.38C560.93 788.33 561.27 790.89 560.88 792.71C560.709 793.569 560.354 794.381 559.84 795.09C559.723 795.263 559.593 795.427 559.45 795.58C559.069 797.389 559.136 799.265 559.644 801.042C560.153 802.82 561.089 804.446 562.37 805.78C565.2 808.63 564.97 812.71 564.45 815.21Z" fill="#2F2E41"/>
<path d="M515.96 368.61C515.79 367.35 515.61 366.08 515.42 364.8C515.31 363.98 515.18 363.16 515.06 362.35C513.79 354.17 519.08 347.17 512.23 341.51C510.629 340.207 509.323 338.577 508.4 336.73L506.83 333.57L503.94 327.71L497.62 314.97L496.53 312.78C496.222 312.158 495.867 311.56 495.47 310.99C494.289 309.275 492.75 307.835 490.96 306.77L475.26 297.41C472.834 295.971 470.881 293.854 469.64 291.32L469.25 290.52C467.52 286.97 464.42 278.48 460.75 274.79L460.74 274.78C459.94 273.866 458.855 273.249 457.66 273.03L442.03 271.48C439.531 271.226 437.008 271.626 434.709 272.641C432.411 273.656 430.416 275.251 428.92 277.27L428.49 279.22L425.98 290.65L425.84 290.68C425.1 290.85 424.36 291.02 423.63 291.23C407.42 295.66 400.66 352.33 400.66 352.33C400.66 352.33 389.31 371.06 393.77 382.65L401.73 401.34C401.792 401.482 401.839 401.629 401.87 401.78C402.59 403.814 402.843 405.985 402.61 408.13L402.62 408.86L402.64 410.47L402.7 414.6L402.89 428.3L403.13 445.45L403.34 460.06L403.41 463.95L390.3 521C390.086 522.875 390.243 524.773 390.763 526.587C391.283 528.4 392.155 530.094 393.33 531.57L393.34 531.58C393.628 531.949 393.935 532.303 394.26 532.64L394.27 532.65C394.58 532.97 394.9 533.26 395.23 533.55C396.809 534.931 398.671 535.95 400.685 536.536C402.699 537.122 404.817 537.26 406.89 536.94L408.64 536.67H408.65L434.05 532.86H434.07L437.01 532.42H437.03L465.46 528.15H465.48L470.35 527.41C470.74 527.36 471.12 527.31 471.51 527.28L497.54 525.49C498.138 525.45 498.732 525.373 499.32 525.26H499.33C501.619 524.807 503.765 523.81 505.587 522.354C507.41 520.897 508.855 519.023 509.8 516.89C510.193 516.035 510.492 515.14 510.69 514.22C510.916 513.225 511.04 512.21 511.06 511.19L511.35 486.67L512.34 407.43C512.36 404.786 513.115 402.2 514.52 399.96C518.13 394.2 517.72 381.86 515.96 368.61Z" fill="#6C63FF"/>
<path d="M472.317 580.244C471.951 578.223 472.032 576.146 472.555 574.16C473.079 572.174 474.031 570.327 475.345 568.749C476.66 567.171 478.304 565.9 480.163 565.026C482.021 564.152 484.049 563.696 486.103 563.691L502.342 516.482L518.177 537.032L500.328 578.712C500.108 582.163 498.63 585.413 496.175 587.848C493.719 590.282 490.455 591.731 487.002 591.919C483.55 592.108 480.148 591.024 477.441 588.872C474.734 586.72 472.911 583.65 472.317 580.244H472.317Z" fill="#9E616A"/>
<path d="M534.28 480.92L530.63 490.12L525.53 547.03C523.946 547.428 522.432 548.065 521.04 548.92C518.016 550.79 515.713 553.627 514.506 556.971C513.299 560.315 513.258 563.969 514.39 567.34L515.89 571.84L504.74 568.41L486.41 562.78L464.8 556.14L468.46 544.27C469.307 541.543 469.478 538.65 468.959 535.842C468.44 533.034 467.246 530.394 465.48 528.15C465.043 527.592 464.572 527.061 464.07 526.56L465.44 516.31L466.25 510.22L456.36 517.73L437.02 532.42H437.01L434.45 534.37C434.45 534.37 434.31 533.85 434.05 532.86C433.56 530.95 432.64 527.29 431.46 522.19C425.616 496.776 421.312 471.032 418.57 445.1C417.97 439.26 417.45 433.28 417.03 427.21C416.6 420.96 416.28 414.62 416.11 408.24C414.67 356.31 422.65 301.87 456 274.03C457.612 274.041 459.214 274.297 460.75 274.79C474.25 278.94 489.06 299.22 499.3 313.73C501.72 317.16 503.88 320.26 505.71 322.75L510.14 328.78C516.188 337.019 520.375 346.474 522.41 356.49C522.84 358.61 523.176 360.756 523.42 362.93L528.26 407.45V418.92L534.28 480.92Z" fill="#6C63FF"/>
<path d="M24.3896 560.728C33.0769 571.021 42.4732 580.695 52.5097 589.678L790.09 590.678C800.126 581.695 809.522 572.021 818.21 561.728L24.3896 560.728Z" fill="#CCCCCC"/>
<path d="M424.7 841.98C423.47 841.99 422.24 842 421 842C420.42 842 419.84 842 419.26 841.99C410.87 841.96 402.543 841.687 394.28 841.17L394.48 842.8L393.77 841.14L377.92 804.24L389.15 799.42L409.75 790.57L416 812.06L421.98 832.64L423.76 838.74L424.7 841.98Z" fill="#FFB6B6"/>
<path d="M351.27 799.14L346.79 835.47C336.6 833.67 326.543 831.5 316.62 828.96V799.15L351.27 799.14Z" fill="#FFB6B6"/>
<path d="M193.28 732.18V775.15C187.2 771.24 181.233 767.173 175.38 762.95V732.18H193.28Z" fill="#CACACA"/>
<path d="M262.63 725.02V746.49C262.629 750.445 261.058 754.238 258.262 757.035C255.466 759.833 251.675 761.406 247.72 761.41H173.24C159.021 751.044 145.465 739.798 132.65 727.74C126.58 722.04 120.686 716.16 114.97 710.1H247.72C251.674 710.105 255.465 711.679 258.26 714.477C261.056 717.274 262.627 721.066 262.63 725.02V725.02Z" fill="#3F3D56"/>
<path d="M437.18 840.99L434.729 841.77L434 842L433.4 841.81C430.51 841.9 427.61 841.957 424.7 841.98C423.47 841.99 422.24 842 421 842C420.42 842 419.84 842 419.26 841.99C410.87 841.96 402.543 841.687 394.28 841.17L394.479 842.8L393.769 841.14C390.809 840.94 387.859 840.73 384.919 840.47L361.65 801.5L313.76 721.31L308.21 712.02C308.21 712.02 289.28 717.62 262.49 722.99C242.3 727.05 217.65 730.96 193.28 732.24C187.27 732.56 181.28 732.72 175.38 732.67C160.13 732.57 145.48 731.14 132.65 727.74C126.58 722.04 120.686 716.16 114.97 710.1C105.224 699.795 96.006 689.005 87.3495 677.77C87.2329 673.646 87.4436 669.52 87.9795 665.43C88.0695 664.75 88.1595 664.06 88.2695 663.36L90.9995 617L111.28 614.32L142.14 610.24L175.57 605.82L179.25 634.64C179.25 634.64 205.28 633.32 238.26 633.76C291.23 634.48 362.11 639.76 371.71 662.42C372.61 664.55 373.509 666.7 374.409 668.85C393.049 713.5 410.169 761.07 421.799 794.87C424.019 801.31 426.03 807.24 427.82 812.56C433.73 830.13 437.18 840.99 437.18 840.99Z" fill="#2F2E41"/>
<path d="M380.48 687.97C379.99 692.21 379.474 696.433 378.93 700.64C374.13 737.85 367.52 773.39 361.65 801.5C358.78 815.22 356.08 827.16 353.85 836.67C351.49 836.3 349.137 835.9 346.79 835.47C336.6 833.67 326.544 831.5 316.62 828.96C313.67 828.21 310.737 827.427 307.82 826.61L313.76 721.31L315.72 686.48L376.79 687.89L380.48 687.97Z" fill="#2F2E41"/>
<path d="M478.675 525.099C481.222 523.677 484.049 522.83 486.958 522.619C489.868 522.408 492.788 522.837 495.513 523.876C498.239 524.915 500.703 526.539 502.733 528.634C504.763 530.729 506.308 533.243 507.261 536L578.164 536.084L557.844 566.819L493.629 562.027C488.891 563.321 483.844 562.832 479.443 560.653C475.042 558.474 471.593 554.757 469.75 550.205C467.907 545.653 467.797 540.583 469.442 535.956C471.087 531.329 474.372 527.466 478.675 525.099L478.675 525.099Z" fill="#FFB6B6"/>
<path d="M517.331 566.664L645.028 579.35L645.365 578.919C646.009 578.096 709.93 496.273 720.67 476.795C727.278 465.093 729.684 451.483 727.49 438.224L727.417 437.9L727.162 437.685C721.955 433.321 715.415 430.861 708.622 430.712C701.829 430.563 695.188 432.734 689.794 436.866C663.857 456.953 642.944 482.794 628.706 512.349L620.626 529.17L526.916 533.19L517.331 566.664Z" fill="#6C63FF"/>
<path d="M468.08 797.24L449.26 841.06C446.56 841.25 443.856 841.403 441.15 841.52C439.01 841.63 436.88 841.71 434.73 841.77L434 842L433.4 841.81C430.51 841.9 427.61 841.957 424.7 841.98C423.47 841.99 422.24 842 421 842C420.42 842 419.84 842 419.26 841.99L420.51 837.71L421.98 832.64L427.82 812.56L436.25 783.57L448.79 788.95L468.08 797.24Z" fill="#FFB6B6"/>
<path d="M603.69 800.4C594.02 805.07 584.153 809.367 574.09 813.29L564.25 796.74L595.97 782.81L603.69 800.4Z" fill="#FFB6B6"/>
<path d="M670.62 725.18V760.04C664.77 764.36 658.803 768.527 652.72 772.54V725.18H670.62Z" fill="#CACACA"/>
<path d="M733.5 703.1C728.47 708.68 723.29 714.117 717.96 719.41C705.416 731.903 692.096 743.593 678.08 754.41H598.28C596.162 754.41 594.067 753.958 592.138 753.084C590.208 752.21 588.487 750.933 587.09 749.34L587.08 749.31C585.416 747.432 584.26 745.16 583.72 742.71L583.71 742.69C583.485 741.638 583.371 740.566 583.37 739.49V718.02C583.373 714.066 584.944 710.274 587.739 707.477C590.535 704.679 594.326 703.105 598.28 703.1H733.5Z" fill="#3F3D56"/>
<path d="M766.38 619.3L757.73 656.36C758.576 661.729 758.858 667.172 758.57 672.6C754.47 678.1 750.24 683.49 745.88 688.77C741.86 693.64 737.734 698.417 733.5 703.1C728.47 708.68 723.29 714.116 717.96 719.41C704.08 723.77 687.72 725.55 670.62 725.67C664.72 725.72 658.73 725.56 652.72 725.24C628.35 723.96 603.7 720.05 583.51 715.99C578.17 714.93 573.15 713.85 568.53 712.8C559.78 710.83 552.46 708.99 547.16 707.59C541.19 706.03 537.79 705.02 537.79 705.02L515.08 743.05L494.46 777.57L456.89 840.48C454.35 840.71 451.807 840.903 449.26 841.06C446.56 841.25 443.857 841.403 441.15 841.52C439.01 841.63 436.88 841.71 434.73 841.77L434 842L433.4 841.81L423.76 838.74L420.51 837.71L408.82 833.99C408.82 833.99 411.43 825.77 416 812.06C417.68 807.03 419.62 801.25 421.8 794.87C429.67 771.81 440.58 740.84 453.03 708.37C456.72 698.73 460.54 688.95 464.47 679.22C467.69 671.23 470.97 663.27 474.29 655.42C480.06 641.81 507.94 634.47 540.77 630.62C542.44 630.43 544.12 630.24 545.81 630.06C562.54 628.3 580.29 627.39 596.89 626.97C605.2 626.76 613.22 626.68 620.68 626.67C623.09 626.67 625.434 626.676 627.71 626.69H627.72C633.87 626.72 639.53 626.81 644.51 626.91C645.48 626.93 646.42 626.96 647.34 626.98H647.35C647.97 626.99 648.58 627.01 649.18 627.02C660.07 627.3 666.75 627.64 666.75 627.64L669.34 607.32L669.87 603.22L670.37 599.32V599.31L670.43 598.82L670.84 598.81L678.04 598.67L738.56 597.49L771.62 596.84L766.38 619.3Z" fill="#2F2E41"/>
<path d="M611.15 796.7C608.68 797.96 606.19 799.2 603.69 800.4C594.02 805.07 584.153 809.367 574.09 813.29C571.22 814.42 568.34 815.51 565.43 816.56C565.11 816.11 564.78 815.66 564.45 815.21C550.57 796.16 532.93 771.02 515.08 743.05C507.61 731.35 500.1 719.15 492.81 706.69L545.59 682.05L551.51 679.29L568.53 712.8L583.71 742.69L587.09 749.34L611.15 796.7Z" fill="#2F2E41"/>
<path d="M687.762 380.051C714.617 380.051 736.388 358.281 736.388 331.426C736.388 304.571 714.617 282.8 687.762 282.8C660.907 282.8 639.137 304.571 639.137 331.426C639.137 358.281 660.907 380.051 687.762 380.051Z" fill="#FFB6B6"/>
<path d="M686.154 377.94C697.522 383.395 711.515 381.547 722.37 375.13C733.224 368.712 741.211 358.245 746.793 346.939C750.882 338.658 753.852 329.175 751.484 320.248C749.116 311.322 739.673 303.843 730.824 306.487C736.886 301.606 736.179 291.54 731.281 285.491C726.383 279.443 718.654 276.535 711.186 274.343C700.348 271.162 688.96 268.917 677.783 270.544C666.605 272.171 655.601 278.223 650.341 288.218C646.69 289.159 642.831 288.862 639.366 287.375C635.902 285.887 633.029 283.292 631.198 279.997C629.979 283.165 629.839 286.646 630.798 289.901C631.758 293.157 633.763 296.005 636.504 298.006L621.366 289.793C617.507 295.143 621.014 303.301 626.873 306.331C632.731 309.361 639.813 308.553 646.207 306.934C652.601 305.315 645.057 318.818 651.651 318.948C658.246 319.078 665.38 322.529 667.268 328.849C668.257 332.159 667.68 335.714 667.972 339.156C668.264 342.599 669.913 346.418 673.25 347.314C675.357 347.881 677.663 347.13 679.753 347.759C682.345 348.539 683.924 351.311 684.152 354.007C684.38 356.704 683.535 359.362 682.7 361.936C679.4 372.108 689.989 366.406 686.69 376.578L686.154 377.94Z" fill="#2F2E41"/>
<path d="M781.56 521.57C781.16 481.41 779.34 454.04 776.16 440.21C767.62 403.03 728.17 396.25 721.99 395.41C721.332 393.657 720.32 392.059 719.017 390.715C717.715 389.37 716.15 388.308 714.419 387.594C712.689 386.88 710.83 386.53 708.958 386.565C707.087 386.601 705.242 387.021 703.54 387.8L675.51 400.64C669.823 403.253 664.735 407.007 660.56 411.669C656.385 416.33 653.212 421.801 651.24 427.74L647.08 440.44L644.99 525.67L651.89 561.52L651.9 561.54L656.55 585.69L653.35 590.49L635.08 617.89L634.77 618.37L634.76 618.38L633.96 619.57C635.07 620.18 636.17 620.78 637.25 621.38C640.05 622.92 642.78 624.43 645.44 625.91C646.08 626.27 646.71 626.62 647.34 626.98H647.35C647.75 627.2 648.15 627.42 648.54 627.64C658.52 633.22 667.603 638.39 675.79 643.15C676.93 643.81 678.06 644.47 679.17 645.12C716.97 667.23 736.13 680.77 745.88 688.77C750.24 683.49 754.47 678.1 758.57 672.6C762.29 667.63 765.893 662.573 769.38 657.43C769.99 653.41 770.4 649.39 770.8 645.45C771.28 640.71 771.78 635.8 772.62 630.97C772.99 628.83 771.57 626.8 770.2 624.84C768.93 623.01 767.73 621.29 767.98 619.67C768.24 618 770.08 616.18 771.87 614.41C773.82 612.47 775.84 610.47 776.13 608.36C776.93 602.48 777.64 596.58 778.26 590.66C779.28 581.03 780.063 571.37 780.61 561.68C781.38 548.3 781.697 534.93 781.56 521.57Z" fill="#6C63FF"/>
<path d="M596.463 663.33C597.287 660.532 598.715 657.948 600.645 655.762C602.576 653.575 604.962 651.839 607.637 650.674C610.311 649.51 613.208 648.946 616.124 649.022C619.04 649.099 621.904 649.813 624.513 651.116L675.228 601.566L682.215 637.742L632.985 679.25C630.505 683.489 626.557 686.671 621.888 688.194C617.22 689.717 612.154 689.474 607.653 687.511C603.151 685.549 599.525 682.003 597.463 677.547C595.401 673.09 595.045 668.031 596.463 663.33L596.463 663.33Z" fill="#FFB6B6"/>
<path d="M653.163 665.978L753.271 585.692L753.21 585.149C753.094 584.11 741.512 480.927 735.556 459.497C732.089 446.513 724.285 435.105 713.44 427.168L713.161 426.988L712.829 427.012C706.055 427.538 699.662 430.356 694.704 435.003C689.747 439.65 686.521 445.847 685.558 452.573C681.083 485.072 684.223 518.167 694.729 549.245L700.727 566.916L636.589 635.357L653.163 665.978Z" fill="#6C63FF"/>
<path d="M140.514 379.179C164.477 379.179 183.903 359.753 183.903 335.79C183.903 311.828 164.477 292.402 140.514 292.402C116.552 292.402 97.126 311.828 97.126 335.79C97.126 359.753 116.552 379.179 140.514 379.179Z" fill="#A0616A"/>
<path d="M82.2209 666.264L81.9842 665.932C69.3451 648.237 88.3544 605.716 91.2214 599.552C87.8169 598.448 84.9006 596.197 82.9692 593.183C81.0379 590.17 80.2108 586.58 80.629 583.025L81.865 572.519L83.1532 562.214L73.9239 552.985L73.8979 552.755L68.5866 506.28L60.864 475.412C57.9543 463.743 58.2022 451.51 61.5825 439.968C64.9628 428.427 71.3536 417.993 80.0989 409.737L97.9495 406.902L119.644 386H154.628L166.623 397.461C190.206 416.792 195.805 408.394 222.398 444.784L203.357 494.949L214 568.937L214.006 582.327L219.55 588.487C221.546 590.706 222.997 593.361 223.787 596.24C224.576 599.119 224.682 602.143 224.097 605.07L223.368 608.714C226.185 609.922 228.672 611.787 230.62 614.154C232.567 616.521 233.919 619.32 234.561 622.318L236.508 631.402C238.174 633.6 249.168 648.26 249.168 652.267C249.168 652.869 248.724 653.451 247.771 654.096C240.278 659.169 198.866 669.512 180.538 662.178C161.015 654.372 83.4061 666.083 82.6242 666.202L82.2209 666.264Z" fill="#3F3D56"/>
<path d="M60.1787 490.259L96.2552 483.197C109.597 503.122 116.76 557.604 116.76 557.604L156.646 640.323C159.098 641.812 161.111 643.925 162.48 646.445C163.85 648.966 164.527 651.804 164.443 654.672C164.358 657.539 163.516 660.333 162 662.769C160.485 665.204 158.351 667.195 155.816 668.537C153.281 669.88 150.436 670.527 147.569 670.412C144.703 670.297 141.919 669.425 139.499 667.884C137.08 666.342 135.112 664.187 133.796 661.638C132.481 659.089 131.864 656.237 132.01 653.372L79.9875 555.365L60.1787 490.259Z" fill="#A0616A"/>
<path d="M59.9769 498.819L58.9512 445.198L75.9285 422.486C79.2778 418.039 83.8039 414.618 88.9956 412.608C94.1873 410.599 99.8375 410.082 105.308 411.115V411.115C112.713 412.565 119.292 416.774 123.714 422.89C128.135 429.005 130.069 436.572 129.125 444.059C126.244 466.764 119.701 495.177 104.9 501.606L104.75 501.671L120.09 555.32L63.2022 563.266L59.9769 498.819Z" fill="#3F3D56"/>
<path d="M274.239 494.081C274.239 494.081 230.945 460.24 207.464 455.378L186.681 485.701L242.887 520.147L352.319 551.788C354.235 553.916 356.68 555.499 359.406 556.377C362.132 557.254 365.042 557.395 367.84 556.785C370.638 556.174 373.225 554.834 375.338 552.901C377.45 550.968 379.014 548.51 379.87 545.777C380.725 543.043 380.843 540.133 380.21 537.34C379.577 534.547 378.216 531.971 376.266 529.874C374.315 527.777 371.845 526.233 369.105 525.399C366.365 524.565 363.454 524.472 360.666 525.127L274.239 494.081Z" fill="#A0616A"/>
<path d="M198.069 500.881L152.95 471.891L143.529 445.145C141.698 439.888 141.375 434.223 142.595 428.792C143.815 423.36 146.529 418.378 150.432 414.408C155.759 409.063 162.917 405.939 170.459 405.669C178.001 405.4 185.363 408.004 191.058 412.955C208.318 427.985 230.561 433.023 227.664 448.898L235.974 450.111L278.467 482.383L253.409 534.069L198.069 500.881Z" fill="#3F3D56"/>
<path d="M91.2993 307.281C96.1713 299.744 105.314 294.72 114.177 296.132C115.002 290.476 117.363 285.154 121.003 280.747C124.643 276.339 129.422 273.015 134.821 271.136C140.219 269.256 146.03 268.894 151.62 270.089C157.21 271.283 162.365 273.988 166.524 277.909C169.134 275.833 172.927 275.724 176.024 276.959C179.075 278.346 181.729 280.476 183.743 283.154C188.829 289.496 192.1 297.099 193.207 305.153C194.315 313.207 193.218 321.41 190.034 328.89C191.117 324.952 187.171 321.248 183.183 320.364C179.196 319.481 175.014 320.316 170.97 319.741C165.788 319.004 161.13 315.997 155.939 315.321C151.577 314.752 147.19 315.871 142.936 316.992C138.682 318.113 134.307 319.256 129.938 318.737C125.57 318.218 119.942 334.774 120.018 346.435C120.032 348.645 119.577 351.482 117.418 351.951C114.758 352.528 113.217 348.857 110.686 347.857C108.43 346.966 105.727 348.618 104.942 350.912C104.623 352.085 104.588 353.318 104.842 354.507C105.095 355.696 105.629 356.808 106.399 357.749C107.955 359.615 109.802 361.217 111.869 362.494L110.827 363.361C109.093 365.652 105.495 365.751 102.996 364.334C100.497 362.917 98.854 360.395 97.3734 357.932C92.7491 350.241 88.6927 342.046 87.0607 333.22C85.4288 324.395 86.4276 314.818 91.2993 307.281Z" fill="#2F2E41"/>
<path opacity="0.2" d="M472.335 380.197C476.736 398.533 478.767 417.358 478.377 436.21C478.002 455.065 475.244 473.797 470.17 491.96C467.306 502.217 463.694 512.25 459.363 521.979C458.583 523.727 461.167 525.255 461.953 523.493C469.773 505.963 475.303 487.499 478.406 468.557C481.521 449.61 482.22 430.344 480.485 411.221C479.503 400.501 477.746 389.866 475.228 379.399C474.776 377.523 471.882 378.317 472.335 380.197H472.335Z" fill="black"/>
<path opacity="0.2" d="M752.428 508.502L727.35 569.72C723.314 579.572 719.398 589.484 715.198 599.268C711.416 608.078 707.103 616.925 700.738 624.187C694.312 631.517 685.67 637.468 675.796 638.631C673.902 638.854 673.88 641.856 675.796 641.631C684.816 640.568 692.899 636.085 699.427 629.884C706.487 623.179 711.462 614.638 715.524 605.872C720.051 596.103 723.9 586.001 727.981 576.041L740.802 544.741L755.321 509.3C756.052 507.514 753.151 506.737 752.428 508.502V508.502Z" fill="black"/>
<path d="M455.16 564.068C455.601 565.35 456.437 566.46 457.548 567.239C458.658 568.017 459.987 568.423 461.343 568.399L487.835 567.717C489.201 567.69 490.522 567.222 491.6 566.383C492.678 565.543 493.456 564.378 493.816 563.06L497.565 522.973C498.895 523.575 500.343 523.873 501.803 523.843C503.071 523.812 504.321 523.53 505.481 523.015C506.64 522.501 507.687 521.762 508.561 520.843C509.436 519.924 510.12 518.841 510.576 517.657C511.032 516.473 511.251 515.211 511.219 513.943C511.187 512.674 510.906 511.425 510.391 510.265C509.876 509.105 509.138 508.059 508.218 507.184C507.299 506.31 506.217 505.625 505.033 505.169C503.849 504.713 502.586 504.495 501.318 504.527C500.735 504.525 500.152 504.585 499.582 504.707C498.961 504.036 498.207 503.502 497.368 503.14C496.528 502.778 495.622 502.595 494.708 502.604L453.957 503.657C453.619 503.669 453.283 503.711 452.952 503.781C452.058 503.948 451.211 504.304 450.466 504.826C449.722 505.347 449.098 506.022 448.636 506.806C448.174 507.589 447.886 508.461 447.79 509.365C447.693 510.269 447.792 511.183 448.079 512.046L455.16 564.068ZM498.334 520.251L501.001 510.698C501.305 509.594 501.312 508.43 501.022 507.323C501.151 507.323 501.265 507.262 501.395 507.261C503.224 507.224 504.993 507.913 506.315 509.177C507.637 510.442 508.403 512.18 508.446 514.009C508.489 515.838 507.805 517.609 506.544 518.934C505.283 520.26 503.547 521.031 501.718 521.079C500.536 521.115 499.366 520.829 498.334 520.251V520.251Z" fill="#2F2E41"/>
<path d="M452.951 503.782C453.819 508.746 463.58 512.236 475.317 511.629C486.11 511.132 494.934 507.342 496.551 502.85C495.953 502.674 495.331 502.591 494.707 502.605L453.956 503.657C453.618 503.669 453.282 503.711 452.951 503.782V503.782Z" fill="#3F3D56"/>
<path d="M366.921 510.046C367.208 509.183 367.307 508.269 367.211 507.365C367.114 506.461 366.826 505.589 366.364 504.806C365.902 504.022 365.278 503.347 364.534 502.826C363.789 502.304 362.942 501.948 362.048 501.781C361.717 501.711 361.381 501.669 361.043 501.657L320.292 500.604C319.378 500.595 318.472 500.778 317.633 501.14C316.793 501.502 316.039 502.036 315.418 502.707C314.848 502.585 314.266 502.525 313.682 502.527C311.121 502.462 308.638 503.418 306.782 505.184C304.925 506.95 303.846 509.381 303.781 511.943C303.717 514.504 304.673 516.986 306.439 518.843C308.205 520.7 310.636 521.779 313.197 521.843C314.657 521.873 316.105 521.575 317.435 520.973L321.184 561.06C321.545 562.378 322.322 563.543 323.4 564.383C324.478 565.222 325.799 565.69 327.165 565.717L353.657 566.399C355.013 566.423 356.342 566.017 357.453 565.239C358.564 564.46 359.399 563.35 359.84 562.068L366.921 510.046ZM313.282 519.079C311.453 519.031 309.718 518.26 308.456 516.934C307.195 515.609 306.511 513.838 306.554 512.009C306.597 510.18 307.363 508.442 308.685 507.177C310.007 505.913 311.776 505.224 313.605 505.261C313.735 505.262 313.849 505.323 313.978 505.323C313.688 506.43 313.695 507.594 313.999 508.698L316.666 518.251C315.634 518.829 314.464 519.116 313.282 519.079V519.079Z" fill="#2F2E41"/>
<path d="M362.048 501.782C361.18 506.746 351.419 510.236 339.682 509.629C328.89 509.132 320.065 505.342 318.448 500.85C319.047 500.674 319.669 500.591 320.293 500.605L361.043 501.657C361.381 501.669 361.717 501.711 362.048 501.782V501.782Z" fill="#3F3D56"/>
<path d="M323.429 414.701C325.471 413.21 327.814 412.184 330.295 411.696C332.776 411.209 335.334 411.271 337.788 411.879C340.242 412.486 342.533 413.625 344.5 415.214C346.466 416.803 348.061 418.804 349.171 421.075L410.184 413.694L395.932 442.275L340.177 444.902C336.237 446.513 331.843 446.623 327.827 445.211C323.811 443.799 320.453 440.963 318.389 437.241C316.324 433.518 315.697 429.167 316.626 425.013C317.555 420.859 319.976 417.19 323.429 414.701L323.429 414.701Z" fill="#9E616A"/>
<path d="M522.41 356.49C520.61 360.02 518.42 364.13 515.96 368.61C507.32 384.4 495.45 404.78 486.31 420.29C478.5 433.52 472.67 443.22 472.51 443.49L472.26 443.89L418.57 445.1L407.05 445.36L403.13 445.45L361.06 446.4L361.46 443.9L365.39 419.12L365.79 416.59L402.64 410.47L416.11 408.24L445.99 403.28L451.18 387.96C460.321 361.033 475.596 336.6 495.8 316.59C496.39 316.02 496.99 315.48 497.62 314.97C498.17 314.53 498.73 314.11 499.3 313.73C501.72 317.16 503.88 320.26 505.71 322.75L510.14 328.78C516.188 337.019 520.375 346.474 522.41 356.49V356.49Z" fill="#6C63FF"/>
<path d="M299.16 448.068C299.601 449.35 300.437 450.46 301.548 451.239C302.658 452.017 303.987 452.423 305.343 452.399L331.835 451.717C333.201 451.69 334.522 451.222 335.6 450.383C336.678 449.543 337.456 448.378 337.816 447.06L341.565 406.973C342.895 407.575 344.343 407.873 345.803 407.843C348.364 407.779 350.796 406.7 352.561 404.843C354.327 402.986 355.283 400.504 355.219 397.943C355.154 395.381 354.075 392.95 352.218 391.184C350.362 389.418 347.88 388.462 345.318 388.527C344.735 388.525 344.152 388.585 343.582 388.707C342.961 388.036 342.207 387.502 341.368 387.14C340.528 386.778 339.622 386.595 338.708 386.604L297.957 387.657C297.619 387.669 297.283 387.711 296.952 387.781C296.058 387.948 295.211 388.304 294.466 388.826C293.722 389.347 293.098 390.022 292.636 390.806C292.174 391.589 291.886 392.461 291.79 393.365C291.693 394.269 291.792 395.183 292.079 396.046L299.16 448.068ZM342.334 404.251L345.001 394.698C345.305 393.594 345.312 392.43 345.022 391.323C345.151 391.323 345.265 391.262 345.395 391.261C347.224 391.224 348.993 391.913 350.315 393.177C351.637 394.442 352.403 396.18 352.446 398.009C352.489 399.838 351.805 401.609 350.544 402.934C349.283 404.26 347.547 405.031 345.718 405.079C344.536 405.116 343.366 404.829 342.334 404.251Z" fill="#CCCCCC"/>
<path d="M296.951 387.782C297.819 392.746 307.58 396.236 319.317 395.629C330.11 395.132 338.934 391.342 340.551 386.85C339.953 386.673 339.331 386.591 338.707 386.605L297.956 387.657C297.618 387.669 297.282 387.711 296.951 387.782V387.782Z" fill="#3F3D56"/>
</g>
<defs>
<clipPath id="clip0_1391_679">
<rect width="842" height="842.8" fill="white"/>
</clipPath>
</defs>
</svg>
