<svg width="693" height="295" viewBox="0 0 693 295" fill="none" xmlns="http://www.w3.org/2000/svg">
<g clip-path="url(#clip0_1391_634)">
<path d="M693 22.69V270.31C692.996 274.101 692.044 277.831 690.23 281.16C689.013 283.393 687.427 285.405 685.54 287.11C685.4 287.24 685.26 287.36 685.12 287.47C683.408 288.968 681.476 290.192 679.39 291.1C678.465 291.51 677.513 291.854 676.54 292.13C675.9 292.31 675.24 292.47 674.58 292.59C673.686 292.767 672.78 292.884 671.87 292.94C671.36 292.98 670.84 293 670.31 293H441.45L430 293.62L419.18 293H22.69C22.23 293 21.76 292.99 21.31 292.95C20.0709 292.88 18.84 292.706 17.63 292.43C12.6204 291.285 8.14805 288.473 4.94519 284.454C1.74233 280.436 -0.00123721 275.449 6.58675e-07 270.31V22.69C0.00724649 16.6745 2.40013 10.9074 6.65376 6.65375C10.9074 2.40012 16.6745 0.00724584 22.69 0H670.31C676.326 0.00724584 682.093 2.40012 686.346 6.65375C690.6 10.9074 692.993 16.6745 693 22.69V22.69Z" fill="#F2F2F2"/>
<path d="M161.84 0C126.352 82.7741 133.158 183.297 161.84 293H360.93C385.827 183.172 398.43 79.3485 360.93 0H161.84Z" fill="#E4E4E4"/>
<path d="M81.5403 0C16.6963 79.8 34.7871 182.451 81.5403 293H161.84C132.882 188.562 128.148 89.789 161.84 0H81.5403Z" fill="#CACACA"/>
<path d="M324.125 6.79199H294.011V36.9058H324.125V6.79199Z" fill="white"/>
<path d="M275.608 6.79199H245.494V36.9058H275.608V6.79199Z" fill="white"/>
<path d="M227.09 6.79199H196.977V36.9058H227.09V6.79199Z" fill="white"/>
<path d="M323.288 75.3848H293.174V105.499H323.288V75.3848Z" fill="white"/>
<path d="M274.771 75.3848H244.657V105.499H274.771V75.3848Z" fill="white"/>
<path d="M226.254 75.3848H196.141V105.499H226.254V75.3848Z" fill="white"/>
<path d="M322.452 143.978H292.338V174.091H322.452V143.978Z" fill="white"/>
<path d="M273.934 143.978H243.82V174.091H273.934V143.978Z" fill="white"/>
<path d="M225.418 143.978H195.304V174.091H225.418V143.978Z" fill="white"/>
<path d="M321.615 212.57H291.501V242.684H321.615V212.57Z" fill="white"/>
<path d="M273.098 212.57H242.984V242.684H273.098V212.57Z" fill="white"/>
<path d="M224.582 212.57H194.468V242.684H224.582V212.57Z" fill="white"/>
<path d="M320.78 281.16H290.66V293H320.78V281.16Z" fill="white"/>
<path d="M272.26 281.16H242.15V293H272.26V281.16Z" fill="white"/>
<path d="M223.74 281.16H193.63V293H223.74V281.16Z" fill="white"/>
<path d="M6.58675e-07 155.63V270.31C-0.00123721 275.449 1.74233 280.436 4.94519 284.454C8.14805 288.473 12.6204 291.285 17.63 292.43C18.84 292.706 20.0709 292.88 21.31 292.95C21.76 292.99 22.23 293 22.69 293H109.98C128.306 239.33 162 9.00008 24 29.0001L6.58675e-07 155.63Z" fill="#E4E4E4"/>
<path d="M70.6656 212.57H40.5518V242.684H70.6656V212.57Z" fill="white"/>
<path d="M22.15 212.57H0V242.68H22.15V212.57Z" fill="white"/>
<path d="M69.8298 281.16H39.7197V293H69.8298V281.16Z" fill="white"/>
<path d="M2.75977 281.16C4.30416 283.981 6.42731 286.443 8.98997 288.385C11.5526 290.327 14.4969 291.706 17.6298 292.43C18.8397 292.706 20.0707 292.88 21.3098 292.95V281.16H2.75977Z" fill="white"/>
<path d="M693 187.8V270.31C692.997 274.101 692.044 277.831 690.23 281.16L688.67 279.85L685.66 277.33L669 263.4L673.14 280.46L668.27 280.72L667.89 280.74L659.05 281.22L651.32 281.64H651.29L640.26 282.24L629.49 282.82L625.9 283.01L603.03 284.25L593.28 284.78L588.86 285.02L577.17 285.65L561.49 286.5L558.58 286.66L512.56 289.15L483.29 290.74L478.75 290.98L478.41 291L476.56 291.1H476.55L472.54 291.32L466.78 291.63L457.45 292.13L453.33 292.35L441.45 293L430 293.62L419.18 293L384.29 291L361.67 289.7L360.93 289.66L320.78 287.36L290.66 285.63L272.26 284.58L242.15 282.85L228.27 282.06L223.74 281.8L212.6 281.16L161.84 278.25L158.06 278.03L157.85 278.02L139.46 276.97L127.98 276.31L152.1 253.9L152.43 253.59L161.84 244.85C168.61 232.7 175.11 220.43 194.47 214.53L196.58 212.57L225.65 185.56L230.61 185.49L360.93 183.77L380.61 183.51L420.93 182.98L435.54 182.79L446.33 183.42L539.81 188.9L545.9 189.26L576.98 191.08L605.74 192.76L619.41 193.56L622.75 193.76L622.97 193.77L624.651 193.87L629.151 193.47L634.681 192.98L636.731 192.8L637.671 192.71L657.361 190.97L659.01 190.82L663.721 190.4L691.001 228L693 187.8Z" fill="#3F3D56"/>
<path d="M587.445 276.987C573.591 256.932 563.493 206.011 567.445 184.987C567.272 184.301 575.537 195.834 575.564 195.119C575.695 191.587 578.211 188.851 581.184 189.006L618.543 190.964C619.468 191.044 620.355 191.365 621.117 191.895C621.879 192.425 622.488 193.146 622.885 193.985L651.13 248.078C651.576 248.942 651.844 249.888 651.916 250.859C652.192 254.378 650.013 257.497 647.05 257.824L596.961 263.356C596.796 263.374 596.63 263.384 596.464 263.384C594.085 263.377 588.133 279.693 587.445 276.987Z" fill="white"/>
<path d="M428.415 276.8L428.782 278.79L430.204 286.45C430.491 288.008 430.936 289.532 431.531 291C431.708 291.46 431.91 291.91 432.123 292.35C432.229 292.57 432.336 292.78 432.455 293H535.021L552.044 291.03L552.257 291C555.766 290.518 559.027 288.919 561.557 286.44C563.656 284.35 565.321 281.866 566.458 279.131C567.594 276.395 568.179 273.462 568.179 270.5C568.203 269.673 568.179 268.845 568.108 268.02C568.016 266.851 567.833 265.691 567.563 264.55C569.479 242.8 564.431 221.597 552.814 200.91C551.862 196.488 549.531 192.483 546.157 189.47C543.384 187.016 539.857 185.584 536.158 185.41L453.364 182.01C450.21 181.909 447.099 182.755 444.431 184.44C439.361 187.58 435.677 193.5 434.954 200.62C427.985 223.001 425.659 246.569 428.119 269.88C427.891 272.189 427.991 274.519 428.415 276.8V276.8Z" fill="white"/>
<path d="M398.103 286.997L185.37 280.806C182.695 280.728 143.142 296.336 141.222 293.909C137.017 288.593 136.914 279.841 140.993 274.36L233.925 182.199C234.777 180.952 235.91 179.922 237.232 179.193C238.554 178.464 240.03 178.055 241.539 178H412.78C413.59 178.001 414.396 178.121 415.171 178.356C420.878 180.077 424.434 187.502 423.114 194.94L408.673 276.291C407.546 282.549 403.27 286.979 398.338 287C398.26 287 398.181 286.999 398.103 286.997Z" fill="white"/>
<path d="M620.495 197.338L439.698 184.87L225.65 185.562C251.98 157.72 367.708 123.774 491.651 164.781C615.646 168.937 624.651 193.875 624.651 193.875L626.198 196.299L620.495 197.338Z" fill="#6C63FF"/>
<path d="M692.12 276.55C691.665 278.152 691.031 279.699 690.23 281.16C689.012 283.393 687.427 285.405 685.54 287.11C685.4 287.24 685.26 287.36 685.12 287.47C683.408 288.968 681.475 290.192 679.39 291.1C678.465 291.51 677.513 291.854 676.54 292.13C675.9 292.31 675.24 292.47 674.58 292.59C673.685 292.767 672.78 292.884 671.87 292.94C671.36 292.98 670.84 293 670.31 293H441.45L430 293.62L419.18 293H22.6899C22.2299 293 21.7599 292.99 21.3099 292.95C20.0708 292.88 18.8399 292.706 17.6299 292.43L21.3099 291.89L27.4099 291L39.7199 289.2L69.8299 284.8L81.5399 283.09L109.98 278.94L114.73 278.25L127.98 276.31L139.67 276.54L157.56 276.9H157.78L161.84 276.98L189.03 277.52L199.02 277.72L272.3 279.17L279 279.3L288.99 279.5L320.8 280.14L360.93 280.93L363.61 280.98L406.58 281.84L407.14 281.85L429.06 280.3L450.51 278.79L466.76 277.65L472 277.28L472.2 277.27L473.36 277.19L474.12 277.13L480.5 276.68L504.37 275L515 274.25L519.58 273.93L524.37 273.59L568.18 270.5L580.38 269.64H580.39L587.06 269.17L599.29 268.31H599.3L611.87 267.42H611.88L616.76 267.08L618.63 266.95L632.87 265.95L641.48 265.34L656.26 264.3L660.83 263.98L666.97 263.54L668.65 263.42L669 263.4C669 263.4 674.14 263.51 680.84 267.23C682.962 268.412 684.967 269.791 686.83 271.35C688.121 272.423 689.349 273.568 690.51 274.78C691.05 275.34 691.58 275.93 692.12 276.55Z" fill="#6C63FF"/>
<path d="M465.41 293H480.92L479.5 291.68L478.77 291L478.75 290.98L475.48 287.95L472.88 285.53L470.77 287.64L469.92 288.49L467.41 291L466.78 291.63L465.41 293Z" fill="#CACACA"/>
<path d="M550.38 293H574.23L577.9 291L588.86 285.02L591.44 283.61L611.87 267.42H611.88L617.01 263.36L619.67 261.25L622.96 258.64L639.21 245.77C639.66 245.413 640.078 245.018 640.46 244.59C641.345 243.587 642.016 242.415 642.432 241.144C642.848 239.874 643 238.531 642.88 237.2C642.873 237.085 642.856 236.971 642.83 236.86C642.652 235.394 642.145 233.988 641.347 232.746C640.548 231.505 639.479 230.46 638.22 229.69C636.444 228.601 634.369 228.104 632.293 228.271C630.217 228.439 628.248 229.261 626.67 230.62L614.75 240.67L609.99 244.68L591.56 260.22L580.39 269.64H580.38L578.25 271.44L558.58 286.66L552.96 291L550.38 293Z" fill="#FFB6B6"/>
<path d="M632.954 257.872C633.583 257.958 634.224 257.836 634.776 257.523C635.329 257.21 635.764 256.725 636.015 256.141C636.337 255.426 636.874 254.83 637.552 254.436C637.684 254.361 637.82 254.295 637.961 254.238C638.816 253.916 639.58 253.393 640.19 252.712C640.799 252.031 641.235 251.214 641.461 250.328C642.161 247.404 644.409 244.567 646.668 242.379C649.139 239.985 651.777 237.689 653.604 234.773C656.238 230.567 656.977 224.663 651.894 221.153C649.709 219.694 647.088 219.033 644.472 219.281C638.996 219.727 634.467 223.068 630.165 226.306L631.242 224.192C626.605 227.811 621.285 230.456 615.601 231.969C616.585 232.863 615.732 234.651 614.47 235.067C613.208 235.483 611.847 235.044 610.547 234.768C608.908 234.421 606.882 234.45 606.235 236.407C606.094 236.879 606.052 237.376 606.111 237.865C606.171 238.355 606.331 238.827 606.582 239.251C611.148 247.376 617.345 254.469 624.784 260.084C626.437 261.33 628.356 262.556 630.411 262.313C632.467 262.069 634.215 259.514 632.954 257.872Z" fill="#6C63FF"/>
<path d="M628.42 274.42L629.49 282.82L630.53 291L630.64 291.87L630.79 293H670.31C670.84 293 671.36 292.98 671.87 292.94C672.78 292.884 673.685 292.767 674.58 292.59L675.03 290.46L675.29 289.19L658.76 283.98L651.32 281.64H651.3L640.55 278.24L628.42 274.42Z" fill="#FFB6B6"/>
<path d="M613.07 254.68C613.88 256.47 614.97 258.86 616.19 261.57C616.46 262.15 616.73 262.75 617.01 263.36C617.53 264.52 618.07 265.72 618.63 266.95C621.1 272.42 623.79 278.36 625.9 283.01C627.65 286.9 629.01 289.9 629.5 291C629.65 291.31 629.72 291.47 629.72 291.47L630.64 291.87L633.27 293H670.31C670.84 293 671.36 292.98 671.87 292.94C672.78 292.885 673.686 292.768 674.58 292.59C675.24 292.47 675.9 292.31 676.54 292.13C677.513 291.854 678.466 291.51 679.39 291.1C681.476 290.193 683.409 288.968 685.12 287.47C685.2 286.78 685.36 285.67 685.53 284.32C685.797 282.304 685.941 280.274 685.96 278.24C685.96 276.61 681.96 273.97 680.84 267.23C680.464 264.768 680.46 262.263 680.83 259.8C682.9 244.62 682.17 221.39 667.54 216.85L657.02 198.43H636.95L633.69 208.04V208.05L631.82 213.56L630.7 216.85L630.46 217.17L623.3 226.56C623.3 226.56 622.16 228.01 620.6 230.3V230.31C618.349 233.584 616.391 237.051 614.75 240.67C613.679 243.014 612.907 245.484 612.45 248.02C612.004 250.253 612.22 252.568 613.07 254.68Z" fill="#2F2E41"/>
<path d="M655.366 179.865C640.62 191.083 624.198 200.011 621.102 212.356C621.102 212.356 622.956 192.959 614.307 196.636C599.774 202.813 604.691 169.218 608.767 163.724C615.559 154.569 638.463 149.366 638.463 149.366L654.711 158.286L655.366 179.865Z" fill="#2F2E41"/>
<path d="M629.688 193.478C643.754 193.478 655.156 182.076 655.156 168.011C655.156 153.945 643.754 142.543 629.688 142.543C615.623 142.543 604.221 153.945 604.221 168.011C604.221 182.076 615.623 193.478 629.688 193.478Z" fill="#FFB6B6"/>
<path d="M638.861 158.266L639.841 162.571L622.709 166.471C622.694 165.6 622.499 164.742 622.137 163.951C621.774 163.159 621.252 162.451 620.603 161.871C620.972 163.558 620.93 165.31 620.48 166.978C611.241 172.163 611.771 174 604.304 172.677C603.803 172.792 603.285 172.806 602.778 172.719C602.272 172.633 601.788 172.448 601.353 172.174C600.918 171.901 600.541 171.544 600.244 171.125C599.947 170.706 599.735 170.232 599.621 169.731C596.617 156.534 595.63 143.046 608.762 139.77C611.954 138.972 615.274 138.819 618.526 139.321C621.778 139.822 624.897 140.968 627.7 142.69C630.503 144.413 632.935 146.678 634.851 149.353C636.768 152.028 638.131 155.058 638.861 158.266V158.266Z" fill="#2F2E41"/>
<path d="M634.67 175.439C633.832 171.763 632.187 168.319 629.856 165.355C627.525 162.391 624.565 159.982 621.19 158.3C617.815 156.619 614.108 155.708 610.338 155.633C606.568 155.557 602.828 156.32 599.389 157.865C600.58 154.348 602.992 151.375 606.186 149.482L625.47 141.11C634.981 138.945 650.039 132.799 656.909 138.685C663.239 144.091 660.158 154.675 665.987 160.602C672.375 167.098 672.917 174.779 671.106 179.197C669.01 184.308 664.817 191.28 659.585 192.79C659.312 190.991 658.415 189.346 657.051 188.143C657.428 189.857 657.461 191.629 657.147 193.356L625.47 218.62C628.428 216.047 630.949 209.417 632.685 201.949C633.712 197.529 639.844 195.977 634.871 188.475C629.899 180.973 635.346 178.405 634.67 175.439Z" fill="#2F2E41"/>
<path d="M660.043 147.26L659.954 147.438C659.845 147.675 659.737 147.912 659.648 148.159L659.638 148.169C659.154 148.346 658.611 148.06 658.078 147.606C658.161 148.674 658.22 149.707 658.265 150.72L641.4 144.12C644.333 144.627 644.767 134.192 646.871 136.191C646.989 136.3 647.098 136.409 647.206 136.517C646.944 135.888 646.765 135.227 646.673 134.552C646.583 133.705 646.65 132.848 646.871 132.024C646.874 132.021 646.877 132.016 646.879 132.011C646.881 132.006 646.881 132 646.88 131.995C647.091 131.25 647.417 130.544 647.848 129.901C648.469 128.967 649.256 128.154 650.169 127.502C651.333 126.612 652.691 126.009 654.132 125.741C655.573 125.474 657.057 125.549 658.463 125.962C661.684 127.18 664.347 129.538 665.947 132.587C667.406 134.934 668.15 137.655 668.09 140.417C668.03 141.142 667.874 141.856 667.626 142.54C667.318 143.501 666.793 144.378 666.09 145.102C665.388 145.827 664.528 146.379 663.578 146.717C663.341 146.796 663.064 146.885 662.768 146.994C662.61 145.709 662.6 144.41 662.738 143.123C661.64 144.361 660.732 145.756 660.043 147.26V147.26Z" fill="#2F2E41"/>
<path d="M643.711 143.449C643.733 143.999 643.799 144.547 643.908 145.088C643.917 145.158 643.93 145.227 643.948 145.295C644.639 148.366 648.381 141.977 651.274 144.12C653.077 145.419 655.078 146.419 657.199 147.082C657.288 146.835 658.078 147.319 658.186 147.082C658.216 147.023 658.157 146.154 658.186 146.095C656.382 145.4 654.711 144.398 653.249 143.133C650.534 141.128 650.919 143.004 650.287 140.17C649.556 136.902 645.251 138.304 647.463 136.754L647.206 136.398C645.636 137.483 644.477 139.066 643.918 140.891C643.919 140.897 643.918 140.902 643.917 140.907C643.915 140.912 643.912 140.917 643.908 140.921C643.743 141.753 643.677 142.601 643.711 143.449V143.449Z" fill="#6C63FF"/>
<path d="M639.48 293H657.83L658.04 291L658.76 283.98L659.05 281.22L660.29 269.21L660.83 263.98L662.02 252.45L662.42 248.57C662.675 246 661.91 243.434 660.29 241.423C658.67 239.412 656.325 238.118 653.76 237.82C653.389 237.777 653.015 237.754 652.641 237.75H652.61C652.156 237.755 651.702 237.785 651.25 237.84C648.939 238.172 646.82 239.313 645.27 241.06C643.806 242.699 642.939 244.786 642.81 246.98L642.8 247.13V247.14L641.93 259.18L641.48 265.34L641.24 268.75L640.55 278.24L640.26 282.24L639.63 291L639.48 293Z" fill="#FFB6B6"/>
<path d="M666.71 261.502C667.211 261.112 667.57 260.568 667.732 259.953C667.894 259.339 667.85 258.689 667.607 258.102C667.32 257.372 667.268 256.572 667.459 255.811C667.497 255.665 667.546 255.521 667.603 255.38C667.969 254.543 668.128 253.63 668.066 252.719C668.004 251.808 667.723 250.924 667.246 250.145C665.642 247.602 665.179 244.012 665.189 240.868C665.2 237.427 665.398 233.935 664.584 230.592C663.411 225.769 659.7 221.118 653.639 222.308C651.069 222.855 648.765 224.27 647.117 226.316C643.613 230.548 642.845 236.124 642.161 241.464L641.399 239.218C640.753 245.064 638.934 250.72 636.049 255.845C637.376 255.765 638.061 257.624 637.478 258.818C636.894 260.012 635.63 260.681 634.525 261.419C633.132 262.35 631.739 263.821 632.689 265.65C632.929 266.081 633.255 266.458 633.647 266.757C634.039 267.056 634.489 267.271 634.968 267.388C643.973 269.79 653.378 270.303 662.591 268.896C664.637 268.582 666.854 268.064 668.115 266.422C669.375 264.78 668.766 261.745 666.71 261.502Z" fill="#6C63FF"/>
<path d="M472 282.38C472 285.197 473.119 287.898 475.111 289.889C477.102 291.881 479.803 293 482.62 293H504.38C507.197 293 509.898 291.881 511.889 289.889C513.881 287.898 515 285.197 515 282.38V274.283C515 272.569 514.585 270.881 513.791 269.363C512.997 267.844 511.847 266.54 510.44 265.562C509.033 264.584 507.41 263.961 505.71 263.747C504.009 263.532 502.282 263.732 500.676 264.33L478.917 272.426C476.886 273.182 475.135 274.54 473.899 276.32C472.663 278.099 472 280.213 472 282.38V282.38Z" fill="#CACACA"/>
<path d="M22.69 291C22.23 291 21.77 290.98 21.31 290.95V291.89L27.41 291H22.69ZM109.98 291V293H161.84V291H109.98ZM384.29 291L419.18 293H441.45L453.33 292.35L457.45 292.13L466.78 291.63L472.54 291.32L476.55 291.1H476.56L478.41 291H384.29ZM670.31 291H668.43L668.54 293H670.31C670.84 293 671.36 292.98 671.87 292.94L671.96 291.69L672.02 290.92C671.452 290.977 670.881 291.004 670.31 291V291ZM22.69 291C22.23 291 21.77 290.98 21.31 290.95V291.89L27.41 291H22.69ZM109.98 291V293H161.84V291H109.98ZM384.29 291L419.18 293H441.45L453.33 292.35L457.45 292.13L466.78 291.63L472.54 291.32L476.55 291.1H476.56L478.41 291H384.29ZM22.69 291C22.23 291 21.77 290.98 21.31 290.95V291.89L27.41 291H22.69ZM39.72 291V293H223.74V291H39.72ZM384.29 291L419.18 293H441.45L453.33 292.35L457.45 292.13L466.78 291.63L472.54 291.32L476.55 291.1H476.56L478.41 291H384.29ZM670.31 291H591.95C591.84 291.66 591.74 292.33 591.65 293H670.31C670.84 293 671.36 292.98 671.87 292.94L671.96 291.69L672.02 290.92C671.452 290.977 670.881 291.004 670.31 291V291ZM22.69 291C22.23 291 21.77 290.98 21.31 290.95V291.89L27.41 291H22.69ZM22.69 291C22.23 291 21.77 290.98 21.31 290.95V291.89L27.41 291H22.69ZM22.69 291C22.23 291 21.77 290.98 21.31 290.95V291.89L27.41 291H22.69ZM22.69 291C22.23 291 21.77 290.98 21.31 290.95V291.89L27.41 291H22.69ZM22.69 291C22.23 291 21.77 290.98 21.31 290.95V291.89L27.41 291H22.69ZM22.69 291C22.23 291 21.77 290.98 21.31 290.95V291.89L27.41 291H22.69ZM22.69 291C22.23 291 21.77 290.98 21.31 290.95V291.89L27.41 291H22.69ZM22.69 291C22.23 291 21.77 290.98 21.31 290.95C18.0193 290.734 14.8283 289.732 12.0045 288.029C9.1806 286.325 6.80612 283.97 5.08 281.16H2.76001C4.30441 283.98 6.42756 286.442 8.99022 288.385C11.5529 290.327 14.4972 291.705 17.63 292.43L21.31 291.89L27.41 291H22.69ZM670.31 0H22.69C16.6745 0.00724584 10.9074 2.40012 6.65376 6.65375C2.40013 10.9074 0.00724649 16.6744 6.58675e-07 22.69V270.31C-0.00123721 275.449 1.74233 280.436 4.94519 284.454C8.14805 288.473 12.6204 291.285 17.63 292.43C18.84 292.706 20.0709 292.88 21.31 292.95C21.76 292.99 22.23 293 22.69 293H670.31C670.84 293 671.36 292.98 671.87 292.94C672.78 292.884 673.686 292.767 674.58 292.59C675.24 292.47 675.9 292.31 676.54 292.13C677.513 291.854 678.465 291.51 679.39 291.1C681.476 290.192 683.408 288.968 685.12 287.47C685.26 287.36 685.4 287.24 685.54 287.11C687.427 285.405 689.013 283.393 690.23 281.16C692.044 277.831 692.996 274.101 693 270.31V22.69C692.993 16.6744 690.6 10.9074 686.346 6.65375C682.093 2.40012 676.326 0.00724584 670.31 0V0ZM691 270.31C691 271.813 690.836 273.312 690.51 274.78C690.128 276.545 689.509 278.25 688.67 279.85C687.891 281.354 686.927 282.755 685.8 284.02V284.03L685.79 284.04C685.71 284.13 685.62 284.23 685.53 284.32C683.061 287.017 679.916 289.006 676.42 290.08C676.1 290.18 675.78 290.27 675.46 290.36C675.32 290.4 675.18 290.43 675.03 290.46C674.04 290.691 673.034 290.845 672.02 290.92C671.452 290.977 670.881 291.004 670.31 291H22.6899C22.2299 291 21.77 290.98 21.31 290.95C16.0748 290.597 11.1689 288.27 7.58424 284.438C3.99957 280.607 2.0036 275.557 1.99995 270.31V157.68C1.99995 156.99 1.99995 156.31 2.00995 155.63C2.53124 114.693 19.1638 75.6115 48.303 46.8542C77.4421 18.0969 116.74 1.98127 157.68 2H670.31C673.027 1.99946 675.718 2.53424 678.228 3.57382C680.739 4.6134 683.02 6.13739 684.941 8.05875C686.863 9.9801 688.387 12.2612 689.426 14.7716C690.466 17.2821 691 19.9728 691 22.69L691 270.31ZM22.69 291C22.23 291 21.77 290.98 21.31 290.95V291.89L27.41 291H22.69ZM22.69 291C22.23 291 21.77 290.98 21.31 290.95V291.89L27.41 291H22.69ZM22.69 291C22.23 291 21.77 290.98 21.31 290.95V291.89L27.41 291H22.69ZM22.69 291C22.23 291 21.77 290.98 21.31 290.95V291.89L27.41 291H22.69ZM22.69 291C22.23 291 21.77 290.98 21.31 290.95V291.89L27.41 291H22.69ZM22.69 291C22.23 291 21.77 290.98 21.31 290.95V291.89L27.41 291H22.69ZM22.69 291C22.23 291 21.77 290.98 21.31 290.95V291.89L27.41 291H22.69ZM22.69 291C22.23 291 21.77 290.98 21.31 290.95V291.89L27.41 291H22.69ZM384.29 291L419.18 293H441.45L453.33 292.35L457.45 292.13L466.78 291.63L472.54 291.32L476.55 291.1H476.56L478.41 291H384.29ZM109.98 291V293H161.84V291H109.98ZM22.69 291C22.23 291 21.77 290.98 21.31 290.95V291.89L27.41 291H22.69ZM384.29 291L419.18 293H441.45L453.33 292.35L457.45 292.13L466.78 291.63L472.54 291.32L476.55 291.1H476.56L478.41 291H384.29ZM109.98 291V293H161.84V291H109.98ZM22.69 291C22.23 291 21.77 290.98 21.31 290.95V291.89L27.41 291H22.69ZM670.31 291H668.43L668.54 293H670.31C670.84 293 671.36 292.98 671.87 292.94L671.96 291.69L672.02 290.92C671.452 290.977 670.881 291.004 670.31 291V291ZM384.29 291L419.18 293H441.45L453.33 292.35L457.45 292.13L466.78 291.63L472.54 291.32L476.55 291.1H476.56L478.41 291H384.29ZM109.98 291V293H161.84V291H109.98Z" fill="#3F3D56"/>
</g>
<defs>
<clipPath id="clip0_1391_634">
<rect width="693" height="294.165" fill="white"/>
</clipPath>
</defs>
</svg>
