<svg width="37" height="38" viewBox="0 0 37 38" fill="none" xmlns="http://www.w3.org/2000/svg">
<path d="M0 0.5H37V30.9706L23.9412 37.5H0V0.5Z" fill="#F8E08E"/>
<path d="M25.0766 14.2205C25.4721 14.2205 25.8468 14.1392 26.1818 13.9939C26.1253 14.1974 26.1106 14.4305 26.1421 14.6938C26.0949 14.8129 26.0377 14.9339 25.9731 15.0511C25.8855 15.2103 25.7844 15.3626 25.6698 15.5079L25.4878 15.7156L25.3934 15.8125C25.3597 15.8402 25.3193 15.8748 25.2856 15.9094C25.1373 16.0409 24.9688 16.1724 24.8002 16.297C24.625 16.4216 24.443 16.5462 24.261 16.6569C24.1287 16.7345 23.9965 16.8121 23.8642 16.885C23.7665 16.8789 23.6385 16.8851 23.5037 16.8917L23.4925 16.8923L23.4925 16.8939C23.1988 16.9137 22.8538 16.9563 22.6053 16.987C22.5005 16.9999 22.4128 17.0107 22.3533 17.0169C22.3236 17.0192 22.2948 17.0216 22.267 17.024C22.0496 17.0425 21.8917 17.0559 21.7602 16.9822C21.5906 16.9109 21.4704 16.7949 21.346 16.6749C21.1687 16.5038 20.9831 16.3246 20.6345 16.2555C20.567 16.2416 20.4929 16.2347 20.4188 16.2347H20.3716C20.3544 16.2341 20.3381 16.2329 20.3226 16.2312C20.4102 16.2277 20.4944 16.2311 20.5738 16.2416C20.554 16.1063 20.5414 15.9167 20.5285 15.7224C20.5018 15.3204 20.4737 14.8988 20.3783 14.8988C20.3295 14.8988 20.1922 15.0188 20.0281 15.2185C20.0068 15.0433 19.9665 14.8988 19.893 14.8988C19.7447 14.8988 19.4211 15.3834 19.2054 15.8402C19.1159 16.0297 19.0554 16.2097 19.0018 16.3693L19.0018 16.3694C18.9262 16.5944 18.8642 16.7789 18.7538 16.8923C18.7066 16.9338 18.6594 16.9822 18.619 17.0238C18.4878 17.1653 18.3394 17.3501 18.1732 17.5571C17.6649 18.1902 16.9901 19.0306 16.1316 19.474C15.1729 19.9633 13.732 20.0604 12.05 20.1738L12.0499 20.1738C11.7333 20.1952 11.4081 20.2171 11.0761 20.2423C10.0813 20.3146 9.40828 20.5146 8.95766 20.8092C8.45605 21.1326 8.22895 21.5741 8.13709 22.0904C8.08564 22.3956 8.08752 22.651 8.08928 22.8905C8.08959 22.9334 8.0899 22.9758 8.0899 23.0179L8.09363 23.0166C8.09153 23.4797 8.04684 23.893 7.51694 24.5199C7.05183 25.0736 6.19575 25.565 5.34641 26.0149C4.49708 26.4648 4.37574 26.714 4.51056 26.9632C4.54485 27.0299 4.57093 27.0822 4.59228 27.1251C4.65067 27.2423 4.67378 27.2886 4.733 27.3646C4.73977 27.3733 4.74649 27.3824 4.75332 27.3915L4.75338 27.3916C4.82814 27.492 4.91576 27.6097 5.21834 27.4892C5.54189 27.3577 7.1462 26.534 7.75961 25.9665C8.02035 25.7252 8.21898 25.4677 8.38914 25.2471C8.61929 24.9487 8.79737 24.7178 9.00665 24.686C9.01973 24.684 9.0326 24.682 9.04525 24.68L9.07369 24.6756L9.07414 24.6756C9.39446 24.6258 9.56141 24.5998 9.49198 24.859C9.41783 25.1359 9.04709 26.1187 8.15731 26.6794C7.73903 26.9417 7.23 27.1419 6.81721 27.3042C6.35857 27.4845 6.01872 27.6182 6.05419 27.7384C6.1216 27.9668 6.22271 28.216 6.32382 28.3337C6.34104 28.3537 6.35572 28.3727 6.36926 28.3903C6.4352 28.4758 6.474 28.5261 6.64738 28.4859C6.85634 28.4375 8.42694 27.9045 9.12798 27.4892C9.82902 27.0809 10.4424 26.0841 10.6581 25.5581C10.8738 25.0321 11.1772 24.506 11.6423 24.5129C12.1074 24.5199 13.9139 24.333 14.8644 24.1184C15.0834 24.069 15.3289 24.0034 15.5816 23.9358C16.4258 23.7102 17.3511 23.4629 17.6416 23.7239C18.0123 24.07 18.8145 24.5337 20.2502 25.0944C21.686 25.6481 22.3938 25.828 22.8454 25.6758C23.3038 25.5235 23.5734 25.0944 23.169 24.8936C22.9786 24.7976 22.9025 24.7919 22.7767 24.7824C22.6395 24.7722 22.4433 24.7575 21.9759 24.6168C21.0793 24.3468 19.5357 23.5716 19.1717 23.2048L19.1424 23.1739C18.9135 22.9328 18.8115 22.8255 18.9021 22.6926C18.956 22.6026 19.2189 22.6995 19.4616 22.8171C19.7042 22.9348 21.8006 23.6477 22.2185 23.7723C22.2845 23.7917 22.3515 23.8124 22.4185 23.8331C22.7827 23.9457 23.1481 24.0586 23.3645 23.9592C23.6206 23.8346 23.6476 23.5578 23.6071 23.4124C23.5667 23.2671 23.4858 23.1286 23.2499 22.9971C23.1169 22.9269 22.8811 22.8676 22.61 22.7996C22.4003 22.7469 22.1695 22.6889 21.9489 22.6164C21.4433 22.4503 20.1222 21.8412 19.9199 21.7166C19.7177 21.592 19.657 21.4951 19.7514 21.2944C19.839 21.0868 19.9536 20.7199 20.0278 20.3946C20.0751 20.1664 20.2882 19.9893 20.4484 19.8561C20.5166 19.7994 20.5753 19.7507 20.6075 19.7094C20.7153 19.5709 20.9715 19.4602 21.2344 19.391C21.2762 19.38 21.3347 19.3639 21.4063 19.3442L21.4064 19.3442C21.7851 19.2401 22.5301 19.0353 23.1083 18.948C23.7959 18.8442 23.9374 18.7057 23.9914 18.5258C24.0047 18.471 24.0337 18.3934 24.0679 18.3019C24.0908 18.2406 24.1161 18.1731 24.1406 18.1018C24.2294 18.0649 24.3158 18.0255 24.4022 17.986L24.4024 17.9859L24.4025 17.9859C24.6385 17.8682 24.8609 17.7505 25.0834 17.626C25.2991 17.5014 25.5148 17.3629 25.7237 17.2245C25.9327 17.0861 26.1417 16.9338 26.3371 16.7677C26.3533 16.7558 26.3703 16.7423 26.3876 16.728C26.3229 16.8266 26.2525 16.9248 26.1821 17.0169L26.1282 17.0861L26.0675 17.1553C26.0473 17.1795 26.0254 17.2037 26.0035 17.228C25.9816 17.2522 25.9597 17.2764 25.9394 17.3006C25.7642 17.4875 25.5687 17.6813 25.3665 17.8613C25.1575 18.0482 24.9485 18.2212 24.7261 18.3873C24.5104 18.5534 24.288 18.7126 24.0588 18.8511C23.9849 18.8957 23.9109 18.9375 23.8388 18.9782L23.8385 18.9784C23.7989 19.0008 23.7599 19.0228 23.7217 19.0449C23.6139 19.1072 23.506 19.1556 23.4184 19.1902L23.3914 19.1972C22.987 19.3564 22.7713 19.8201 22.9128 20.2492C23.0544 20.6853 23.5195 20.9206 23.9509 20.7753C24.1397 20.7061 24.3014 20.6368 24.4565 20.5607C24.6048 20.4846 24.7531 20.4084 24.8946 20.3254C25.1777 20.1593 25.4406 19.9862 25.7035 19.7993C25.9664 19.6194 26.2158 19.4256 26.4652 19.2179C26.7146 19.0172 26.9573 18.7957 27.1932 18.5534C27.2235 18.5223 27.2522 18.4912 27.2808 18.46C27.3095 18.4289 27.3381 18.3977 27.3685 18.3666L27.4561 18.2697L27.5437 18.1658C27.6348 18.0559 27.7173 17.9459 27.7981 17.8324C27.9697 18.1054 28.1265 18.387 28.2515 18.685C28.5279 19.3356 28.7503 19.8547 28.9054 20.2008C28.5549 20.5399 28.1976 20.886 27.8471 21.2321L27.5437 21.5367L27.3954 21.6889L27.2404 21.8412C27.2069 21.8756 27.1735 21.9107 27.1398 21.946C27.0716 22.0176 27.0025 22.0901 26.9303 22.1596L26.7685 22.3326L26.6203 22.4918L26.6137 22.499C26.5145 22.6077 26.409 22.7232 26.3034 22.8587C26.2887 22.8776 26.2734 22.8965 26.258 22.9157L26.2579 22.9158L26.2578 22.9159L26.2578 22.916L26.2577 22.916C26.2167 22.967 26.174 23.0199 26.1349 23.0802C26.0743 23.1632 26.0136 23.2463 25.9529 23.3501C25.9457 23.3624 25.9383 23.3749 25.9308 23.3877C25.8748 23.4826 25.8101 23.5922 25.7507 23.7446C25.739 23.7686 25.7296 23.7949 25.7198 23.8222L25.7198 23.8223C25.7126 23.8422 25.7053 23.8626 25.6968 23.8831C25.6934 23.8969 25.6883 23.9108 25.6833 23.9246C25.6782 23.9384 25.6732 23.9523 25.6698 23.9661L25.6563 24.0146C25.6525 24.0224 25.6509 24.0301 25.649 24.0391C25.6475 24.0462 25.6458 24.0539 25.6428 24.063C25.6294 24.1253 25.6159 24.2015 25.6024 24.2845C25.5976 24.3442 25.5927 24.411 25.5929 24.4849C25.5928 24.5161 25.5936 24.5485 25.5957 24.5822C25.6024 24.6929 25.6159 24.8106 25.6563 24.9352C25.69 25.0597 25.744 25.1913 25.8114 25.3089C25.8788 25.4266 25.9529 25.5235 26.0271 25.5996C26.1012 25.6758 26.1686 25.7381 26.236 25.7865C26.2831 25.8204 26.3269 25.8475 26.3675 25.8725C26.3849 25.8833 26.4018 25.8938 26.418 25.9042L26.4181 25.9042C26.472 25.9319 26.5259 25.9596 26.5731 25.9803C26.6674 26.0218 26.7483 26.0495 26.8225 26.0703C26.9585 26.1084 27.0662 26.129 27.1663 26.1482C27.1753 26.1499 27.1843 26.1516 27.1932 26.1534C27.2088 26.1554 27.2242 26.1574 27.2395 26.1593C27.33 26.1711 27.4148 26.182 27.4898 26.188C27.6786 26.2018 27.8403 26.2018 28.0021 26.2018C28.083 26.2018 28.1571 26.2018 28.2313 26.1949L28.8514 26.1741C29.4042 26.1534 29.9569 26.1395 30.5029 26.1395C31.6084 26.1603 32.7072 26.1534 33.8126 26.1257C34.4598 26.1118 34.9855 25.5719 34.999 24.9075C34.9997 24.8894 35 24.8714 35 24.8535C35.0014 24.2683 34.6035 23.776 34.0647 23.6507C33.9857 23.6323 33.9036 23.6218 33.8194 23.6201C32.7139 23.5924 31.6152 23.5854 30.5097 23.6062C30.1726 23.6062 29.8289 23.5993 29.4918 23.5924L29.7547 23.357L30.9883 22.2565L32.2286 21.156C32.2311 21.1534 32.2346 21.1508 32.2383 21.1482C32.2395 21.1473 32.2408 21.1464 32.242 21.1456C32.2429 21.145 32.2438 21.1444 32.2446 21.1438C32.2488 21.1409 32.2527 21.1381 32.2555 21.1352C32.3297 21.066 32.3903 20.9968 32.451 20.9137C32.9835 20.27 33.0375 19.7094 32.5117 18.1035C31.9252 16.3178 30.995 14.8642 30.3007 14.1513C29.6064 13.4384 28.9256 12.8016 27.719 12.94C27.5828 12.9557 27.454 12.9783 27.333 13.0081C27.5402 12.6684 27.6583 12.2769 27.6583 11.8603C27.6583 10.5567 26.5025 9.5 25.0766 9.5C23.6508 9.5 22.4949 10.5567 22.4949 11.8603C22.4949 13.1638 23.6508 14.2205 25.0766 14.2205Z" fill="#003A70"/>
<path d="M6.07442 21.9381C5.7913 22.1804 5.49471 22.4088 5.17115 22.5887C4.99589 22.6856 4.80715 22.7756 4.62515 22.8518C4.44989 22.9141 4.24767 22.9417 4.05893 22.9417C3.86345 22.9417 3.6747 22.9141 3.48596 22.8725C3.33767 22.8379 3.18937 22.7825 3.04107 22.7272C2.75796 22.6095 2.48159 22.4711 2.21196 22.3188C2.11085 22.2634 2.05018 22.1665 2.01648 22.0627C1.98277 21.9519 2.003 21.8274 2.05692 21.7305C2.10411 21.6336 2.21196 21.5574 2.30633 21.5297C2.41418 21.4951 2.53552 21.5159 2.62989 21.5713C2.81863 21.682 3.00737 21.7858 3.20959 21.8758C3.41181 21.9589 3.62752 22.0281 3.84322 22.0627C3.95108 22.0696 4.06567 22.0765 4.18026 22.0627C4.28137 22.0419 4.38248 22.0142 4.47686 21.9727C4.78693 21.8274 5.07678 21.6405 5.35315 21.4259C5.59582 21.2321 5.81827 21.0245 6.04071 20.8168C6.16879 20.6922 6.3036 20.5746 6.44516 20.4638C6.58671 20.36 6.74849 20.2838 6.91027 20.2146C7.05183 20.1523 7.20686 20.1246 7.3619 20.1108C7.50697 20.0905 7.64559 20.1099 7.79038 20.1302L7.80005 20.1316C8.04906 20.1709 8.26784 20.3034 8.48502 20.4349L8.52131 20.4569L9.00665 20.7684C8.72353 20.9414 8.52805 21.149 8.3865 21.3844C8.36964 21.374 8.35448 21.3636 8.33931 21.3532C8.32414 21.3428 8.30898 21.3325 8.29213 21.3221C8.21837 21.2716 8.14104 21.2248 8.06534 21.179C8.03728 21.162 8.0094 21.1451 7.98205 21.1283C7.91465 21.0937 7.85398 21.0591 7.79332 21.0245C7.73266 20.9968 7.67197 20.9829 7.60457 20.9691C7.53042 20.9622 7.45627 20.9622 7.38212 20.9691C7.30124 20.9898 7.22033 21.0106 7.1462 21.0383C7.05183 21.0798 6.96419 21.1352 6.88331 21.1975C6.79915 21.2666 6.72024 21.3439 6.64167 21.4208C6.59438 21.467 6.54721 21.5132 6.49908 21.5574C6.36427 21.6889 6.22271 21.8135 6.07442 21.9381Z" fill="#003A70"/>
</svg>
